{
.appVersion = "1342";
copyright = "Copyright 2018 The Changa Project Authors (https://github.com/eliheuer/changa-vf)";
customParameters = (
{
name = fsType;
value = (
);
},
{
name = license;
value = "This Font Software is licensed under the SIL Open Font License, Version 1.1. This license is available with a FAQ at: http://scripts.sil.org/OFL";
},
{
name = licenseURL;
value = "http://scripts.sil.org/OFL";
},
{
name = trademark;
value = "Changa is a trademark of Eduardo Rodriguez Tunni.";
},
{
name = vendorID;
value = TIPO;
},
{
name = "Disable Last Change";
value = 1;
},
{
name = "Use Line Breaks";
value = 1;
},
{
name = "Use Typo Metrics";
value = 1;
}
);
date = "2019-04-17 18:27:21 +0000";
designer = "Eduardo Rodriguez Tunni";
designerURL = "http://www.tipo.net.ar";
familyName = Changa;
featurePrefixes = (
{
automatic = 1;
code = "languagesystem DFLT dflt;
languagesystem arab dflt;
languagesystem latn dflt;
languagesystem cyrl dflt;
languagesystem latn CAT;
languagesystem latn ROM;
languagesystem latn MOL;
languagesystem latn KAZ;
languagesystem latn TRK;
languagesystem latn CRT;
languagesystem latn AZE;
languagesystem cyrl TAT;
languagesystem arab URD;
";
name = Languagesystems;
}
);
features = (
{
code = "feature locl;
feature subs;
feature sinf;
feature sups;
feature numr;
feature dnom;
feature frac;
feature ordn;
feature init;
feature medi;
feature fina;
feature rlig;
";
name = aalt;
},
{
automatic = 1;
code = "lookup ccmp_Other_1 {
	@CombiningTopAccents = [acutecomb brevecomb caroncomb circumflexcomb commaturnedabovecomb dieresiscomb dotaccentcomb gravecomb hungarumlautcomb macroncomb ringcomb tildecomb];
	@CombiningNonTopAccents = [cedillacomb ogonekcomb slashlongcomb slashshortcomb strokelongcomb strokeshortcomb];
	sub [i j]' @CombiningTopAccents by [idotless jdotless];
	sub [i j]' @CombiningNonTopAccents @CombiningTopAccents by [idotless jdotless];
} ccmp_Other_1;

lookup ccmp_arab_1 {
	sub hamzaabove-ar damma-ar by hamzaaboveDamma-ar;

glyphs = (
{
glyphname = A;
layers = (
{
anchors = (
{
name = bottom;
position = "{321, 0}";
},
{
name = ogonek;
position = "{626, 0}";
},
{
name = top;
position = "{321, 625}";
}
);
background = {
paths = (
{
closed = 1;
nodes = (
"205 0 LINE",
"316 433 LINE",
"325 433 LINE",
"436 0 LINE",
"636 0 LINE",
"476 625 LINE",
"165 625 LINE",
"5 0 LINE"
);
},
{
closed = 1;
nodes = (
"519 99 LINE",
"519 244 LINE",
"122 244 LINE",
"122 99 LINE"
);
}
);
};
layerId = "62EAF1BF-1B79-4549-96F9-774E14A065EF";
paths = (
{
closed = 1;
nodes = (
"205 0 LINE",
"316 433 LINE",
"325 433 LINE",
"436 0 LINE",
"636 0 LINE",
"476 625 LINE",
"165 625 LINE",
"5 0 LINE"
);
},
{
closed = 1;
nodes = (
"519 99 LINE",
"519 244 LINE",
"122 244 LINE",
"122 99 LINE"
);
}
);
width = 641;
},
{
anchors = (
{
name = bottom;
position = "{276, 0}";
},
{
name = ogonek;
position = "{536, 0}";
},
{
name = top;
position = "{276, 625}";
}
);
background = {
paths = (
{
closed = 1;
nodes = (
"115 0 LINE",
"271 533 LINE",
"280 533 LINE",
"436 0 LINE",
"536 0 LINE",
"351 625 LINE",
"200 625 LINE",
"15 0 LINE"
);
},
{
closed = 1;
nodes = (
"446 140 LINE",
"446 219 LINE",
"107 219 LINE",
"107 140 LINE"
);
}
);
};
hints = (
{
horizontal = 1;
origin = "{1, 3}";
target = "{1, 2}";
type = Stem;
},
{
horizontal = 1;
origin = "{0, 1}";
target = "{0, 6}";
type = Stem;
},
{
horizontal = 1;
origin = "{0, 7}";
target = up;
type = BottomGhost;
},
{
horizontal = 1;
origin = "{0, 6}";
target = down;
type = TopGhost;
}
);
layerId = "CF2D4400-0F4D-4A72-A30C-ABA3B96311EF";
paths = (
{
closed = 1;
nodes = (
"115 0 LINE",
"271 533 LINE",
"280 533 LINE",
"436 0 LINE",
"536 0 LINE",
"351 625 LINE",
"200 625 LINE",
"15 0 LINE"
);
},
{
closed = 1;
nodes = (
"446 140 LINE",
"446 219 LINE",
"107 219 LINE",
"107 140 LINE"
);
}
);
width = 551;
}
);
leftKerningGroup = A;
rightKerningGroup = A;
unicode = 0041;
},
{
glyphname = AE;
layers = (
{
anchors = (
{
name = bottom;
position = "{419, 0}";
},
{
name = top;
position = "{419, 625}";
}
);
layerId = "62EAF1BF-1B79-4549-96F9-774E14A065EF";
paths = (
{
closed = 1;
nodes = (
"216 0 LINE",
"239 99 LINE",
"404 99 LINE",
"427 0 LINE",
"808 0 LINE",
"808 160 LINE",
"596 160 LINE",
"577 236 LINE",
"717 236 LINE",
"717 381 LINE",
"539 381 LINE",
"517 465 LINE",
"732 465 LINE",
"757 625 LINE",
"167 625 LINE",
"5 0 LINE"
);
},
{
closed = 1;
nodes = (
"316 433 LINE",
"327 433 LINE",
"367 258 LINE",
"275 258 LINE"
);
}
);
width = 838;
},
{
anchors = (
{
name = bottom;
position = "{379, 0}";
},
{
name = top;
position = "{379, 625}";
}
);
background = {
paths = (
{
closed = 1;
nodes = (
"361 535 LINE",
"643 535 LINE",
"658 625 LINE",
"261 625 LINE"
);
},
{
closed = 1;
nodes = (
"439 0 LINE",
"708 0 LINE",
"708 90 LINE",
"503 90 LINE"
);
},
{
closed = 1;
nodes = (
"410 266 LINE",
"616 266 LINE",
"616 351 LINE",
"410 351 LINE"
);
},
{
closed = 1;
nodes = (
"422 0 LINE",
"528 0 LINE",
"366 625 LINE",
"177 625 LINE",
"15 0 LINE",
"121 0 LINE",
"251 533 LINE",
"292 533 LINE"
);
},
{
closed = 1;
nodes = (
"103 137 LINE",
"442 137 LINE",
"442 227 LINE",
"103 227 LINE"
);
}
);
};
hints = (
{
horizontal = 1;
origin = "{0, 15}";
target = "{0, 6}";
type = Stem;
},
{
horizontal = 1;
origin = "{0, 1}";
target = "{1, 3}";
type = Stem;
},
{
horizontal = 1;
origin = "{0, 7}";
target = "{0, 10}";
type = Stem;
},
{
horizontal = 1;
origin = "{0, 14}";
target = "{0, 11}";
type = Stem;
},
{
horizontal = 1;
origin = "{0, 15}";
target = up;
type = BottomGhost;
},
{
horizontal = 1;
origin = "{0, 14}";
target = down;
type = TopGhost;
}
);
layerId = "CF2D4400-0F4D-4A72-A30C-ABA3B96311EF";
paths = (
{
closed = 1;
nodes = (
"121 0 LINE",
"154 137 LINE",
"388 137 LINE",
"422 0 LINE",
"708 0 LINE",
"708 90 LINE",
"504 90 LINE",
"459 266 LINE",
"616 266 LINE",
"616 351 LINE",
"437 351 LINE",
"389 535 LINE",
"643 535 LINE",
"658 625 LINE",
"177 625 LINE",
"15 0 LINE"
);
},
{
closed = 1;
nodes = (
"251 533 LINE",
"292 533 LINE",
"366 227 LINE",
"176 227 LINE"
);
}
);
width = 758;
}
);
leftKerningGroup = A;
leftMetricsKey = A;
rightKerningGroup = E;
rightMetricsKey = E;
unicode = 00C6;
},
{
glyphname = B;
layers = (
{
layerId = "62EAF1BF-1B79-4549-96F9-774E14A065EF";
paths = (
{
closed = 1;
nodes = (
"50 0 LINE",
"369 0 LINE SMOOTH",
"499 0 OFFCURVE",
"572 63 OFFCURVE",
"572 176 CURVE SMOOTH",
"572 241 OFFCURVE",
"528 301 OFFCURVE",
"471 314 CURVE",
"471 320 LINE",
"513 344 OFFCURVE",
"541 401 OFFCURVE",
"541 460 CURVE SMOOTH",
"541 576 OFFCURVE",
"480 625 OFFCURVE",
"334 625 CURVE SMOOTH",
"50 625 LINE"
);
},
{
closed = 1;
nodes = (
"250 561 LINE",
"169 480 LINE",
"299 480 LINE SMOOTH",
"333 480 OFFCURVE",
"341 471 OFFCURVE",
"341 434 CURVE SMOOTH",
"341 397 OFFCURVE",
"332 387 OFFCURVE",
"299 387 CURVE SMOOTH",
"234 387 LINE",
"234 247 LINE",
"323 247 LINE SMOOTH",
"356 247 OFFCURVE",
"366 235 OFFCURVE",
"366 196 CURVE SMOOTH",
"366 158 OFFCURVE",
"355 145 OFFCURVE",
"322 145 CURVE SMOOTH",
"169 145 LINE",
"250 64 LINE"
);
}
);
width = 592;
},
{
background = {
paths = (
{
closed = 1;
nodes = (
"80 0 LINE",
"399 0 LINE SMOOTH",
"516 0 OFFCURVE",
"562 73 OFFCURVE",
"562 166 CURVE SMOOTH",
"562 248 OFFCURVE",
"529 316 OFFCURVE",
"441 331 CURVE",
"441 337 LINE",
"494 351 OFFCURVE",
"531 398 OFFCURVE",
"531 480 CURVE SMOOTH",
"531 578 OFFCURVE",
"486 625 OFFCURVE",
"364 625 CURVE SMOOTH",
"80 625 LINE"
);
},
{
closed = 1;
nodes = (
"353 264 LINE SMOOTH",
"386 264 OFFCURVE",
"399 233 OFFCURVE",
"399 193 CURVE SMOOTH",
"399 153 OFFCURVE",
"385 122 OFFCURVE",
"352 122 CURVE SMOOTH",
"240 122 LINE",
"240 264 LINE"
);
},
{
closed = 1;
nodes = (
"338 508 LINE SMOOTH",
"368 508 OFFCURVE",
"380 480 OFFCURVE",
"380 444 CURVE SMOOTH",
"380 408 OFFCURVE",
"367 380 OFFCURVE",
"337 380 CURVE SMOOTH",
"240 380 LINE",
"240 508 LINE"
);
},
{
closed = 1;
nodes = (
"80 0 LINE",
"399 0 LINE SMOOTH",
"516 0 OFFCURVE",
"562 73 OFFCURVE",
"562 166 CURVE SMOOTH",
"562 248 OFFCURVE",
"529 316 OFFCURVE",
"441 331 CURVE",
"441 337 LINE",
"494 351 OFFCURVE",
"531 398 OFFCURVE",
"531 480 CURVE SMOOTH",
"531 578 OFFCURVE",
"486 625 OFFCURVE",
"364 625 CURVE SMOOTH",
"80 625 LINE"
);
},
{
closed = 1;
nodes = (
"353 264 LINE SMOOTH",
"386 264 OFFCURVE",
"399 233 OFFCURVE",
"399 193 CURVE SMOOTH",
"399 153 OFFCURVE",
"385 122 OFFCURVE",
"352 122 CURVE SMOOTH",
"240 122 LINE",
"240 264 LINE"
);
},
{
closed = 1;
nodes = (
"338 508 LINE SMOOTH",
"368 508 OFFCURVE",
"380 480 OFFCURVE",
"380 444 CURVE SMOOTH",
"380 408 OFFCURVE",
"367 380 OFFCURVE",
"337 380 CURVE SMOOTH",
"240 380 LINE",
"240 508 LINE"
);
}
);
};
hints = (
{
horizontal = 1;
origin = "{0, 0}";
target = "{1, 18}";
type = Stem;
},
{
horizontal = 1;
origin = "{1, 10}";
target = "{1, 9}";
type = Stem;
},
{
horizontal = 1;
origin = "{0, 15}";
target = "{1, 1}";
type = Stem;
},
{
origin = "{0, 0}";
target = "{1, 19}";
type = Stem;
},
{
origin = "{1, 14}";
target = "{0, 4}";
type = Stem;
},
{
origin = "{1, 5}";
target = "{0, 11}";
type = Stem;
},
{
horizontal = 1;
origin = "{0, 0}";
target = up;
type = BottomGhost;
},
{
horizontal = 1;
origin = "{0, 15}";
target = down;
type = TopGhost;
}
);
layerId = "CF2D4400-0F4D-4A72-A30C-ABA3B96311EF";
paths = (
{
closed = 1;
nodes = (
"90 0 LINE",
"362 0 LINE SMOOTH",
"472 0 OFFCURVE",
"532 62 OFFCURVE",
"532 176 CURVE SMOOTH",
"532 245 OFFCURVE",
"499 296 OFFCURVE",
"440 316 CURVE",
"440 322 LINE",
"483 352 OFFCURVE",
"501 396 OFFCURVE",
"501 470 CURVE SMOOTH",
"501 576 OFFCURVE",
"447 625 OFFCURVE",
"330 625 CURVE SMOOTH",
"90 625 LINE"
);
},
{
closed = 1;
nodes = (
"190 597 LINE",
"145 552 LINE",
"322 552 LINE SMOOTH",
"382 552 OFFCURVE",
"401 527 OFFCURVE",
"401 450 CURVE SMOOTH",
"401 375 OFFCURVE",
"381 350 OFFCURVE",
"321 350 CURVE SMOOTH",
"174 350 LINE",
"174 280 LINE",
"349 280 LINE SMOOTH",
"409 280 OFFCURVE",
"432 253 OFFCURVE",
"432 182 CURVE SMOOTH",
"432 104 OFFCURVE",
"408 73 OFFCURVE",
"348 73 CURVE SMOOTH",
"145 73 LINE",
"190 28 LINE"
);
}
);
width = 582;
}
);
leftKerningGroup = H;
leftMetricsKey = H;
rightKerningGroup = B;
unicode = 0042;
},
{
glyphname = C;
layers = (
{
anchors = (
{
name = bottom;
position = "{285, 0}";
},
{
name = top;
position = "{295, 625}";
}
);
background = {
paths = (
{
closed = 0;
nodes = (
"475 446 LINE",
"490 614 LINE"
);
}
);
};
layerId = "62EAF1BF-1B79-4549-96F9-774E14A065EF";
paths = (
{
closed = 1;
nodes = (
"475 179 LINE",
"436 164 OFFCURVE",
"378 155 OFFCURVE",
"324 155 CURVE SMOOTH",
"299 155 OFFCURVE",
"273 158 OFFCURVE",
"245 163 CURVE",
"245 405 LINE SMOOTH",
"245 459 OFFCURVE",
"267 475 OFFCURVE",
"339 475 CURVE SMOOTH",
"371 475 OFFCURVE",
"426 467 OFFCURVE",
"465 456 CURVE",
"490 614 LINE",
"460 628 OFFCURVE",
"381 640 OFFCURVE",
"324 640 CURVE SMOOTH",
"101 640 OFFCURVE",
"30 561 OFFCURVE",
"30 312 CURVE SMOOTH",
"30 64 OFFCURVE",
"96 -15 OFFCURVE",
"304 -15 CURVE SMOOTH",
"384 -15 OFFCURVE",
"439 -7 OFFCURVE",
"490 11 CURVE"
);
}
);
width = 510;
},
{
anchors = (
{
name = bottom;
position = "{265, 0}";
},
{
name = top;
position = "{285, 625}";
}
);
background = {
paths = (
{
closed = 0;
nodes = (
"441 537 LINE",
"451 619 LINE"
);
}
);
};
hints = (
{
horizontal = 1;
origin = "{0, 23}";
target = "{0, 3}";
type = Stem;
},
{
horizontal = 1;
origin = "{0, 17}";
target = "{0, 10}";
type = Stem;
},
{
origin = "{0, 20}";
target = "{0, 6}";
type = Stem;
}
);
layerId = "CF2D4400-0F4D-4A72-A30C-ABA3B96311EF";
paths = (
{
closed = 1;
nodes = (
"454 93 LINE",
"403 78 OFFCURVE",
"347 68 OFFCURVE",
"291 68 CURVE SMOOTH",
"248 68 OFFCURVE",
"206 73 OFFCURVE",
"172 83 CURVE",
"172 479 LINE SMOOTH",
"172 544 OFFCURVE",
"205 555 OFFCURVE",
"282 555 CURVE SMOOTH",
"316 555 OFFCURVE",
"388 549 OFFCURVE",
"438 537 CURVE",
"451 619 LINE",
"414 632 OFFCURVE",
"346 640 OFFCURVE",
"304 640 CURVE SMOOTH",
"110 640 OFFCURVE",
"65 572 OFFCURVE",
"65 312 CURVE SMOOTH",
"65 55 OFFCURVE",
"108 -15 OFFCURVE",
"294 -15 CURVE SMOOTH",
"365 -15 OFFCURVE",
"415 -8 OFFCURVE",
"464 11 CURVE"
);
}
);
width = 489;
}
);
leftKerningGroup = O;
leftMetricsKey = O;
rightKerningGroup = C;
unicode = 0043;
},
{
glyphname = D;
layers = (
{
anchors = (
{
name = bottom;
position = "{328, 0}";
},
{
name = center;
position = "{170, 313}";
},
{
name = top;
position = "{328, 625}";
}
);
layerId = "62EAF1BF-1B79-4549-96F9-774E14A065EF";
paths = (
{
closed = 1;
nodes = (
"50 0 LINE",
"329 0 LINE SMOOTH",
"560 0 OFFCURVE",
"625 68 OFFCURVE",
"625 312 CURVE SMOOTH",
"625 556 OFFCURVE",
"560 625 OFFCURVE",
"329 625 CURVE SMOOTH",
"50 625 LINE"
);
},
{
closed = 1;
nodes = (
"332 469 LINE SMOOTH",
"391 469 OFFCURVE",
"410 454 OFFCURVE",
"410 406 CURVE SMOOTH",
"410 219 LINE SMOOTH",
"410 171 OFFCURVE",
"391 156 OFFCURVE",
"332 156 CURVE SMOOTH",
"250 156 LINE",
"250 469 LINE"
);
}
);
width = 655;
},
{
anchors = (
{
name = bottom;
position = "{312, 0}";
},
{
name = center;
position = "{160, 313}";
},
{
name = top;
position = "{312, 625}";
}
);
background = {
paths = (
{
closed = 1;
nodes = (
"40 0 LINE",
"291 0 LINE SMOOTH",
"514 0 OFFCURVE",
"575 96 OFFCURVE",
"575 312 CURVE SMOOTH",
"575 529 OFFCURVE",
"514 625 OFFCURVE",
"291 625 CURVE SMOOTH",
"40 625 LINE"
);
},
{
closed = 1;
nodes = (
"323 495 LINE SMOOTH",
"369 495 OFFCURVE",
"401 491 OFFCURVE",
"401 442 CURVE SMOOTH",
"401 183 LINE SMOOTH",
"401 134 OFFCURVE",
"369 130 OFFCURVE",
"323 130 CURVE SMOOTH",
"200 130 LINE",
"200 495 LINE"
);
},
{
closed = 1;
nodes = (
"50 53 OFFCURVE",
"98 -15 OFFCURVE",
"290 -15 CURVE SMOOTH",
"482 -15 OFFCURVE",
"531 53 OFFCURVE",
"531 312 CURVE SMOOTH",
"531 572 OFFCURVE",
"482 640 OFFCURVE",
"290 640 CURVE SMOOTH",
"98 640 OFFCURVE",
"50 572 OFFCURVE",
"50 312 CURVE SMOOTH"
);
},
{
closed = 1;
nodes = (
"160 486 LINE SMOOTH",
"160 535 OFFCURVE",
"191 539 OFFCURVE",
"237 539 CURVE SMOOTH",
"421 539 LINE",
"421 139 LINE SMOOTH",
"421 90 OFFCURVE",
"389 86 OFFCURVE",
"343 86 CURVE SMOOTH",
"160 86 LINE"
);
}
);
};
hints = (
{
horizontal = 1;
origin = "{0, 0}";
target = "{1, 8}";
type = Stem;
},
{
horizontal = 1;
origin = "{0, 8}";
target = "{1, 9}";
type = Stem;
},
{
origin = "{0, 0}";
target = "{1, 8}";
type = Stem;
},
{
origin = "{1, 4}";
target = "{0, 4}";
type = Stem;
},
{
horizontal = 1;
origin = "{0, 0}";
target = up;
type = BottomGhost;
},
{
horizontal = 1;
origin = "{0, 8}";
target = down;
type = TopGhost;
}
);
layerId = "CF2D4400-0F4D-4A72-A30C-ABA3B96311EF";
paths = (
{
closed = 1;
nodes = (
"90 0 LINE",
"314 0 LINE SMOOTH",
"517 0 OFFCURVE",
"559 53 OFFCURVE",
"559 312 CURVE SMOOTH",
"559 572 OFFCURVE",
"517 625 OFFCURVE",
"314 625 CURVE SMOOTH",
"90 625 LINE"
);
},
{
closed = 1;
nodes = (
"373 542 LINE SMOOTH",
"432 542 OFFCURVE",
"451 524 OFFCURVE",
"451 469 CURVE SMOOTH",
"451 156 LINE SMOOTH",
"451 101 OFFCURVE",
"432 83 OFFCURVE",
"373 83 CURVE SMOOTH",
"190 83 LINE",
"190 542 LINE"
);
}
);
width = 624;
}
);
leftKerningGroup = H;
leftMetricsKey = H;
rightKerningGroup = O;
rightMetricsKey = O;
unicode = 0044;
},
{
glyphname = Eth;
layers = (
{
components = (
{
name = D;
},
{
name = strokeshortcomb;
transform = "{1, 0, 0, 1, -15, 38}";
}
);
layerId = "62EAF1BF-1B79-4549-96F9-774E14A065EF";
width = 655;
},
{
background = {
paths = (
{
closed = 1;
nodes = (
"10 366 LINE SMOOTH",
"-13 366 OFFCURVE",
"-28 362 OFFCURVE",
"-28 341 CURVE SMOOTH",
"-28 255 LINE",
"228 255 LINE SMOOTH",
"257 255 OFFCURVE",
"278 257 OFFCURVE",
"278 281 CURVE SMOOTH",
"278 366 LINE"
);
}
);
};
components = (
{
name = D;
},
{
name = strokeshortcomb;
transform = "{1, 0, 0, 1, -2, 37}";
}
);
layerId = "CF2D4400-0F4D-4A72-A30C-ABA3B96311EF";
width = 624;
}
);
leftKerningGroup = H;
rightKerningGroup = O;
unicode = 00D0;
},
{
glyphname = E;
layers = (
{
anchors = (
{
name = bottom;
position = "{265, 0}";
},
{
name = ogonek;
position = "{485, 0}";
},
{
name = top;
position = "{275, 625}";
},
{
name = topleft;
position = "{20, 625}";
}
);
layerId = "62EAF1BF-1B79-4549-96F9-774E14A065EF";
paths = (
{
closed = 1;
nodes = (
"450 240 LINE",
"450 385 LINE",
"250 385 LINE",
"250 460 LINE",
"465 460 LINE",
"490 625 LINE",
"50 625 LINE",
"50 0 LINE",
"485 0 LINE",
"485 165 LINE",
"250 165 LINE",
"250 240 LINE"
);
}
);
width = 520;
},
{
anchors = (
{
name = bottom;
position = "{270, 0}";
},
{
name = ogonek;
position = "{465, 0}";
},
{
name = top;
position = "{281, 625}";
},
{
name = topleft;
position = "{7, 625}";
}
);
background = {
paths = (
{
closed = 1;
nodes = (
"413 246 LINE",
"413 371 LINE",
"213 371 LINE",
"213 495 LINE",
"433 495 LINE",
"453 625 LINE",
"53 625 LINE",
"53 0 LINE",
"458 0 LINE",
"458 130 LINE",
"213 130 LINE",
"213 246 LINE"
);
},
{
closed = 1;
nodes = (
"413 246 LINE",
"413 371 LINE",
"213 371 LINE",
"213 495 LINE",
"433 495 LINE",
"453 625 LINE",
"53 625 LINE",
"53 0 LINE",
"458 0 LINE",
"458 130 LINE",
"213 130 LINE",
"213 246 LINE"
);
}
);
};
hints = (
{
horizontal = 1;
origin = "{0, 7}";
target = "{0, 10}";
type = Stem;
},
{
horizontal = 1;
origin = "{0, 11}";
target = "{0, 2}";
type = Stem;
},
{
horizontal = 1;
origin = "{0, 6}";
target = "{0, 3}";
type = Stem;
},
{
origin = "{0, 7}";
target = "{0, 10}";
type = Stem;
},
{
horizontal = 1;
origin = "{0, 7}";
target = up;
type = BottomGhost;
},
{
horizontal = 1;
origin = "{0, 6}";
target = down;
type = TopGhost;
}
);
layerId = "CF2D4400-0F4D-4A72-A30C-ABA3B96311EF";
paths = (
{
closed = 1;
nodes = (
"427 273 LINE",
"427 352 LINE",
"190 352 LINE",
"190 542 LINE",
"450 542 LINE",
"462 625 LINE",
"90 625 LINE",
"90 0 LINE",
"465 0 LINE",
"465 83 LINE",
"190 83 LINE",
"190 273 LINE"
);
}
);
width = 515;
}
);
leftKerningGroup = H;
leftMetricsKey = H;
rightKerningGroup = E;
unicode = 0045;
},
{
glyphname = F;
layers = (
{
layerId = "62EAF1BF-1B79-4549-96F9-774E14A065EF";
paths = (
{
closed = 1;
nodes = (
"420 220 LINE",
"420 365 LINE",
"250 365 LINE",
"250 460 LINE",
"435 460 LINE",
"460 625 LINE",
"50 625 LINE",
"50 0 LINE",
"250 0 LINE",
"250 220 LINE"
);
}
);
width = 470;
},
{
background = {
paths = (
{
closed = 1;
nodes = (
"380 252 LINE",
"380 361 LINE",
"210 361 LINE",
"210 495 LINE",
"400 495 LINE",
"420 625 LINE",
"50 625 LINE",
"50 0 LINE",
"210 0 LINE",
"210 252 LINE"
);
}
);
};
hints = (
{
horizontal = 1;
origin = "{0, 9}";
target = "{0, 2}";
type = Stem;
},
{
horizontal = 1;
origin = "{0, 3}";
target = "{0, 6}";
type = Stem;
},
{
origin = "{0, 7}";
target = "{0, 8}";
type = Stem;
},
{
horizontal = 1;
origin = "{0, 7}";
target = up;
type = BottomGhost;
},
{
horizontal = 1;
origin = "{0, 6}";
target = down;
type = TopGhost;
}
);
layerId = "CF2D4400-0F4D-4A72-A30C-ABA3B96311EF";
paths = (
{
closed = 1;
nodes = (
"390 260 LINE",
"390 339 LINE",
"190 339 LINE",
"190 542 LINE",
"419 542 LINE",
"430 625 LINE",
"90 625 LINE",
"90 0 LINE",
"190 0 LINE",
"190 260 LINE"
);
}
);
width = 450;
}
);
leftKerningGroup = H;
leftMetricsKey = H;
rightKerningGroup = F;
unicode = 0046;
},
{
glyphname = G;
layers = (
{
anchors = (
{
name = bottom;
position = "{295, 0}";
},
{
name = top;
position = "{315, 625}";
}
);
background = {
paths = (
{
closed = 1;
nodes = (
"380 184 LINE SMOOTH",
"380 145 OFFCURVE",
"351 142 OFFCURVE",
"311 142 CURVE SMOOTH",
"245 142 LINE",
"245 425 LINE SMOOTH",
"245 467 OFFCURVE",
"282 475 OFFCURVE",
"361 475 CURVE SMOOTH",
"396 475 OFFCURVE",
"458 470 OFFCURVE",
"510 461 CURVE",
"540 614 LINE",
"500 627 OFFCURVE",
"398 640 OFFCURVE",
"347 640 CURVE SMOOTH",
"88 640 OFFCURVE",
"30 529 OFFCURVE",
"30 312 CURVE SMOOTH",
"30 96 OFFCURVE",
"90 -15 OFFCURVE",
"324 -15 CURVE SMOOTH",
"394 -15 OFFCURVE",
"488 -1 OFFCURVE",
"570 30 CURVE",
"570 364 LINE",
"329 364 LINE",
"329 211 LINE",
"380 211 LINE"
);
}
);
};
guideLines = (
{
angle = 101.768;
position = "{535, 494}";
}
);
layerId = "62EAF1BF-1B79-4549-96F9-774E14A065EF";
paths = (
{
closed = 1;
nodes = (
"406 -15 OFFCURVE",
"482 -2 OFFCURVE",
"550 30 CURVE",
"535 146 LINE",
"245 146 LINE",
"245 405 LINE SMOOTH",
"245 459 OFFCURVE",
"267 475 OFFCURVE",
"339 475 CURVE SMOOTH",
"380 475 OFFCURVE",
"447 467 OFFCURVE",
"495 456 CURVE",
"520 614 LINE",
"485 628 OFFCURVE",
"392 640 OFFCURVE",
"324 640 CURVE SMOOTH",
"96 640 OFFCURVE",
"30 566 OFFCURVE",
"30 312 CURVE SMOOTH",
"30 58 OFFCURVE",
"89 -15 OFFCURVE",
"294 -15 CURVE SMOOTH"
);
},
{
closed = 1;
nodes = (
"550 30 LINE",
"550 374 LINE",
"309 374 LINE",
"309 229 LINE",
"360 229 LINE",
"360 30 LINE"
);
}
);
width = 575;
},
{
anchors = (
{
name = bottom;
position = "{293, 0}";
},
{
name = top;
position = "{313, 625}";
}
);
background = {
paths = (
{
closed = 1;
nodes = (
"405 142 LINE SMOOTH",
"405 86 OFFCURVE",
"366 82 OFFCURVE",
"312 82 CURVE SMOOTH",
"175 82 LINE",
"175 489 LINE SMOOTH",
"175 537 OFFCURVE",
"217 545 OFFCURVE",
"296 545 CURVE SMOOTH",
"331 545 OFFCURVE",
"398 540 OFFCURVE",
"450 531 CURVE",
"465 619 LINE",
"428 630 OFFCURVE",
"356 640 OFFCURVE",
"316 640 CURVE SMOOTH",
"111 640 OFFCURVE",
"65 572 OFFCURVE",
"65 312 CURVE SMOOTH",
"65 53 OFFCURVE",
"103 -15 OFFCURVE",
"287 -15 CURVE SMOOTH",
"346 -15 OFFCURVE",
"426 -1 OFFCURVE",
"495 30 CURVE",
"495 334 LINE",
"334 334 LINE",
"334 244 LINE",
"405 244 LINE"
);
}
);
};
hints = (
{
horizontal = 1;
origin = "{0, 21}";
target = "{0, 4}";
type = Stem;
},
{
horizontal = 1;
origin = "{1, 3}";
target = "{1, 2}";
type = Stem;
},
{
horizontal = 1;
origin = "{0, 15}";
target = "{0, 8}";
type = Stem;
},
{
origin = "{0, 18}";
target = "{0, 4}";
type = Stem;
},
{
origin = "{1, 5}";
target = "{0, 2}";
type = Stem;
}
);
layerId = "CF2D4400-0F4D-4A72-A30C-ABA3B96311EF";
paths = (
{
closed = 1;
nodes = (
"373 -15 OFFCURVE",
"439 -6 OFFCURVE",
"505 20 CURVE",
"492 65 LINE",
"171 65 LINE",
"171 479 LINE SMOOTH",
"171 544 OFFCURVE",
"205 555 OFFCURVE",
"285 555 CURVE SMOOTH",
"325 555 OFFCURVE",
"410 549 OFFCURVE",
"468 537 CURVE",
"481 619 LINE",
"438 632 OFFCURVE",
"359 640 OFFCURVE",
"310 640 CURVE SMOOTH",
"111 640 OFFCURVE",
"65 572 OFFCURVE",
"65 312 CURVE SMOOTH",
"65 37 OFFCURVE",
"104 -15 OFFCURVE",
"278 -15 CURVE SMOOTH"
);
},
{
closed = 1;
nodes = (
"505 20 LINE",
"505 344 LINE",
"321 344 LINE",
"321 265 LINE",
"416 265 LINE",
"416 30 LINE"
);
}
);
width = 570;
}
);
leftKerningGroup = O;
leftMetricsKey = O;
rightKerningGroup = G;
rightMetricsKey = "=H-25";
unicode = 0047;
},
{
glyphname = H;
layers = (
{
anchors = (
{
name = bottom;
position = "{325, 0}";
},
{
name = center;
position = "{325, 503}";
},
{
name = top;
position = "{325, 625}";
},
{
name = topleft;
position = "{20, 625}";
}
);
layerId = "62EAF1BF-1B79-4549-96F9-774E14A065EF";
paths = (
{
closed = 1;
nodes = (
"250 625 LINE",
"50 625 LINE",
"50 0 LINE",
"250 0 LINE"
);
},
{
closed = 1;
nodes = (
"400 0 LINE",
"600 0 LINE",
"600 625 LINE",
"400 625 LINE"
);
},
{
closed = 1;
nodes = (
"416 385 LINE",
"234 385 LINE",
"234 240 LINE",
"416 240 LINE"
);
}
);
width = 650;
},
{
anchors = (
{
name = bottom;
position = "{320, 0}";
},
{
name = center;
position = "{320, 483}";
},
{
name = top;
position = "{320, 625}";
},
{
name = topleft;
position = "{20, 625}";
}
);
background = {
paths = (
{
closed = 1;
nodes = (
"425 0 LINE",
"585 0 LINE",
"585 625 LINE",
"425 625 LINE",
"425 374 LINE",
"235 374 LINE",
"235 625 LINE",
"75 625 LINE",
"75 0 LINE",
"235 0 LINE",
"235 251 LINE",
"425 251 LINE"
);
}
);
};
hints = (
{
horizontal = 1;
origin = "{2, 2}";
target = "{2, 1}";
type = Stem;
},
{
origin = "{0, 2}";
target = "{0, 3}";
type = Stem;
},
{
origin = "{1, 0}";
target = "{1, 1}";
type = Stem;
},
{
horizontal = 1;
origin = "{0, 1}";
target = down;
type = TopGhost;
},
{
horizontal = 1;
origin = "{0, 2}";
target = up;
type = BottomGhost;
}
);
layerId = "CF2D4400-0F4D-4A72-A30C-ABA3B96311EF";
paths = (
{
closed = 1;
nodes = (
"190 625 LINE",
"90 625 LINE",
"90 0 LINE",
"190 0 LINE"
);
},
{
closed = 1;
nodes = (
"450 0 LINE",
"550 0 LINE",
"550 625 LINE",
"450 625 LINE"
);
},
{
closed = 1;
nodes = (
"466 349 LINE",
"174 349 LINE",
"174 270 LINE",
"466 270 LINE"
);
}
);
width = 640;
}
);
leftKerningGroup = H;
rightKerningGroup = H;
unicode = 0048;
},
{
glyphname = I;
layers = (
{
anchors = (
{
name = bottom;
position = "{150, 0}";
},
{
name = ogonek;
position = "{250, 0}";
},
{
name = top;
position = "{150, 625}";
},
{
name = topleft;
position = "{20, 625}";
}
);
layerId = "62EAF1BF-1B79-4549-96F9-774E14A065EF";
paths = (
{
closed = 1;
nodes = (
"50 0 LINE",
"250 0 LINE",
"250 625 LINE",
"50 625 LINE"
);
}
);
width = 300;
},
{
anchors = (
{
name = bottom;
position = "{140, 0}";
},
{
name = ogonek;
position = "{190, 0}";
},
{
name = top;
position = "{140, 625}";
},
{
name = topleft;
position = "{20, 625}";
}
);
background = {
paths = (
{
closed = 1;
nodes = (
"60 0 LINE",
"220 0 LINE",
"220 625 LINE",
"60 625 LINE"
);
}
);
};
hints = (
{
origin = "{0, 0}";
target = "{0, 1}";
type = Stem;
},
{
horizontal = 1;
origin = "{0, 0}";
target = up;
type = BottomGhost;
},
{
horizontal = 1;
origin = "{0, 3}";
target = down;
type = TopGhost;
}
);
layerId = "CF2D4400-0F4D-4A72-A30C-ABA3B96311EF";
paths = (
{
closed = 1;
nodes = (
"90 0 LINE",
"190 0 LINE",
"190 625 LINE",
"90 625 LINE"
);
}
);
width = 280;
}
);
leftKerningGroup = H;
leftMetricsKey = H;
rightKerningGroup = H;
rightMetricsKey = H;
unicode = 0049;
},
{
glyphname = J;
layers = (
{
anchors = (
{
name = bottom;
position = "{196, 0}";
},
{
name = top;
position = "{196, 625}";
}
);
layerId = "62EAF1BF-1B79-4549-96F9-774E14A065EF";
paths = (
{
closed = 1;
nodes = (
"30 0 LINE",
"186 0 LINE SMOOTH",
"286 0 OFFCURVE",
"341 57 OFFCURVE",
"341 165 CURVE SMOOTH",
"341 625 LINE",
"41 625 LINE",
"41 460 LINE",
"141 460 LINE",
"141 195 LINE SMOOTH",
"141 167 OFFCURVE",
"120 165 OFFCURVE",
"93 165 CURVE SMOOTH",
"10 165 LINE"
);
}
);
width = 391;
},
{
anchors = (
{
name = bottom;
position = "{176, 0}";
},
{
name = top;
position = "{176, 625}";
}
);
background = {
paths = (
{
closed = 1;
nodes = (
"-10 0 LINE",
"106 0 LINE SMOOTH",
"206 0 OFFCURVE",
"261 57 OFFCURVE",
"261 165 CURVE SMOOTH",
"261 625 LINE",
"18 625 LINE",
"18 495 LINE",
"101 495 LINE",
"101 160 LINE SMOOTH",
"101 132 OFFCURVE",
"80 130 OFFCURVE",
"53 130 CURVE SMOOTH",
"-30 130 LINE"
);
}
);
};
hints = (
{
horizontal = 1;
origin = "{0, 0}";
target = "{0, 13}";
type = Stem;
},
{
horizontal = 1;
origin = "{0, 7}";
target = "{0, 6}";
type = Stem;
},
{
origin = "{0, 9}";
target = "{0, 4}";
type = Stem;
},
{
horizontal = 1;
origin = "{0, 0}";
target = up;
type = BottomGhost;
},
{
horizontal = 1;
origin = "{0, 6}";
target = down;
type = TopGhost;
}
);
layerId = "CF2D4400-0F4D-4A72-A30C-ABA3B96311EF";
paths = (
{
closed = 1;
nodes = (
"32 0 LINE",
"106 0 LINE SMOOTH",
"206 0 OFFCURVE",
"261 27 OFFCURVE",
"261 135 CURVE SMOOTH",
"261 625 LINE",
"61 625 LINE",
"61 542 LINE",
"161 542 LINE",
"161 110 LINE SMOOTH",
"161 82 OFFCURVE",
"140 80 OFFCURVE",
"113 80 CURVE SMOOTH",
"20 80 LINE"
);
}
);
width = 351;
}
);
leftKerningGroup = J;
rightKerningGroup = J;
rightMetricsKey = H;
unicode = 004A;
},
{
glyphname = K;
layers = (
{
anchors = (
{
name = bottom;
position = "{319, 0}";
},
{
name = top;
position = "{319, 625}";
}
);
background = {
paths = (
{
closed = 0;
nodes = (
"449 349 LINE SMOOTH",
"613 0 LINE"
);
}
);
};
guideLines = (
{
angle = 25.339;
position = "{537, 161}";
showMeasurement = 1;
}
);
layerId = "62EAF1BF-1B79-4549-96F9-774E14A065EF";
paths = (
{
closed = 1;
nodes = (
"613 0 LINE",
"461 321 LINE",
"608 625 LINE",
"396 625 LINE",
"322 474 LINE SMOOTH",
"305 439 OFFCURVE",
"297 413 OFFCURVE",
"297 394 CURVE",
"234 394 LINE",
"234 248 LINE",
"297 248 LINE",
"297 229 OFFCURVE",
"305 203 OFFCURVE",
"322 168 CURVE SMOOTH",
"401 0 LINE"
);
},
{
closed = 1;
nodes = (
"250 0 LINE",
"250 625 LINE",
"50 625 LINE",
"50 0 LINE"
);
}
);
width = 618;
},
{
anchors = (
{
name = bottom;
position = "{297, 0}";
},
{
name = top;
position = "{297, 625}";
}
);
background = {
paths = (
{
closed = 0;
nodes = (
"427 0 LINE",
"272 321 LINE"
);
}
);
};
guideLines = (
{
angle = 25.774;
position = "{466, 161}";
showMeasurement = 1;
}
);
hints = (
{
horizontal = 1;
origin = "{0, 9}";
target = "{0, 8}";
type = Stem;
},
{
origin = "{1, 3}";
target = "{1, 0}";
type = Stem;
},
{
horizontal = 1;
origin = "{1, 3}";
target = up;
type = BottomGhost;
},
{
horizontal = 1;
origin = "{1, 2}";
target = down;
type = TopGhost;
}
);
layerId = "CF2D4400-0F4D-4A72-A30C-ABA3B96311EF";
paths = (
{
closed = 1;
nodes = (
"543 0 LINE",
"388 321 LINE",
"538 625 LINE",
"427 625 LINE",
"359 487 LINE SMOOTH",
"339 448 OFFCURVE",
"319 404 OFFCURVE",
"319 360 CURVE",
"174 360 LINE",
"174 282 LINE",
"319 282 LINE",
"319 238 OFFCURVE",
"340 194 OFFCURVE",
"359 155 CURVE SMOOTH",
"432 0 LINE"
);
},
{
closed = 1;
nodes = (
"190 0 LINE",
"190 625 LINE",
"90 625 LINE",
"90 0 LINE"
);
}
);
width = 553;
}
);
leftKerningGroup = H;
leftMetricsKey = H;
rightKerningGroup = K;
unicode = 004B;
},
{
glyphname = L;
layers = (
{
anchors = (
{
name = bottom;
position = "{258, 0}";
},
{
name = center;
position = "{150, 358}";
},
{
name = top;
position = "{150, 625}";
},
{
name = topright;
position = "{385, 625}";
}
);
layerId = "62EAF1BF-1B79-4549-96F9-774E14A065EF";
paths = (
{
closed = 1;
nodes = (
"440 0 LINE",
"440 165 LINE",
"250 165 LINE",
"250 625 LINE",
"50 625 LINE",
"50 0 LINE"
);
}
);
width = 445;
},
{
anchors = (
{
name = bottom;
position = "{250, 0}";
},
{
name = center;
position = "{140, 333}";
},
{
name = top;
position = "{140, 625}";
},
{
name = topright;
position = "{330, 625}";
}
);
background = {
paths = (
{
closed = 1;
nodes = (
"420 0 LINE",
"420 130 LINE",
"220 130 LINE",
"220 625 LINE",
"60 625 LINE",
"60 0 LINE"
);
}
);
};
hints = (
{
horizontal = 1;
origin = "{0, 5}";
target = "{0, 2}";
type = Stem;
},
{
horizontal = 1;
origin = "{0, 4}";
target = down;
type = TopGhost;
},
{
origin = "{0, 5}";
target = "{0, 2}";
type = Stem;
},
{
horizontal = 1;
origin = "{0, 5}";
target = up;
type = BottomGhost;
}
);
layerId = "CF2D4400-0F4D-4A72-A30C-ABA3B96311EF";
paths = (
{
closed = 1;
nodes = (
"420 0 LINE",
"420 83 LINE",
"190 83 LINE",
"190 625 LINE",
"90 625 LINE",
"90 0 LINE"
);
}
);
width = 430;
}
);
leftKerningGroup = H;
leftMetricsKey = H;
rightKerningGroup = L;
unicode = 004C;
},
{
glyphname = Lslash;
layers = (
{
components = (
{
name = L;
},
{
name = slashshortcomb;
transform = "{1, 0, 0, 1, -20, 18}";
}
);
layerId = "62EAF1BF-1B79-4549-96F9-774E14A065EF";
width = 445;
},
{
background = {
paths = (
{
closed = 1;
nodes = (
"267 329 LINE SMOOTH",
"291 337 OFFCURVE",
"309 343 OFFCURVE",
"309 359 CURVE SMOOTH",
"309 362 OFFCURVE",
"307 371 OFFCURVE",
"282 451 CURVE",
"-9 356 LINE SMOOTH",
"-33 348 OFFCURVE",
"-51 341 OFFCURVE",
"-51 328 CURVE SMOOTH",
"-51 324 OFFCURVE",
"-50 320 OFFCURVE",
"-22 234 CURVE"
);
},
{
closed = 1;
nodes = (
"267 329 LINE SMOOTH",
"291 337 OFFCURVE",
"309 343 OFFCURVE",
"309 359 CURVE SMOOTH",
"309 362 OFFCURVE",
"307 371 OFFCURVE",
"282 451 CURVE",
"-9 356 LINE SMOOTH",
"-33 348 OFFCURVE",
"-51 341 OFFCURVE",
"-51 328 CURVE SMOOTH",
"-51 324 OFFCURVE",
"-50 320 OFFCURVE",
"-22 234 CURVE"
);
}
);
};
components = (
{
name = L;
},
{
name = slashshortcomb;
transform = "{1, 0, 0, 1, 14, -7}";
}
);
layerId = "CF2D4400-0F4D-4A72-A30C-ABA3B96311EF";
width = 430;
}
);
leftKerningGroup = H;
rightKerningGroup = L;
unicode = 0141;
},
{
glyphname = M;
layers = (
{
background = {
paths = (
{
closed = 0;
nodes = (
"272 625 LINE",
"234 0 LINE"
);
}
);
};
layerId = "62EAF1BF-1B79-4549-96F9-774E14A065EF";
paths = (
{
closed = 1;
nodes = (
"234 0 LINE",
"250 303 LINE",
"256 303 LINE",
"329 0 LINE",
"482 0 LINE",
"554 303 LINE",
"561 303 LINE",
"577 0 LINE",
"776 0 LINE",
"738 625 LINE",
"487 625 LINE",
"409 307 LINE",
"402 307 LINE",
"324 625 LINE",
"73 625 LINE",
"35 0 LINE"
);
}
);
width = 811;
},
{
background = {
paths = (
{
closed = 0;
nodes = (
"216 625 LINE",
"174 0 LINE"
);
}
);
};
hints = (
{
horizontal = 1;
origin = "{0, 15}";
target = up;
type = BottomGhost;
},
{
horizontal = 1;
origin = "{0, 14}";
target = down;
type = TopGhost;
}
);
layerId = "CF2D4400-0F4D-4A72-A30C-ABA3B96311EF";
paths = (
{
closed = 1;
nodes = (
"174 0 LINE",
"206 493 LINE",
"212 493 LINE",
"357 0 LINE",
"438 0 LINE",
"583 493 LINE",
"589 493 LINE",
"621 0 LINE",
"720 0 LINE",
"678 625 LINE",
"540 625 LINE",
"401 157 LINE",
"394 157 LINE",
"255 625 LINE",
"117 625 LINE",
"75 0 LINE"
);
}
);
width = 795;
}
);
leftKerningGroup = M;
leftMetricsKey = "=H-15";
rightKerningGroup = M;
rightMetricsKey = "=H-15";
unicode = 004D;
},
{
glyphname = N;
layers = (
{
anchors = (
{
name = bottom;
position = "{338, 0}";
},
{
name = top;
position = "{338, 625}";
}
);
layerId = "62EAF1BF-1B79-4549-96F9-774E14A065EF";
paths = (
{
closed = 1;
nodes = (
"255 0 LINE",
"255 290 LINE",
"261 290 LINE",
"261 272 OFFCURVE",
"268 249 OFFCURVE",
"286 219 CURVE SMOOTH",
"422 0 LINE",
"620 0 LINE",
"620 625 LINE",
"420 625 LINE",
"420 335 LINE",
"414 335 LINE",
"414 353 OFFCURVE",
"407 376 OFFCURVE",
"389 406 CURVE SMOOTH",
"253 625 LINE",
"55 625 LINE",
"55 0 LINE"
);
}
);
width = 675;
},
{
anchors = (
{
name = bottom;
position = "{331, 0}";
},
{
name = top;
position = "{341, 625}";
}
);
background = {
paths = (
{
closed = 1;
nodes = (
"425 0 LINE",
"573 0 LINE",
"573 625 LINE",
"413 625 LINE",
"413 287 LINE",
"409 287 LINE",
"408 303 OFFCURVE",
"406 325 OFFCURVE",
"399 335 CURVE SMOOTH",
"206 625 LINE",
"58 625 LINE",
"58 0 LINE",
"218 0 LINE",
"218 338 LINE",
"222 338 LINE",
"223 322 OFFCURVE",
"225 300 OFFCURVE",
"232 290 CURVE SMOOTH"
);
},
{
closed = 1;
nodes = (
"425 0 LINE",
"573 0 LINE",
"573 625 LINE",
"413 625 LINE",
"413 287 LINE",
"409 287 LINE",
"408 303 OFFCURVE",
"406 325 OFFCURVE",
"399 335 CURVE SMOOTH",
"206 625 LINE",
"58 625 LINE",
"58 0 LINE",
"218 0 LINE",
"218 338 LINE",
"222 338 LINE",
"223 322 OFFCURVE",
"225 300 OFFCURVE",
"232 290 CURVE SMOOTH"
);
},
{
closed = 1;
nodes = (
"241 341 OFFCURVE",
"262 320 OFFCURVE",
"287 320 CURVE SMOOTH",
"312 320 OFFCURVE",
"333 341 OFFCURVE",
"333 366 CURVE SMOOTH",
"333 391 OFFCURVE",
"312 412 OFFCURVE",
"287 412 CURVE SMOOTH",
"262 412 OFFCURVE",
"241 391 OFFCURVE",
"241 366 CURVE SMOOTH"
);
}
);
};
hints = (
{
origin = "{0, 17}";
target = "{0, 0}";
type = Stem;
},
{
origin = "{0, 10}";
target = "{0, 7}";
type = Stem;
},
{
horizontal = 1;
origin = "{0, 17}";
target = up;
type = BottomGhost;
},
{
horizontal = 1;
origin = "{0, 16}";
target = down;
type = TopGhost;
}
);
layerId = "CF2D4400-0F4D-4A72-A30C-ABA3B96311EF";
paths = (
{
closed = 1;
nodes = (
"195 0 LINE",
"195 452 LINE",
"201 452 LINE",
"203 431 OFFCURVE",
"207 423 OFFCURVE",
"227 390 CURVE SMOOTH",
"469 0 LINE",
"566 0 LINE",
"566 625 LINE",
"466 625 LINE",
"466 173 LINE",
"460 173 LINE",
"458 194 OFFCURVE",
"454 202 OFFCURVE",
"434 235 CURVE SMOOTH",
"192 625 LINE",
"95 625 LINE",
"95 0 LINE"
);
}
);
width = 661;
}
);
leftKerningGroup = H;
leftMetricsKey = "=H+5";
rightKerningGroup = H;
rightMetricsKey = "=H+5";
unicode = 004E;
},
{
glyphname = O;
layers = (
{
anchors = (
{
name = bottom;
position = "{330, 0}";
},
{
name = center;
position = "{330, 313}";
},
{
name = ogonek;
position = "{412, -9}";
},
{
name = top;
position = "{330, 625}";
},
{
name = topleft;
position = "{28, 625}";
},
{
name = topright;
position = "{632, 625}";
}
);
layerId = "62EAF1BF-1B79-4549-96F9-774E14A065EF";
paths = (
{
closed = 1;
nodes = (
"30 65 OFFCURVE",
"103 -15 OFFCURVE",
"330 -15 CURVE SMOOTH",
"557 -15 OFFCURVE",
"630 65 OFFCURVE",
"630 312 CURVE SMOOTH",
"630 560 OFFCURVE",
"557 640 OFFCURVE",
"330 640 CURVE SMOOTH",
"103 640 OFFCURVE",
"30 560 OFFCURVE",
"30 312 CURVE SMOOTH"
);
},
{
closed = 1;
nodes = (
"245 416 LINE SMOOTH",
"245 456 OFFCURVE",
"264 469 OFFCURVE",
"323 469 CURVE SMOOTH",
"415 469 LINE",
"415 209 LINE SMOOTH",
"415 169 OFFCURVE",
"396 156 OFFCURVE",
"336 156 CURVE SMOOTH",
"245 156 LINE"
);
}
);
width = 660;
},
{
anchors = (
{
name = bottom;
position = "{318, 0}";
},
{
name = center;
position = "{318, 313}";
},
{
name = ogonek;
position = "{370, -12}";
},
{
name = top;
position = "{318, 625}";
},
{
name = topleft;
position = "{30, 625}";
},
{
name = topright;
position = "{606, 625}";
}
);
background = {
paths = (
{
closed = 1;
nodes = (
"30 96 OFFCURVE",
"89 -15 OFFCURVE",
"305 -15 CURVE SMOOTH",
"521 -15 OFFCURVE",
"580 96 OFFCURVE",
"580 312 CURVE SMOOTH",
"580 529 OFFCURVE",
"521 640 OFFCURVE",
"305 640 CURVE SMOOTH",
"89 640 OFFCURVE",
"30 529 OFFCURVE",
"30 312 CURVE SMOOTH"
);
},
{
closed = 1;
nodes = (
"205 446 LINE SMOOTH",
"205 495 OFFCURVE",
"236 499 OFFCURVE",
"282 499 CURVE SMOOTH",
"406 499 LINE",
"406 179 LINE SMOOTH",
"406 130 OFFCURVE",
"374 126 OFFCURVE",
"328 126 CURVE SMOOTH",
"205 126 LINE"
);
}
);
};
hints = (
{
horizontal = 1;
origin = "{0, 2}";
target = "{1, 9}";
type = Stem;
},
{
horizontal = 1;
origin = "{0, 8}";
target = "{1, 3}";
type = Stem;
},
{
origin = "{0, 11}";
target = "{1, 9}";
type = Stem;
},
{
origin = "{1, 5}";
target = "{0, 5}";
type = Stem;
}
);
layerId = "CF2D4400-0F4D-4A72-A30C-ABA3B96311EF";
paths = (
{
closed = 1;
nodes = (
"65 41 OFFCURVE",
"108 -15 OFFCURVE",
"318 -15 CURVE SMOOTH",
"527 -15 OFFCURVE",
"571 41 OFFCURVE",
"571 312 CURVE SMOOTH",
"571 583 OFFCURVE",
"527 640 OFFCURVE",
"318 640 CURVE SMOOTH",
"108 640 OFFCURVE",
"65 584 OFFCURVE",
"65 312 CURVE SMOOTH"
);
},
{
closed = 1;
nodes = (
"172 482 LINE SMOOTH",
"172 537 OFFCURVE",
"193 555 OFFCURVE",
"257 555 CURVE SMOOTH",
"464 555 LINE",
"464 143 LINE SMOOTH",
"464 88 OFFCURVE",
"442 70 OFFCURVE",
"378 70 CURVE SMOOTH",
"172 70 LINE"
);
}
);
width = 636;
}
);
leftKerningGroup = O;
rightKerningGroup = O;
unicode = 004F;
},
{
glyphname = Oslash;
layers = (
{
anchors = (
{
name = bottom;
position = "{330, 0}";
},
{
name = top;
position = "{330, 625}";
}
);
components = (
{
name = O;
},
{
name = slashlongcomb;
transform = "{1, 0, 0, 1.1, 128, -31}";
}
);
layerId = "62EAF1BF-1B79-4549-96F9-774E14A065EF";
width = 660;
},
{
anchors = (
{
name = bottom;
position = "{318, 0}";
},
{
name = top;
position = "{318, 625}";
}
);
background = {
paths = (
{
closed = 1;
nodes = (
"494 538 LINE",
"566 665 LINE",
"495 665 LINE SMOOTH",
"467 665 OFFCURVE",
"461 656 OFFCURVE",
"452 640 CURVE SMOOTH",
"394 538 LINE",
"408 538 LINE",
"155 97 LINE",
"141 97 LINE",
"63 -40 LINE",
"134 -40 LINE SMOOTH",
"162 -40 OFFCURVE",
"168 -31 OFFCURVE",
"177 -15 CURVE SMOOTH",
"241 97 LINE",
"226 97 LINE",
"479 538 LINE"
);
}
);
};
components = (
{
name = O;
},
{
name = slashlongcomb;
transform = "{1, 0, 0, 1.1, 116, -31}";
}
);
layerId = "CF2D4400-0F4D-4A72-A30C-ABA3B96311EF";
width = 636;
},
{
anchors = (
{
name = _center;
position = "{318, 313}";
},
{
name = bottom;
position = "{318, 0}";
},
{
name = top;
position = "{318, 625}";
}
);
associatedMasterId = "CF2D4400-0F4D-4A72-A30C-ABA3B96311EF";
background = {
paths = (
{
closed = 1;
nodes = (
"494 538 LINE",
"566 665 LINE",
"495 665 LINE SMOOTH",
"467 665 OFFCURVE",
"461 656 OFFCURVE",
"452 640 CURVE SMOOTH",
"394 538 LINE",
"408 538 LINE",
"155 97 LINE",
"141 97 LINE",
"63 -40 LINE",
"134 -40 LINE SMOOTH",
"162 -40 OFFCURVE",
"168 -31 OFFCURVE",
"177 -15 CURVE SMOOTH",
"241 97 LINE",
"226 97 LINE",
"479 538 LINE"
);
}
);
};
components = (
{
name = O;
}
);
layerId = "2C93D13F-FC98-43CF-9433-475F6DB38278";
name = "Regular [140]";
paths = (
{
closed = 1;
nodes = (
"159 23 LINE",
"116 -75 LINE",
"147 -75 LINE SMOOTH",
"170 -75 OFFCURVE",
"180 -71 OFFCURVE",
"190 -48 CURVE SMOOTH",
"221 22 LINE"
);
},
{
closed = 1;
nodes = (
"478 605 LINE",
"520 700 LINE",
"489 700 LINE SMOOTH",
"466 700 OFFCURVE",
"455 693 OFFCURVE",
"446 673 CURVE SMOOTH",
"416 606 LINE"
);
}
);
width = 636;
},
{
anchors = (
{
name = _center;
position = "{330, 313}";
},
{
name = bottom;
position = "{330, 0}";
},
{
name = top;
position = "{330, 625}";
}
);
associatedMasterId = "62EAF1BF-1B79-4549-96F9-774E14A065EF";
components = (
{
name = O;
}
);
layerId = "58C63070-05D1-4EF6-B2E8-6E0BD83ECF3D";
name = "Bold [140]";
paths = (
{
closed = 1;
nodes = (
"193 80 LINE",
"128 -75 LINE",
"179 -75 LINE SMOOTH",
"202 -75 OFFCURVE",
"212 -71 OFFCURVE",
"222 -48 CURVE SMOOTH",
"275 81 LINE"
);
},
{
closed = 1;
nodes = (
"464 538 LINE",
"532 700 LINE",
"481 700 LINE SMOOTH",
"458 700 OFFCURVE",
"447 695 OFFCURVE",
"438 673 CURVE SMOOTH",
"382 537 LINE"
);
}
);
width = 660;
}
);
leftKerningGroup = O;
rightKerningGroup = O;
unicode = 00D8;
},
{
glyphname = OE;
layers = (
{
anchors = (
{
name = bottom;
position = "{443, 0}";
},
{
name = top;
position = "{443, 625}";
}
);
layerId = "62EAF1BF-1B79-4549-96F9-774E14A065EF";
paths = (
{
closed = 1;
nodes = (
"815 240 LINE",
"815 385 LINE",
"615 385 LINE",
"615 460 LINE",
"830 460 LINE",
"855 625 LINE",
"415 625 LINE",
"415 0 LINE",
"850 0 LINE",
"850 165 LINE",
"615 165 LINE",
"615 240 LINE"
);
},
{
closed = 1;
nodes = (
"30 75 OFFCURVE",
"102 0 OFFCURVE",
"330 0 CURVE SMOOTH",
"435 0 LINE",
"435 625 LINE",
"330 625 LINE",
"102 625 OFFCURVE",
"30 550 OFFCURVE",
"30 312 CURVE SMOOTH"
);
},
{
closed = 1;
nodes = (
"245 407 LINE SMOOTH",
"245 447 OFFCURVE",
"264 460 OFFCURVE",
"323 460 CURVE SMOOTH",
"415 460 LINE",
"415 218 LINE SMOOTH",
"415 178 OFFCURVE",
"396 165 OFFCURVE",
"336 165 CURVE SMOOTH",
"245 165 LINE"
);
}
);
width = 885;
},
{
anchors = (
{
name = bottom;
position = "{445, 0}";
},
{
name = top;
position = "{445, 625}";
}
);
hints = (
{
horizontal = 1;
origin = "{0, 7}";
target = "{0, 10}";
type = Stem;
},
{
horizontal = 1;
origin = "{0, 11}";
target = "{0, 2}";
type = Stem;
},
{
horizontal = 1;
origin = "{0, 6}";
target = "{0, 3}";
type = Stem;
},
{
origin = "{0, 7}";
target = "{0, 10}";
type = Stem;
},
{
horizontal = 1;
origin = "{0, 8}";
target = up;
type = BottomGhost;
},
{
horizontal = 1;
origin = "{0, 5}";
target = down;
type = TopGhost;
}
);
layerId = "CF2D4400-0F4D-4A72-A30C-ABA3B96311EF";
paths = (
{
closed = 1;
nodes = (
"801 273 LINE",
"801 352 LINE",
"564 352 LINE",
"564 542 LINE",
"824 542 LINE",
"836 625 LINE",
"464 625 LINE",
"464 0 LINE",
"839 0 LINE",
"839 83 LINE",
"564 83 LINE",
"564 273 LINE"
);
},
{
closed = 1;
nodes = (
"65 53 OFFCURVE",
"108 0 OFFCURVE",
"318 0 CURVE SMOOTH",
"474 0 LINE",
"474 625 LINE",
"318 625 LINE",
"109 625 OFFCURVE",
"65 571 OFFCURVE",
"65 312 CURVE SMOOTH"
);
},
{
closed = 1;
nodes = (
"172 469 LINE SMOOTH",
"172 524 OFFCURVE",
"193 542 OFFCURVE",
"257 542 CURVE SMOOTH",
"464 542 LINE",
"464 156 LINE SMOOTH",
"464 101 OFFCURVE",
"442 83 OFFCURVE",
"378 83 CURVE SMOOTH",
"172 83 LINE"
);
}
);
width = 889;
}
);
leftKerningGroup = O;
leftMetricsKey = O;
rightKerningGroup = E;
rightMetricsKey = E;
unicode = 0152;
},
{
glyphname = P;
layers = (
{
layerId = "62EAF1BF-1B79-4549-96F9-774E14A065EF";
paths = (
{
closed = 1;
nodes = (
"350 151 LINE SMOOTH",
"503 151 OFFCURVE",
"575 228 OFFCURVE",
"575 394 CURVE SMOOTH",
"575 558 OFFCURVE",
"505 625 OFFCURVE",
"335 625 CURVE SMOOTH",
"50 625 LINE",
"50 0 LINE",
"250 0 LINE",
"250 151 LINE"
);
},
{
closed = 1;
nodes = (
"250 460 LINE",
"326 460 LINE SMOOTH",
"355 460 OFFCURVE",
"365 450 OFFCURVE",
"365 418 CURVE SMOOTH",
"365 338 LINE SMOOTH",
"365 306 OFFCURVE",
"355 296 OFFCURVE",
"326 296 CURVE SMOOTH",
"250 296 LINE"
);
}
);
width = 590;
},
{
background = {
paths = (
{
closed = 1;
nodes = (
"340 166 LINE SMOOTH",
"511 166 OFFCURVE",
"540 302 OFFCURVE",
"540 401 CURVE SMOOTH",
"540 522 OFFCURVE",
"496 625 OFFCURVE",
"325 625 CURVE SMOOTH",
"50 625 LINE",
"50 0 LINE",
"210 0 LINE",
"210 166 LINE"
);
},
{
closed = 1;
nodes = (
"210 495 LINE",
"296 495 LINE SMOOTH",
"336 495 OFFCURVE",
"365 492 OFFCURVE",
"365 453 CURVE SMOOTH",
"365 338 LINE SMOOTH",
"365 299 OFFCURVE",
"336 296 OFFCURVE",
"296 296 CURVE SMOOTH",
"210 296 LINE"
);
}
);
};
hints = (
{
horizontal = 1;
origin = "{0, 10}";
target = "{1, 9}";
type = Stem;
},
{
horizontal = 1;
origin = "{0, 7}";
target = "{1, 0}";
type = Stem;
},
{
origin = "{0, 8}";
target = "{0, 9}";
type = Stem;
},
{
origin = "{1, 5}";
target = "{0, 3}";
type = Stem;
},
{
horizontal = 1;
origin = "{0, 8}";
target = up;
type = BottomGhost;
},
{
horizontal = 1;
origin = "{0, 7}";
target = down;
type = TopGhost;
}
);
layerId = "CF2D4400-0F4D-4A72-A30C-ABA3B96311EF";
paths = (
{
closed = 1;
nodes = (
"350 206 LINE SMOOTH",
"465 206 OFFCURVE",
"510 265 OFFCURVE",
"510 414 CURVE SMOOTH",
"510 572 OFFCURVE",
"466 625 OFFCURVE",
"335 625 CURVE SMOOTH",
"90 625 LINE",
"90 0 LINE",
"190 0 LINE",
"190 206 LINE"
);
},
{
closed = 1;
nodes = (
"190 542 LINE",
"336 542 LINE SMOOTH",
"388 542 OFFCURVE",
"405 532 OFFCURVE",
"405 500 CURVE SMOOTH",
"405 327 LINE SMOOTH",
"405 295 OFFCURVE",
"388 285 OFFCURVE",
"336 285 CURVE SMOOTH",
"190 285 LINE"
);
}
);
width = 530;
}
);
leftKerningGroup = H;
leftMetricsKey = H;
rightKerningGroup = P;
unicode = 0050;
},
{
glyphname = Thorn;
layers = (
{
layerId = "62EAF1BF-1B79-4549-96F9-774E14A065EF";
paths = (
{
closed = 1;
nodes = (
"250 550 LINE",
"250 625 LINE",
"50 625 LINE",
"50 0 LINE",
"250 0 LINE",
"250 76 LINE",
"350 76 LINE SMOOTH",
"503 76 OFFCURVE",
"575 153 OFFCURVE",
"575 319 CURVE SMOOTH",
"575 483 OFFCURVE",
"505 550 OFFCURVE",
"335 550 CURVE SMOOTH"
);
},
{
closed = 1;
nodes = (
"365 231 OFFCURVE",
"355 221 OFFCURVE",
"326 221 CURVE SMOOTH",
"250 221 LINE",
"250 405 LINE",
"326 405 LINE SMOOTH",
"355 405 OFFCURVE",
"365 395 OFFCURVE",
"365 363 CURVE SMOOTH",
"365 263 LINE SMOOTH"
);
}
);
width = 590;
},
{
background = {
paths = (
{
closed = 1;
nodes = (
"340 166 LINE SMOOTH",
"511 166 OFFCURVE",
"540 302 OFFCURVE",
"540 401 CURVE SMOOTH",
"540 522 OFFCURVE",
"496 625 OFFCURVE",
"325 625 CURVE SMOOTH",
"50 625 LINE",
"50 0 LINE",
"210 0 LINE",
"210 166 LINE"
);
},
{
closed = 1;
nodes = (
"210 495 LINE",
"296 495 LINE SMOOTH",
"336 495 OFFCURVE",
"365 492 OFFCURVE",
"365 453 CURVE SMOOTH",
"365 338 LINE SMOOTH",
"365 299 OFFCURVE",
"336 296 OFFCURVE",
"296 296 CURVE SMOOTH",
"210 296 LINE"
);
}
);
};
hints = (
{
horizontal = 1;
origin = "{0, 5}";
target = "{1, 3}";
type = Stem;
},
{
horizontal = 1;
origin = "{0, 0}";
target = "{1, 4}";
type = Stem;
},
{
origin = "{0, 3}";
target = "{0, 4}";
type = Stem;
},
{
origin = "{1, 9}";
target = "{0, 9}";
type = Stem;
},
{
horizontal = 1;
origin = "{0, 3}";
target = up;
type = BottomGhost;
},
{
horizontal = 1;
origin = "{0, 2}";
target = down;
type = TopGhost;
}
);
layerId = "CF2D4400-0F4D-4A72-A30C-ABA3B96311EF";
paths = (
{
closed = 1;
nodes = (
"190 522 LINE",
"190 625 LINE",
"90 625 LINE",
"90 0 LINE",
"190 0 LINE",
"190 103 LINE",
"350 103 LINE SMOOTH",
"465 103 OFFCURVE",
"510 162 OFFCURVE",
"510 311 CURVE SMOOTH",
"510 469 OFFCURVE",
"466 522 OFFCURVE",
"335 522 CURVE SMOOTH"
);
},
{
closed = 1;
nodes = (
"405 192 OFFCURVE",
"388 182 OFFCURVE",
"336 182 CURVE SMOOTH",
"190 182 LINE",
"190 443 LINE",
"336 443 LINE SMOOTH",
"388 443 OFFCURVE",
"405 433 OFFCURVE",
"405 401 CURVE SMOOTH",
"405 224 LINE SMOOTH"
);
}
);
width = 530;
}
);
leftKerningGroup = H;
leftMetricsKey = H;
rightKerningGroup = Thorn;
rightMetricsKey = P;
unicode = 00DE;
},
{
glyphname = Q;
layers = (
{
background = {
paths = (
{
closed = 0;
nodes = (
"385 23 LINE"
);
},
{
closed = 0;
nodes = (
"557 107 LINE"
);
}
);
};
layerId = "62EAF1BF-1B79-4549-96F9-774E14A065EF";
paths = (
{
closed = 1;
nodes = (
"385 42 LINE",
"493 35 LINE",
"584 77 OFFCURVE",
"620 155 OFFCURVE",
"620 312 CURVE SMOOTH",
"620 555 OFFCURVE",
"544 640 OFFCURVE",
"325 640 CURVE SMOOTH",
"106 640 OFFCURVE",
"30 555 OFFCURVE",
"30 312 CURVE SMOOTH",
"30 70 OFFCURVE",
"107 -15 OFFCURVE",
"325 -15 CURVE"
);
},
{
closed = 1;
nodes = (
"245 416 LINE SMOOTH",
"245 456 OFFCURVE",
"263 469 OFFCURVE",
"322 469 CURVE SMOOTH",
"406 469 LINE",
"406 209 LINE SMOOTH",
"406 169 OFFCURVE",
"387 156 OFFCURVE",
"328 156 CURVE SMOOTH",
"245 156 LINE"
);
},
{
closed = 1;
nodes = (
"629 37 LINE",
"517 107 LINE",
"385 42 LINE",
"385 -15 LINE",
"577 -78 LINE"
);
}
);
width = 650;
},
{
background = {
paths = (
{
closed = 1;
nodes = (
"565 15 LINE",
"454 65 LINE",
"496 107 OFFCURVE",
"531 188 OFFCURVE",
"531 312 CURVE SMOOTH",
"531 572 OFFCURVE",
"482 640 OFFCURVE",
"290 640 CURVE SMOOTH",
"98 640 OFFCURVE",
"50 572 OFFCURVE",
"50 312 CURVE SMOOTH",
"50 53 OFFCURVE",
"98 0 OFFCURVE",
"290 0 CURVE SMOOTH",
"367 24 LINE",
"367 -2 LINE",
"542 -40 LINE"
);
},
{
closed = 1;
nodes = (
"160 486 LINE SMOOTH",
"160 535 OFFCURVE",
"191 539 OFFCURVE",
"237 539 CURVE SMOOTH",
"421 539 LINE",
"421 149 LINE SMOOTH",
"421 100 OFFCURVE",
"389 96 OFFCURVE",
"343 96 CURVE SMOOTH",
"160 96 LINE"
);
}
);
};
hints = (
{
horizontal = 1;
origin = "{0, 13}";
target = "{1, 9}";
type = Stem;
},
{
horizontal = 1;
origin = "{0, 7}";
target = "{1, 3}";
type = Stem;
},
{
origin = "{0, 10}";
target = "{1, 9}";
type = Stem;
},
{
origin = "{1, 5}";
target = "{0, 4}";
type = Stem;
}
);
layerId = "CF2D4400-0F4D-4A72-A30C-ABA3B96311EF";
paths = (
{
closed = 1;
nodes = (
"370 13 LINE",
"459 15 LINE",
"536 46 OFFCURVE",
"561 119 OFFCURVE",
"561 312 CURVE SMOOTH",
"561 582 OFFCURVE",
"517 640 OFFCURVE",
"313 640 CURVE SMOOTH",
"108 640 OFFCURVE",
"65 583 OFFCURVE",
"65 312 CURVE SMOOTH",
"65 41 OFFCURVE",
"108 -15 OFFCURVE",
"313 -15 CURVE"
);
},
{
closed = 1;
nodes = (
"173 482 LINE SMOOTH",
"173 537 OFFCURVE",
"193 555 OFFCURVE",
"255 555 CURVE SMOOTH",
"453 555 LINE",
"453 143 LINE SMOOTH",
"453 88 OFFCURVE",
"432 70 OFFCURVE",
"370 70 CURVE SMOOTH",
"173 70 LINE"
);
},
{
closed = 1;
nodes = (
"568 -17 LINE",
"457 53 LINE",
"370 13 LINE",
"370 -15 LINE",
"543 -72 LINE"
);
}
);
width = 626;
}
);
leftKerningGroup = O;
rightKerningGroup = O;
unicode = 0051;
},
{
glyphname = R;
layers = (
{
anchors = (
{
name = bottom;
position = "{313, 0}";
},
{
name = top;
position = "{313, 625}";
}
);
background = {
paths = (
{
closed = 1;
nodes = (
"295 202 LINE",
"405 0 LINE",
"605 0 LINE",
"484 222 LINE"
);
}
);
};
guideLines = (
{
angle = 25.189;
position = "{383, 10}";
showMeasurement = 1;
}
);
layerId = "62EAF1BF-1B79-4549-96F9-774E14A065EF";
paths = (
{
closed = 1;
nodes = (
"355 181 LINE SMOOTH",
"509 181 OFFCURVE",
"580 249 OFFCURVE",
"580 394 CURVE SMOOTH",
"580 558 OFFCURVE",
"510 625 OFFCURVE",
"340 625 CURVE SMOOTH",
"50 625 LINE",
"50 0 LINE",
"250 0 LINE",
"250 181 LINE"
);
},
{
closed = 1;
nodes = (
"250 460 LINE",
"331 460 LINE SMOOTH",
"360 460 OFFCURVE",
"370 450 OFFCURVE",
"370 418 CURVE SMOOTH",
"370 368 LINE SMOOTH",
"370 336 OFFCURVE",
"360 326 OFFCURVE",
"331 326 CURVE SMOOTH",
"250 326 LINE"
);
},
{
closed = 1;
nodes = (
"285 219 LINE",
"388 0 LINE",
"605 0 LINE",
"453 321 LINE"
);
}
);
width = 625;
},
{
anchors = (
{
name = bottom;
position = "{290, 0}";
},
{
name = top;
position = "{300, 625}";
}
);
background = {
paths = (
{
closed = 1;
nodes = (
"329 236 LINE",
"445 0 LINE",
"545 0 LINE",
"418 257 LINE"
);
}
);
};
guideLines = (
{
angle = 25.267;
position = "{431, 0}";
showMeasurement = 1;
}
);
hints = (
{
horizontal = 1;
origin = "{0, 10}";
target = "{1, 9}";
type = Stem;
},
{
horizontal = 1;
origin = "{1, 0}";
target = "{0, 7}";
type = Stem;
},
{
origin = "{0, 8}";
target = "{0, 9}";
type = Stem;
},
{
origin = "{1, 5}";
target = "{0, 3}";
type = Stem;
},
{
horizontal = 1;
origin = "{0, 8}";
target = up;
type = BottomGhost;
},
{
horizontal = 1;
origin = "{0, 7}";
target = down;
type = TopGhost;
}
);
layerId = "CF2D4400-0F4D-4A72-A30C-ABA3B96311EF";
paths = (
{
closed = 1;
nodes = (
"355 221 LINE SMOOTH",
"470 221 OFFCURVE",
"515 276 OFFCURVE",
"515 414 CURVE SMOOTH",
"515 572 OFFCURVE",
"471 625 OFFCURVE",
"340 625 CURVE SMOOTH",
"90 625 LINE",
"90 0 LINE",
"190 0 LINE",
"190 221 LINE"
);
},
{
closed = 1;
nodes = (
"190 542 LINE",
"341 542 LINE SMOOTH",
"393 542 OFFCURVE",
"410 532 OFFCURVE",
"410 500 CURVE SMOOTH",
"410 342 LINE SMOOTH",
"410 310 OFFCURVE",
"393 300 OFFCURVE",
"341 300 CURVE SMOOTH",
"190 300 LINE"
);
},
{
closed = 1;
nodes = (
"318 250 LINE",
"436 0 LINE",
"545 0 LINE",
"415 268 LINE"
);
}
);
width = 580;
}
);
leftKerningGroup = H;
leftMetricsKey = H;
rightKerningGroup = R;
unicode = 0052;
},
{
glyphname = S;
layers = (
{
anchors = (
{
name = bottom;
position = "{289, 0}";
},
{
name = top;
position = "{289, 625}";
}
);
layerId = "62EAF1BF-1B79-4549-96F9-774E14A065EF";
paths = (
{
closed = 1;
nodes = (
"25 21 LINE",
"104 -3 OFFCURVE",
"191 -15 OFFCURVE",
"286 -15 CURVE SMOOTH",
"470 -15 OFFCURVE",
"552 51 OFFCURVE",
"552 199 CURVE SMOOTH",
"552 327 OFFCURVE",
"483 388 OFFCURVE",
"321 404 CURVE SMOOTH",
"249 411 LINE",
"249 465 LINE",
"274 469 OFFCURVE",
"292 470 OFFCURVE",
"331 470 CURVE SMOOTH",
"381 470 OFFCURVE",
"423 465 OFFCURVE",
"493 450 CURVE",
"518 610 LINE",
"443 630 OFFCURVE",
"364 640 OFFCURVE",
"283 640 CURVE SMOOTH",
"98 640 OFFCURVE",
"34 582 OFFCURVE",
"34 416 CURVE SMOOTH",
"34 289 OFFCURVE",
"93 236 OFFCURVE",
"247 222 CURVE SMOOTH",
"337 214 LINE",
"337 159 LINE",
"313 155 OFFCURVE",
"291 154 OFFCURVE",
"256 154 CURVE SMOOTH",
"188 154 OFFCURVE",
"122 164 OFFCURVE",
"53 186 CURVE"
);
}
);
width = 577;
},
{
anchors = (
{
name = bottom;
position = "{259, 0}";
},
{
name = top;
position = "{259, 625}";
}
);
background = {
paths = (
{
closed = 1;
nodes = (
"10 11 LINE",
"87 -7 OFFCURVE",
"168 -15 OFFCURVE",
"251 -15 CURVE SMOOTH",
"379 -15 OFFCURVE",
"492 -3 OFFCURVE",
"492 179 CURVE SMOOTH",
"492 308 OFFCURVE",
"447 372 OFFCURVE",
"266 390 CURVE SMOOTH",
"194 397 LINE",
"194 495 LINE",
"225 499 OFFCURVE",
"243 500 OFFCURVE",
"276 500 CURVE SMOOTH",
"336 500 OFFCURVE",
"387 494 OFFCURVE",
"443 485 CURVE",
"463 615 LINE",
"390 632 OFFCURVE",
"314 640 OFFCURVE",
"238 640 CURVE SMOOTH",
"73 640 OFFCURVE",
"24 581 OFFCURVE",
"24 445 CURVE SMOOTH",
"24 300 OFFCURVE",
"61 250 OFFCURVE",
"232 235 CURVE SMOOTH",
"322 227 LINE",
"322 129 LINE",
"292 125 OFFCURVE",
"261 123 OFFCURVE",
"217 123 CURVE SMOOTH",
"162 123 OFFCURVE",
"89 132 OFFCURVE",
"33 146 CURVE"
);
}
);
};
hints = (
{
horizontal = 1;
origin = "{0, 3}";
target = "{0, 32}";
type = Stem;
},
{
horizontal = 1;
place = "{263.5, 97}";
type = Stem;
},
{
horizontal = 1;
origin = "{0, 21}";
target = "{0, 14}";
type = Stem;
},
{
origin = "{0, 24}";
target = "{0, 10}";
type = Stem;
},
{
origin = "{0, 29}";
target = "{0, 6}";
type = Stem;
}
);
layerId = "CF2D4400-0F4D-4A72-A30C-ABA3B96311EF";
paths = (
{
closed = 1;
nodes = (
"46 9 LINE",
"114 -8 OFFCURVE",
"177 -15 OFFCURVE",
"248 -15 CURVE SMOOTH",
"420 -15 OFFCURVE",
"479 32 OFFCURVE",
"479 170 CURVE SMOOTH",
"479 304 OFFCURVE",
"431 347 OFFCURVE",
"274 357 CURVE SMOOTH",
"163 364 LINE",
"163 552 LINE",
"192 556 OFFCURVE",
"211 557 OFFCURVE",
"250 557 CURVE SMOOTH",
"321 557 OFFCURVE",
"374 553 OFFCURVE",
"433 542 CURVE",
"446 621 LINE",
"377 634 OFFCURVE",
"313 640 OFFCURVE",
"244 640 CURVE SMOOTH",
"105 640 OFFCURVE",
"54 588 OFFCURVE",
"54 445 CURVE SMOOTH",
"54 315 OFFCURVE",
"97 280 OFFCURVE",
"275 267 CURVE SMOOTH",
"370 260 LINE",
"370 74 LINE",
"318 69 OFFCURVE",
"290 68 OFFCURVE",
"257 68 CURVE SMOOTH",
"192 68 OFFCURVE",
"114 77 OFFCURVE",
"61 91 CURVE"
);
}
);
width = 519;
}
);
leftKerningGroup = S;
rightKerningGroup = S;
unicode = 0053;
},
{
glyphname = T;
layers = (
{
anchors = (
{
name = bottom;
position = "{245, 0}";
},
{
name = center;
position = "{245, 273}";
},
{
name = top;
position = "{245, 625}";
}
);
layerId = "62EAF1BF-1B79-4549-96F9-774E14A065EF";
paths = (
{
closed = 1;
nodes = (
"485 460 LINE",
"485 625 LINE",
"5 625 LINE",
"5 460 LINE",
"145 460 LINE",
"145 0 LINE",
"345 0 LINE",
"345 460 LINE"
);
}
);
width = 490;
},
{
anchors = (
{
name = bottom;
position = "{230, 0}";
},
{
name = center;
position = "{230, 303}";
},
{
name = top;
position = "{230, 625}";
}
);
background = {
paths = (
{
closed = 1;
nodes = (
"455 495 LINE",
"455 625 LINE",
"5 625 LINE",
"5 495 LINE",
"150 495 LINE",
"150 0 LINE",
"310 0 LINE",
"310 495 LINE"
);
}
);
};
hints = (
{
horizontal = 1;
origin = "{0, 3}";
target = "{0, 2}";
type = Stem;
},
{
origin = "{0, 5}";
target = "{0, 6}";
type = Stem;
},
{
horizontal = 1;
origin = "{0, 5}";
target = up;
type = BottomGhost;
},
{
horizontal = 1;
origin = "{0, 2}";
target = down;
type = TopGhost;
}
);
layerId = "CF2D4400-0F4D-4A72-A30C-ABA3B96311EF";
paths = (
{
closed = 1;
nodes = (
"445 542 LINE",
"445 625 LINE",
"15 625 LINE",
"15 542 LINE",
"180 542 LINE",
"180 0 LINE",
"280 0 LINE",
"280 542 LINE"
);
}
);
width = 460;
}
);
leftKerningGroup = T;
rightKerningGroup = T;
unicode = 0054;
},
{
glyphname = U;
layers = (
{
anchors = (
{
name = bottom;
position = "{318, 0}";
},
{
name = ogonek;
position = "{368, -13}";
},
{
name = top;
position = "{318, 625}";
},
{
name = topright;
position = "{593, 625}";
}
);
layerId = "62EAF1BF-1B79-4549-96F9-774E14A065EF";
paths = (
{
closed = 1;
nodes = (
"535 -15 OFFCURVE",
"594 38 OFFCURVE",
"594 234 CURVE SMOOTH",
"594 625 LINE",
"394 625 LINE",
"394 209 LINE SMOOTH",
"394 166 OFFCURVE",
"380 156 OFFCURVE",
"320 156 CURVE SMOOTH",
"240 156 LINE",
"240 625 LINE",
"40 625 LINE",
"40 234 LINE SMOOTH",
"40 37 OFFCURVE",
"98 -15 OFFCURVE",
"316 -15 CURVE SMOOTH"
);
}
);
width = 634;
},
{
anchors = (
{
name = bottom;
position = "{320, 0}";
},
{
name = ogonek;
position = "{368, -11}";
},
{
name = top;
position = "{320, 625}";
},
{
name = topright;
position = "{558, 625}";
}
);
background = {
paths = (
{
closed = 1;
nodes = (
"558 625 LINE",
"398 625 LINE",
"398 179 LINE SMOOTH",
"398 130 OFFCURVE",
"372 126 OFFCURVE",
"313 126 CURVE SMOOTH",
"221 126 LINE",
"221 625 LINE",
"61 625 LINE",
"61 225 LINE SMOOTH",
"61 66 OFFCURVE",
"114 -15 OFFCURVE",
"309 -15 CURVE SMOOTH",
"504 -15 OFFCURVE",
"558 66 OFFCURVE",
"558 225 CURVE SMOOTH"
);
}
);
};
hints = (
{
horizontal = 1;
origin = "{0, 15}";
target = "{0, 9}";
type = Stem;
},
{
origin = "{0, 12}";
target = "{0, 9}";
type = Stem;
},
{
origin = "{0, 5}";
target = "{0, 2}";
type = Stem;
},
{
horizontal = 1;
origin = "{0, 11}";
target = down;
type = TopGhost;
}
);
layerId = "CF2D4400-0F4D-4A72-A30C-ABA3B96311EF";
paths = (
{
closed = 1;
nodes = (
"513 -15 OFFCURVE",
"558 24 OFFCURVE",
"558 189 CURVE SMOOTH",
"558 625 LINE",
"458 625 LINE",
"458 123 LINE SMOOTH",
"458 80 OFFCURVE",
"433 70 OFFCURVE",
"324 70 CURVE SMOOTH",
"180 70 LINE",
"180 625 LINE",
"80 625 LINE",
"80 189 LINE SMOOTH",
"80 24 OFFCURVE",
"125 -15 OFFCURVE",
"319 -15 CURVE SMOOTH"
);
}
);
width = 638;
}
);
leftKerningGroup = U;
leftMetricsKey = "=H-10";
rightKerningGroup = U;
rightMetricsKey = "=H-10";
unicode = 0055;
},
{
glyphname = V;
layers = (
{
guideLines = (
{
angle = 166.504;
position = "{541, 313}";
showMeasurement = 1;
}
);
layerId = "62EAF1BF-1B79-4549-96F9-774E14A065EF";
paths = (
{
closed = 1;
nodes = (
"155 0 LINE",
"466 0 LINE",
"616 625 LINE",
"416 625 LINE",
"315 192 LINE",
"306 192 LINE",
"205 625 LINE",
"5 625 LINE"
);
}
);
width = 621;
},
{
annotations = (
{
position = "{130.359, 102.634}";
type = Text;
}
);
background = {
paths = (
{
closed = 1;
nodes = (
"391 625 LINE",
"260 92 LINE",
"251 92 LINE",
"121 625 LINE",
"15 625 LINE",
"177 0 LINE",
"334 0 LINE",
"497 625 LINE"
);
}
);
};
guideLines = (
{
angle = 164.358;
position = "{411, 625}";
showMeasurement = 1;
},
{
angle = 164.358;
position = "{513, 52}";
showMeasurement = 1;
}
);
hints = (
{
horizontal = 1;
origin = "{0, 7}";
target = down;
type = TopGhost;
},
{
horizontal = 1;
origin = "{0, 0}";
target = up;
type = BottomGhost;
}
);
layerId = "CF2D4400-0F4D-4A72-A30C-ABA3B96311EF";
paths = (
{
closed = 1;
nodes = (
"185 0 LINE",
"336 0 LINE",
"511 625 LINE",
"411 625 LINE",
"265 92 LINE",
"256 92 LINE",
"110 625 LINE",
"10 625 LINE"
);
}
);
width = 521;
}
);
leftKerningGroup = V;
rightKerningGroup = V;
unicode = 0056;
},
{
glyphname = W;
layers = (
{
anchors = (
{
name = bottom;
position = "{465, 0}";
},
{
name = top;
position = "{465, 625}";
}
);
background = {
paths = (
{
closed = 1;
nodes = (
"612 625 LINE",
"564 276 LINE",
"558 276 LINE",
"487 625 LINE",
"334 625 LINE",
"262 276 LINE",
"256 276 LINE",
"209 625 LINE",
"0 625 LINE",
"98 0 LINE",
"359 0 LINE",
"404 230 LINE",
"416 230 LINE",
"462 0 LINE",
"723 0 LINE",
"821 625 LINE"
);
}
);
};
layerId = "62EAF1BF-1B79-4549-96F9-774E14A065EF";
paths = (
{
closed = 1;
nodes = (
"108 0 LINE",
"406 0 LINE",
"503 625 LINE",
"356 625 LINE",
"287 192 LINE",
"278 192 LINE",
"225 625 LINE",
"25 625 LINE"
);
},
{
closed = 1;
nodes = (
"704 625 LINE",
"651 192 LINE",
"642 192 LINE",
"573 625 LINE",
"426 625 LINE",
"523 0 LINE",
"821 0 LINE",
"904 625 LINE"
);
}
);
width = 929;
},
{
anchors = (
{
name = bottom;
position = "{401, 0}";
},
{
name = top;
position = "{401, 625}";
}
);
background = {
paths = (
{
closed = 1;
nodes = (
"346 600 LINE",
"240 92 LINE",
"231 92 LINE",
"141 625 LINE",
"35 625 LINE",
"157 0 LINE",
"309 0 LINE",
"437 600 LINE"
);
},
{
closed = 1;
nodes = (
"354 600 LINE",
"482 0 LINE",
"634 0 LINE",
"756 625 LINE",
"650 625 LINE",
"560 92 LINE",
"551 92 LINE",
"445 600 LINE"
);
},
{
closed = 1;
nodes = (
"374 389 LINE",
"418 389 LINE",
"418 428 LINE",
"374 428 LINE"
);
}
);
};
hints = (
{
horizontal = 1;
origin = "{0, 7}";
target = down;
type = TopGhost;
},
{
horizontal = 1;
origin = "{0, 0}";
target = up;
type = BottomGhost;
}
);
layerId = "CF2D4400-0F4D-4A72-A30C-ABA3B96311EF";
paths = (
{
closed = 1;
nodes = (
"130 0 LINE",
"286 0 LINE",
"431 625 LINE",
"348 625 LINE",
"220 92 LINE",
"211 92 LINE",
"125 625 LINE",
"25 625 LINE"
);
},
{
closed = 1;
nodes = (
"677 625 LINE",
"591 92 LINE",
"582 92 LINE",
"454 625 LINE",
"371 625 LINE",
"516 0 LINE",
"672 0 LINE",
"777 625 LINE"
);
}
);
width = 802;
}
);
leftKerningGroup = W;
rightKerningGroup = W;
unicode = 0057;
},
{
glyphname = X;
layers = (
{
guideLines = (
{
angle = 31.233;
position = "{503, 134}";
showMeasurement = 1;
},
{
angle = 31.233;
position = "{503, 734}";
showMeasurement = 1;
},
{
angle = 150.539;
position = "{588, 471}";
showMeasurement = 1;
}
);
layerId = "62EAF1BF-1B79-4549-96F9-774E14A065EF";
paths = (
{
closed = 1;
nodes = (
"234 625 LINE",
"12 625 LINE",
"403 0 LINE",
"625 0 LINE"
);
},
{
closed = 1;
nodes = (
"221 370 LINE",
"5 0 LINE",
"222 0 LINE",
"385 278 LINE"
);
},
{
closed = 1;
nodes = (
"402 255 LINE",
"618 625 LINE",
"401 625 LINE",
"238 347 LINE"
);
}
);
width = 630;
},
{
background = {
paths = (
{
closed = 1;
nodes = (
"130 625 LINE",
"18 625 LINE",
"408 0 LINE",
"520 0 LINE"
);
},
{
closed = 1;
nodes = (
"238 370 LINE",
"10 0 LINE",
"114 0 LINE",
"284 278 LINE"
);
},
{
closed = 1;
nodes = (
"285 255 LINE",
"512 625 LINE",
"408 625 LINE",
"238 347 LINE"
);
}
);
};
hints = (
{
horizontal = 1;
origin = "{1, 1}";
target = up;
type = BottomGhost;
},
{
horizontal = 1;
origin = "{0, 1}";
target = down;
type = TopGhost;
}
);
layerId = "CF2D4400-0F4D-4A72-A30C-ABA3B96311EF";
paths = (
{
closed = 1;
nodes = (
"130 625 LINE",
"18 625 LINE",
"408 0 LINE",
"520 0 LINE"
);
},
{
closed = 1;
nodes = (
"230 365 LINE",
"10 0 LINE",
"119 0 LINE",
"281 273 LINE"
);
},
{
closed = 1;
nodes = (
"293 260 LINE",
"512 625 LINE",
"403 625 LINE",
"241 352 LINE"
);
}
);
width = 530;
}
);
leftKerningGroup = X;
rightKerningGroup = X;
unicode = 0058;
},
{
glyphname = Y;
layers = (
{
anchors = (
{
name = bottom;
position = "{290, 0}";
},
{
name = top;
position = "{290, 625}";
},
{
name = topleft;
position = "{5, 625}";
}
);
background = {
paths = (
{
closed = 0;
nodes = (
"210 625 LINE",
"390 170 LINE"
);
}
);
};
guideLines = (
{
angle = 23.523;
position = "{26, 543}";
showMeasurement = 1;
},
{
angle = 23.523;
position = "{52, 330}";
showMeasurement = 1;
}
);
layerId = "62EAF1BF-1B79-4549-96F9-774E14A065EF";
paths = (
{
closed = 1;
nodes = (
"327 314 LINE",
"215 625 LINE",
"5 625 LINE",
"190 200 LINE",
"190 0 LINE",
"390 0 LINE",
"390 200 LINE",
"575 625 LINE",
"365 625 LINE",
"253 314 LINE"
);
}
);
width = 580;
},
{
anchors = (
{
name = bottom;
position = "{245, 0}";
},
{
name = top;
position = "{245, 625}";
},
{
name = topleft;
position = "{20, 625}";
}
);
background = {
paths = (
{
closed = 0;
nodes = (
"119 625 LINE",
"294 200 LINE"
);
}
);
};
guideLines = (
{
angle = 24.286;
position = "{1, 542}";
showMeasurement = 1;
}
);
hints = (
{
horizontal = 1;
origin = "{0, 2}";
target = down;
type = TopGhost;
},
{
origin = "{0, 4}";
target = "{0, 5}";
type = Stem;
},
{
horizontal = 1;
origin = "{0, 4}";
target = up;
type = BottomGhost;
}
);
layerId = "CF2D4400-0F4D-4A72-A30C-ABA3B96311EF";
paths = (
{
closed = 1;
nodes = (
"263 277 LINE",
"114 625 LINE",
"10 625 LINE",
"195 215 LINE",
"195 0 LINE",
"295 0 LINE",
"295 215 LINE",
"480 625 LINE",
"376 625 LINE",
"227 277 LINE"
);
}
);
width = 490;
}
);
leftKerningGroup = Y;
rightKerningGroup = Y;
unicode = 0059;
},
{
glyphname = Z;
layers = (
{
anchors = (
{
name = bottom;
position = "{295, 0}";
},
{
name = top;
position = "{320, 625}";
}
);
layerId = "62EAF1BF-1B79-4549-96F9-774E14A065EF";
paths = (
{
closed = 1;
nodes = (
"564 0 LINE",
"564 165 LINE",
"310 165 LINE",
"307 171 LINE",
"560 495 LINE",
"560 625 LINE",
"50 625 LINE",
"68 460 LINE",
"278 460 LINE",
"281 454 LINE",
"25 130 LINE",
"25 0 LINE"
);
}
);
width = 589;
},
{
anchors = (
{
name = bottom;
position = "{273, 0}";
},
{
name = top;
position = "{307, 625}";
}
);
background = {
paths = (
{
closed = 1;
nodes = (
"514 0 LINE",
"514 130 LINE",
"237 130 LINE",
"234 136 LINE",
"510 500 LINE",
"510 625 LINE",
"40 625 LINE",
"55 495 LINE",
"291 495 LINE",
"294 489 LINE",
"15 125 LINE",
"15 0 LINE"
);
},
{
closed = 1;
nodes = (
"514 0 LINE",
"514 130 LINE",
"237 130 LINE",
"234 136 LINE",
"510 500 LINE",
"510 625 LINE",
"40 625 LINE",
"55 495 LINE",
"291 495 LINE",
"294 489 LINE",
"15 125 LINE",
"15 0 LINE"
);
}
);
};
guideLines = (
{
angle = 143.603;
position = "{92, 180}";
showMeasurement = 1;
},
{
angle = 143.603;
position = "{92, 680}";
showMeasurement = 1;
}
);
hints = (
{
horizontal = 1;
origin = "{0, 11}";
target = "{0, 2}";
type = Stem;
},
{
horizontal = 1;
origin = "{0, 7}";
target = "{0, 6}";
type = Stem;
},
{
horizontal = 1;
origin = "{0, 11}";
target = up;
type = BottomGhost;
},
{
horizontal = 1;
origin = "{0, 6}";
target = down;
type = TopGhost;
}
);
layerId = "CF2D4400-0F4D-4A72-A30C-ABA3B96311EF";
paths = (
{
closed = 1;
nodes = (
"494 0 LINE",
"494 83 LINE",
"171 83 LINE",
"168 89 LINE",
"510 558 LINE",
"510 625 LINE",
"73 625 LINE",
"85 542 LINE",
"374 542 LINE",
"377 536 LINE",
"35 67 LINE",
"35 0 LINE"
);
}
);
width = 545;
}
);
leftKerningGroup = Z;
rightKerningGroup = Z;
unicode = 005A;
},
{
glyphname = a;
layers = (
{
anchors = (
{
name = bottom;
position = "{274, 0}";
},
{
name = ogonek;
position = "{520, 0}";
},
{
name = top;
position = "{290, 500}";
}
);
background = {
paths = (
{
closed = 1;
nodes = (
"251 -15 OFFCURVE",
"324 10 OFFCURVE",
"363 57 CURVE",
"420 0 LINE",
"520 0 LINE",
"520 350 LINE SMOOTH",
"520 482 OFFCURVE",
"410 515 OFFCURVE",
"280 515 CURVE SMOOTH",
"203 515 OFFCURVE",
"120 506 OFFCURVE",
"49 484 CURVE",
"73 341 LINE",
"127 359 OFFCURVE",
"204 368 OFFCURVE",
"267 368 CURVE SMOOTH",
"286 368 OFFCURVE",
"304 367 OFFCURVE",
"320 366 CURVE",
"320 320 LINE",
"280 320 LINE SMOOTH",
"124 320 OFFCURVE",
"8 278 OFFCURVE",
"8 150 CURVE SMOOTH",
"8 14 OFFCURVE",
"101 -15 OFFCURVE",
"176 -15 CURVE SMOOTH"
);
},
{
closed = 1;
nodes = (
"210 172 LINE SMOOTH",
"210 211 OFFCURVE",
"239 214 OFFCURVE",
"279 214 CURVE SMOOTH",
"320 214 LINE",
"320 167 LINE SMOOTH",
"320 134 OFFCURVE",
"289 131 OFFCURVE",
"251 131 CURVE SMOOTH",
"210 131 LINE"
);
}
);
};
layerId = "62EAF1BF-1B79-4549-96F9-774E14A065EF";
paths = (
{
closed = 1;
nodes = (
"260 -15 OFFCURVE",
"320 8 OFFCURVE",
"370 50 CURVE",
"420 0 LINE",
"520 0 LINE",
"520 340 LINE SMOOTH",
"520 461 OFFCURVE",
"449 515 OFFCURVE",
"290 515 CURVE SMOOTH",
"205 515 OFFCURVE",
"124 504 OFFCURVE",
"48 481 CURVE",
"72 343 LINE",
"145 361 OFFCURVE",
"210 369 OFFCURVE",
"270 369 CURVE SMOOTH",
"294 369 OFFCURVE",
"309 368 OFFCURVE",
"320 365 CURVE",
"320 158 LINE SMOOTH",
"320 129 OFFCURVE",
"303 120 OFFCURVE",
"251 120 CURVE SMOOTH",
"209 120 LINE",
"209 178 LINE SMOOTH",
"209 210 OFFCURVE",
"226 220 OFFCURVE",
"278 220 CURVE SMOOTH",
"350 220 LINE",
"350 320 LINE",
"290 320 LINE SMOOTH",
"96 320 OFFCURVE",
"25 276 OFFCURVE",
"25 155 CURVE SMOOTH",
"25 38 OFFCURVE",
"79 -15 OFFCURVE",
"200 -15 CURVE SMOOTH"
);
}
);
width = 565;
},
{
anchors = (
{
name = bottom;
position = "{278, 0}";
},
{
name = ogonek;
position = "{460, 0}";
},
{
name = top;
position = "{276, 500}";
}
);
background = {
paths = (
{
closed = 1;
nodes = (
"281 -10 OFFCURVE",
"342 4 OFFCURVE",
"398 50 CURVE",
"425 0 LINE",
"470 0 LINE",
"470 369 LINE SMOOTH",
"470 491 OFFCURVE",
"389 510 OFFCURVE",
"277 510 CURVE SMOOTH",
"225 510 OFFCURVE",
"147 502 OFFCURVE",
"94 483 CURVE",
"108 404 LINE",
"146 418 OFFCURVE",
"206 431 OFFCURVE",
"278 431 CURVE SMOOTH",
"307 431 OFFCURVE",
"338 429 OFFCURVE",
"371 424 CURVE",
"371 297 LINE",
"301 297 LINE SMOOTH",
"148 297 OFFCURVE",
"57 259 OFFCURVE",
"57 145 CURVE SMOOTH",
"57 11 OFFCURVE",
"143 -10 OFFCURVE",
"212 -10 CURVE SMOOTH"
);
},
{
closed = 1;
nodes = (
"158 170 LINE SMOOTH",
"158 220 OFFCURVE",
"185 228 OFFCURVE",
"243 228 CURVE SMOOTH",
"371 228 LINE",
"371 130 LINE SMOOTH",
"371 80 OFFCURVE",
"345 72 OFFCURVE",
"286 72 CURVE SMOOTH",
"158 72 LINE"
);
}
);
};
hints = (
{
horizontal = 1;
origin = "{0, 36}";
target = "{0, 23}";
type = Stem;
},
{
horizontal = 1;
origin = "{0, 28}";
target = "{0, 29}";
type = Stem;
},
{
horizontal = 1;
origin = "{0, 8}";
target = "{0, 15}";
type = Stem;
},
{
origin = "{0, 33}";
target = "{0, 23}";
type = Stem;
},
{
origin = "{0, 19}";
target = "{0, 4}";
type = Stem;
},
{
horizontal = 1;
origin = "{0, 36}";
target = up;
type = BottomGhost;
},
{
horizontal = 1;
origin = "{0, 8}";
target = down;
type = TopGhost;
}
);
layerId = "CF2D4400-0F4D-4A72-A30C-ABA3B96311EF";
paths = (
{
closed = 1;
nodes = (
"282 -10 OFFCURVE",
"339 9 OFFCURVE",
"387 50 CURVE",
"414 0 LINE",
"460 0 LINE",
"460 370 LINE SMOOTH",
"460 473 OFFCURVE",
"412 510 OFFCURVE",
"276 510 CURVE SMOOTH",
"207 510 OFFCURVE",
"126 498 OFFCURVE",
"77 480 CURVE",
"90 407 LINE",
"149 423 OFFCURVE",
"207 431 OFFCURVE",
"259 431 CURVE SMOOTH",
"303 431 OFFCURVE",
"333 428 OFFCURVE",
"360 420 CURVE",
"360 125 LINE SMOOTH",
"360 80 OFFCURVE",
"342 67 OFFCURVE",
"280 67 CURVE SMOOTH",
"146 67 LINE",
"146 176 LINE SMOOTH",
"146 221 OFFCURVE",
"164 234 OFFCURVE",
"227 234 CURVE SMOOTH",
"390 234 LINE",
"390 299 LINE",
"345 299 LINE SMOOTH",
"91 299 OFFCURVE",
"55 279 OFFCURVE",
"55 140 CURVE SMOOTH",
"55 32 OFFCURVE",
"98 -10 OFFCURVE",
"208 -10 CURVE SMOOTH"
);
}
);
width = 545;
}
);
leftKerningGroup = a;
leftMetricsKey = "=o-5";
rightKerningGroup = n;
rightMetricsKey = n;
unicode = 0061;
},
{
glyphname = ae;
layers = (
{
anchors = (
{
name = bottom;
position = "{423, 0}";
},
{
name = top;
position = "{423, 500}";
}
);
background = {
paths = (
{
closed = 1;
nodes = (
"260 -15 OFFCURVE",
"320 8 OFFCURVE",
"370 50 CURVE",
"420 0 LINE",
"520 0 LINE",
"520 340 LINE SMOOTH",
"520 461 OFFCURVE",
"449 515 OFFCURVE",
"290 515 CURVE SMOOTH",
"207 515 OFFCURVE",
"126 504 OFFCURVE",
"48 481 CURVE",
"72 343 LINE",
"141 360 OFFCURVE",
"206 369 OFFCURVE",
"270 369 CURVE SMOOTH",
"291 369 OFFCURVE",
"307 368 OFFCURVE",
"320 365 CURVE",
"320 158 LINE SMOOTH",
"320 129 OFFCURVE",
"303 120 OFFCURVE",
"251 120 CURVE SMOOTH",
"209 120 LINE",
"209 178 LINE SMOOTH",
"209 210 OFFCURVE",
"226 220 OFFCURVE",
"278 220 CURVE SMOOTH",
"350 220 LINE",
"350 320 LINE",
"290 320 LINE SMOOTH",
"96 320 OFFCURVE",
"25 276 OFFCURVE",
"25 155 CURVE SMOOTH",
"25 38 OFFCURVE",
"79 -15 OFFCURVE",
"200 -15 CURVE SMOOTH"
);
},
{
closed = 1;
nodes = (
"647 -15 OFFCURVE",
"721 -3 OFFCURVE",
"792 19 CURVE",
"768 157 LINE",
"710 140 OFFCURVE",
"651 131 OFFCURVE",
"590 131 CURVE SMOOTH",
"567 131 OFFCURVE",
"543 132 OFFCURVE",
"520 135 CURVE",
"520 332 LINE SMOOTH",
"520 367 OFFCURVE",
"549 370 OFFCURVE",
"589 370 CURVE SMOOTH",
"625 370 LINE",
"625 322 LINE SMOOTH",
"625 283 OFFCURVE",
"596 280 OFFCURVE",
"556 280 CURVE SMOOTH",
"490 280 LINE",
"490 180 LINE",
"520 180 LINE SMOOTH",
"744 180 OFFCURVE",
"805 233 OFFCURVE",
"805 345 CURVE SMOOTH",
"805 478 OFFCURVE",
"746 515 OFFCURVE",
"570 515 CURVE SMOOTH",
"380 515 OFFCURVE",
"305 425 OFFCURVE",
"305 250 CURVE SMOOTH",
"305 75 OFFCURVE",
"380 -15 OFFCURVE",
"570 -15 CURVE"
);
}
);
};
layerId = "62EAF1BF-1B79-4549-96F9-774E14A065EF";
paths = (
{
closed = 1;
nodes = (
"260 -15 OFFCURVE",
"320 8 OFFCURVE",
"370 50 CURVE",
"520 50 LINE",
"520 340 LINE SMOOTH",
"520 461 OFFCURVE",
"449 515 OFFCURVE",
"290 515 CURVE SMOOTH",
"205 515 OFFCURVE",
"124 504 OFFCURVE",
"48 481 CURVE",
"72 343 LINE",
"145 361 OFFCURVE",
"210 369 OFFCURVE",
"270 369 CURVE SMOOTH",
"294 369 OFFCURVE",
"309 368 OFFCURVE",
"320 365 CURVE",
"320 158 LINE SMOOTH",
"320 129 OFFCURVE",
"303 120 OFFCURVE",
"251 120 CURVE SMOOTH",
"209 120 LINE",
"209 178 LINE SMOOTH",
"209 210 OFFCURVE",
"226 220 OFFCURVE",
"278 220 CURVE SMOOTH",
"350 220 LINE",
"350 320 LINE",
"290 320 LINE SMOOTH",
"96 320 OFFCURVE",
"25 276 OFFCURVE",
"25 155 CURVE SMOOTH",
"25 38 OFFCURVE",
"79 -15 OFFCURVE",
"200 -15 CURVE SMOOTH"
);
},
{
closed = 1;
nodes = (
"646 -15 OFFCURVE",
"720 -4 OFFCURVE",
"792 19 CURVE",
"768 157 LINE",
"708 140 OFFCURVE",
"649 131 OFFCURVE",
"590 131 CURVE SMOOTH",
"561 131 OFFCURVE",
"538 132 OFFCURVE",
"520 135 CURVE",
"520 332 LINE SMOOTH",
"520 361 OFFCURVE",
"537 370 OFFCURVE",
"589 370 CURVE SMOOTH",
"625 370 LINE",
"625 322 LINE SMOOTH",
"625 290 OFFCURVE",
"608 280 OFFCURVE",
"556 280 CURVE SMOOTH",
"490 280 LINE",
"490 180 LINE",
"520 180 LINE SMOOTH",
"729 180 OFFCURVE",
"805 224 OFFCURVE",
"805 345 CURVE SMOOTH",
"805 475 OFFCURVE",
"750 515 OFFCURVE",
"570 515 CURVE SMOOTH",
"486 515 OFFCURVE",
"425 498 OFFCURVE",
"382 463 CURVE",
"348 74 LINE",
"390 14 OFFCURVE",
"462 -15 OFFCURVE",
"570 -15 CURVE"
);
}
);
width = 845;
},
{
anchors = (
{
name = bottom;
position = "{419, 0}";
},
{
name = top;
position = "{419, 500}";
}
);
background = {
paths = (
{
closed = 1;
nodes = (
"282 -10 OFFCURVE",
"339 9 OFFCURVE",
"387 50 CURVE",
"414 0 LINE",
"460 0 LINE",
"461 370 LINE SMOOTH",
"461 473 OFFCURVE",
"412 510 OFFCURVE",
"276 510 CURVE SMOOTH",
"209 510 OFFCURVE",
"128 498 OFFCURVE",
"77 480 CURVE",
"90 407 LINE",
"151 423 OFFCURVE",
"209 431 OFFCURVE",
"259 431 CURVE SMOOTH",
"301 431 OFFCURVE",
"331 428 OFFCURVE",
"360 420 CURVE",
"360 125 LINE SMOOTH",
"360 80 OFFCURVE",
"342 67 OFFCURVE",
"280 67 CURVE SMOOTH",
"146 67 LINE",
"146 176 LINE SMOOTH",
"146 221 OFFCURVE",
"164 234 OFFCURVE",
"227 234 CURVE SMOOTH",
"390 234 LINE",
"390 299 LINE",
"345 299 LINE SMOOTH",
"91 299 OFFCURVE",
"55 279 OFFCURVE",
"55 140 CURVE SMOOTH",
"55 32 OFFCURVE",
"98 -10 OFFCURVE",
"208 -10 CURVE SMOOTH"
);
},
{
closed = 1;
nodes = (
"651 -10 OFFCURVE",
"720 8 OFFCURVE",
"754 20 CURVE",
"741 93 LINE",
"676 77 OFFCURVE",
"627 69 OFFCURVE",
"568 69 CURVE SMOOTH",
"537 69 OFFCURVE",
"502 70 OFFCURVE",
"461 80 CURVE",
"461 370 LINE SMOOTH",
"461 420 OFFCURVE",
"487 428 OFFCURVE",
"544 428 CURVE SMOOTH",
"677 428 LINE",
"677 324 LINE SMOOTH",
"677 274 OFFCURVE",
"651 266 OFFCURVE",
"593 266 CURVE SMOOTH",
"431 266 LINE",
"431 201 LINE",
"461 201 LINE SMOOTH",
"701 201 OFFCURVE",
"767 206 OFFCURVE",
"767 360 CURVE SMOOTH",
"767 485 OFFCURVE",
"716 510 OFFCURVE",
"567 510 CURVE SMOOTH",
"412 510 OFFCURVE",
"356 456 OFFCURVE",
"356 250 CURVE SMOOTH",
"356 38 OFFCURVE",
"403 -10 OFFCURVE",
"550 -10 CURVE SMOOTH"
);
}
);
};
hints = (
{
horizontal = 1;
origin = "{0, 35}";
target = "{0, 22}";
type = Stem;
},
{
horizontal = 1;
origin = "{0, 27}";
target = "{0, 28}";
type = Stem;
},
{
horizontal = 1;
origin = "{0, 7}";
target = "{0, 14}";
type = Stem;
},
{
origin = "{0, 32}";
target = "{0, 22}";
type = Stem;
},
{
origin = "{0, 18}";
target = "{0, 3}";
type = Stem;
},
{
horizontal = 1;
origin = "{1, 34}";
target = "{1, 6}";
type = Stem;
},
{
horizontal = 1;
origin = "{1, 20}";
target = "{1, 19}";
type = Stem;
},
{
horizontal = 1;
origin = "{1, 27}";
target = "{1, 13}";
type = Stem;
},
{
origin = "{0, 18}";
target = "{1, 9}";
type = Stem;
},
{
origin = "{1, 15}";
target = "{1, 24}";
type = Stem;
},
{
horizontal = 1;
origin = "{0, 35}";
target = up;
type = BottomGhost;
},
{
horizontal = 1;
origin = "{0, 7}";
target = down;
type = TopGhost;
}
);
layerId = "CF2D4400-0F4D-4A72-A30C-ABA3B96311EF";
paths = (
{
closed = 1;
nodes = (
"286 -10 OFFCURVE",
"345 11 OFFCURVE",
"395 57 CURVE",
"461 50 LINE",
"461 370 LINE SMOOTH",
"461 473 OFFCURVE",
"412 510 OFFCURVE",
"276 510 CURVE SMOOTH",
"207 510 OFFCURVE",
"126 498 OFFCURVE",
"77 480 CURVE",
"90 407 LINE",
"149 423 OFFCURVE",
"207 431 OFFCURVE",
"259 431 CURVE SMOOTH",
"303 431 OFFCURVE",
"333 428 OFFCURVE",
"360 420 CURVE",
"360 125 LINE SMOOTH",
"360 80 OFFCURVE",
"342 67 OFFCURVE",
"280 67 CURVE SMOOTH",
"146 67 LINE",
"146 176 LINE SMOOTH",
"146 221 OFFCURVE",
"164 234 OFFCURVE",
"227 234 CURVE SMOOTH",
"390 234 LINE",
"390 299 LINE",
"345 299 LINE SMOOTH",
"91 299 OFFCURVE",
"55 279 OFFCURVE",
"55 140 CURVE SMOOTH",
"55 32 OFFCURVE",
"98 -10 OFFCURVE",
"208 -10 CURVE SMOOTH"
);
},
{
closed = 1;
nodes = (
"625 -10 OFFCURVE",
"702 1 OFFCURVE",
"754 20 CURVE",
"741 93 LINE",
"668 75 OFFCURVE",
"621 69 OFFCURVE",
"568 69 CURVE SMOOTH",
"523 69 OFFCURVE",
"492 72 OFFCURVE",
"461 80 CURVE",
"461 370 LINE SMOOTH",
"461 415 OFFCURVE",
"480 428 OFFCURVE",
"544 428 CURVE SMOOTH",
"677 428 LINE",
"677 324 LINE SMOOTH",
"677 279 OFFCURVE",
"658 266 OFFCURVE",
"593 266 CURVE SMOOTH",
"431 266 LINE",
"431 201 LINE",
"461 201 LINE SMOOTH",
"729 201 OFFCURVE",
"767 221 OFFCURVE",
"767 360 CURVE SMOOTH",
"767 478 OFFCURVE",
"725 510 OFFCURVE",
"567 510 CURVE SMOOTH",
"478 510 OFFCURVE",
"428 492 OFFCURVE",
"397 449 CURVE",
"377 77 LINE",
"402 14 OFFCURVE",
"449 -10 OFFCURVE",
"550 -10 CURVE SMOOTH"
);
}
);
width = 837;
}
);
leftKerningGroup = a;
leftMetricsKey = a;
rightKerningGroup = e;
rightMetricsKey = e;
unicode = 00E6;
},
{
glyphname = b;
layers = (
{
background = {
paths = (
{
closed = 1;
nodes = (
"50 25 LINE",
"150 -8 OFFCURVE",
"232 -15 OFFCURVE",
"309 -15 CURVE SMOOTH",
"469 -15 OFFCURVE",
"565 55 OFFCURVE",
"565 250 CURVE SMOOTH",
"565 375 OFFCURVE",
"521 515 OFFCURVE",
"350 515 CURVE SMOOTH",
"309 515 OFFCURVE",
"276 510 OFFCURVE",
"250 499 CURVE",
"250 665 LINE",
"50 650 LINE"
);
},
{
closed = 1;
nodes = (
"250 332 LINE",
"252 366 OFFCURVE",
"281 369 OFFCURVE",
"319 369 CURVE SMOOTH",
"350 369 LINE",
"350 173 LINE SMOOTH",
"350 134 OFFCURVE",
"321 131 OFFCURVE",
"281 131 CURVE SMOOTH",
"250 131 LINE"
);
}
);
};
layerId = "62EAF1BF-1B79-4549-96F9-774E14A065EF";
paths = (
{
closed = 1;
nodes = (
"202 515 OFFCURVE",
"135 432 OFFCURVE",
"135 250 CURVE SMOOTH",
"135 68 OFFCURVE",
"190 -15 OFFCURVE",
"310 -15 CURVE SMOOTH",
"487 -15 OFFCURVE",
"565 66 OFFCURVE",
"565 250 CURVE SMOOTH",
"565 434 OFFCURVE",
"499 515 OFFCURVE",
"350 515 CURVE SMOOTH"
);
},
{
closed = 1;
nodes = (
"350 163 LINE SMOOTH",
"350 142 OFFCURVE",
"341 135 OFFCURVE",
"311 135 CURVE SMOOTH",
"250 135 LINE",
"250 337 LINE SMOOTH",
"250 358 OFFCURVE",
"259 365 OFFCURVE",
"289 365 CURVE SMOOTH",
"350 365 LINE"
);
},
{
closed = 1;
nodes = (
"50 25 LINE",
"132 -4 OFFCURVE",
"206 -15 OFFCURVE",
"310 -15 CURVE",
"250 95 LINE",
"250 135 LINE",
"250 665 LINE",
"50 650 LINE"
);
}
);
width = 595;
},
{
background = {
paths = (
{
closed = 1;
nodes = (
"292 510 OFFCURVE",
"228 487 OFFCURVE",
"191 456 CURVE",
"191 665 LINE",
"101 655 LINE",
"101 18 LINE",
"148 -1 OFFCURVE",
"229 -10 OFFCURVE",
"294 -10 CURVE SMOOTH",
"449 -10 OFFCURVE",
"506 49 OFFCURVE",
"506 250 CURVE SMOOTH",
"506 461 OFFCURVE",
"461 510 OFFCURVE",
"344 510 CURVE SMOOTH"
);
},
{
closed = 1;
nodes = (
"201 81 LINE",
"201 351 LINE SMOOTH",
"201 401 OFFCURVE",
"226 409 OFFCURVE",
"280 409 CURVE SMOOTH",
"397 409 LINE",
"397 139 LINE SMOOTH",
"397 89 OFFCURVE",
"372 81 OFFCURVE",
"318 81 CURVE SMOOTH"
);
}
);
};
hints = (
{
horizontal = 1;
origin = "{0, 5}";
target = "{1, 4}";
type = Stem;
},
{
horizontal = 1;
origin = "{0, 11}";
target = "{1, 8}";
type = Stem;
},
{
origin = "{1, 0}";
target = "{0, 8}";
type = Stem;
},
{
horizontal = 1;
origin = "{0, 5}";
target = up;
type = BottomGhost;
},
{
origin = "{2, 7}";
target = "{2, 6}";
type = Stem;
},
{
horizontal = 1;
origin = "{0, 11}";
target = down;
type = TopGhost;
}
);
layerId = "CF2D4400-0F4D-4A72-A30C-ABA3B96311EF";
paths = (
{
closed = 1;
nodes = (
"157 515 OFFCURVE",
"125 473 OFFCURVE",
"125 250 CURVE SMOOTH",
"125 30 OFFCURVE",
"154 -10 OFFCURVE",
"309 -10 CURVE SMOOTH",
"471 -10 OFFCURVE",
"509 40 OFFCURVE",
"509 250 CURVE SMOOTH",
"509 463 OFFCURVE",
"473 515 OFFCURVE",
"329 515 CURVE SMOOTH"
);
},
{
closed = 1;
nodes = (
"404 92 LINE SMOOTH",
"404 77 OFFCURVE",
"393 72 OFFCURVE",
"358 72 CURVE SMOOTH",
"190 72 LINE",
"190 408 LINE SMOOTH",
"190 428 OFFCURVE",
"200 433 OFFCURVE",
"236 433 CURVE SMOOTH",
"404 433 LINE"
);
},
{
closed = 1;
nodes = (
"90 21 LINE",
"167 -1 OFFCURVE",
"228 -10 OFFCURVE",
"309 -10 CURVE",
"190 52 LINE",
"190 100 LINE",
"190 677 LINE",
"90 665 LINE"
);
}
);
width = 569;
}
);
leftKerningGroup = h;
leftMetricsKey = n;
rightKerningGroup = o;
rightMetricsKey = o;
unicode = 0062;
},
{
glyphname = c;
layers = (
{
anchors = (
{
name = bottom;
position = "{255, 0}";
},
{
name = top;
position = "{245, 500}";
}
);
background = {
paths = (
{
closed = 0;
nodes = (
"423 491 LINE",
"434 19 LINE"
);
}
);
};
layerId = "62EAF1BF-1B79-4549-96F9-774E14A065EF";
paths = (
{
closed = 1;
nodes = (
"322 -15 OFFCURVE",
"383 -4 OFFCURVE",
"439 19 CURVE",
"422 157 LINE",
"383 139 OFFCURVE",
"342 131 OFFCURVE",
"296 131 CURVE SMOOTH",
"272 131 OFFCURVE",
"257 132 OFFCURVE",
"245 135 CURVE",
"245 296 LINE SMOOTH",
"245 349 OFFCURVE",
"264 369 OFFCURVE",
"313 369 CURVE SMOOTH",
"350 369 OFFCURVE",
"382 365 OFFCURVE",
"412 356 CURVE",
"429 494 LINE",
"398 505 OFFCURVE",
"317 515 OFFCURVE",
"258 515 CURVE SMOOTH",
"100 515 OFFCURVE",
"30 433 OFFCURVE",
"30 250 CURVE SMOOTH",
"30 67 OFFCURVE",
"101 -15 OFFCURVE",
"258 -15 CURVE SMOOTH"
);
}
);
width = 449;
},
{
anchors = (
{
name = bottom;
position = "{237, 0}";
},
{
name = top;
position = "{247, 500}";
}
);
background = {
paths = (
{
closed = 0;
nodes = (
"381 416 LINE",
"392 492 LINE"
);
}
);
};
hints = (
{
horizontal = 1;
origin = "{0, 26}";
target = "{0, 6}";
type = Stem;
},
{
horizontal = 1;
origin = "{0, 20}";
target = "{0, 13}";
type = Stem;
},
{
horizontal = 1;
origin = "{0, 20}";
target = down;
type = TopGhost;
},
{
origin = "{0, 23}";
target = "{0, 10}";
type = Stem;
},
{
horizontal = 1;
origin = "{0, 26}";
target = up;
type = BottomGhost;
},
{
horizontal = 1;
origin = "{0, 20}";
target = down;
type = TopGhost;
}
);
layerId = "CF2D4400-0F4D-4A72-A30C-ABA3B96311EF";
paths = (
{
closed = 1;
nodes = (
"304 -10 OFFCURVE",
"368 1 OFFCURVE",
"413 20 CURVE",
"402 93 LINE",
"344 75 OFFCURVE",
"308 69 OFFCURVE",
"266 69 CURVE SMOOTH",
"220 69 OFFCURVE",
"190 72 OFFCURVE",
"164 80 CURVE",
"164 347 LINE SMOOTH",
"164 409 OFFCURVE",
"186 431 OFFCURVE",
"251 431 CURVE SMOOTH",
"297 431 OFFCURVE",
"342 426 OFFCURVE",
"390 416 CURVE",
"402 492 LINE",
"359 503 OFFCURVE",
"294 510 OFFCURVE",
"240 510 CURVE SMOOTH",
"96 510 OFFCURVE",
"60 459 OFFCURVE",
"60 250 CURVE SMOOTH",
"60 42 OFFCURVE",
"96 -10 OFFCURVE",
"240 -10 CURVE SMOOTH"
);
}
);
width = 453;
}
);
leftKerningGroup = o;
leftMetricsKey = o;
rightKerningGroup = c;
rightMetricsKey = "=o-20";
unicode = 0063;
},
{
glyphname = d;
layers = (
{
anchors = (
{
name = bottom;
position = "{298, 0}";
},
{
name = center;
position = "{445, 585}";
},
{
name = top;
position = "{298, 500}";
},
{
name = topright;
position = "{545, 500}";
}
);
background = {
paths = (
{
closed = 1;
nodes = (
"545 0 LINE",
"545 665 LINE",
"345 650 LINE",
"345 500 LINE",
"230 500 LINE SMOOTH",
"59 500 OFFCURVE",
"30 353 OFFCURVE",
"30 250 CURVE SMOOTH",
"30 125 OFFCURVE",
"74 -15 OFFCURVE",
"245 -15 CURVE SMOOTH",
"324 -15 OFFCURVE",
"373 4 OFFCURVE",
"402 42 CURVE",
"445 0 LINE"
);
},
{
closed = 1;
nodes = (
"245 327 LINE SMOOTH",
"245 366 OFFCURVE",
"274 369 OFFCURVE",
"314 369 CURVE SMOOTH",
"345 369 LINE",
"345 167 LINE",
"342 134 OFFCURVE",
"314 131 OFFCURVE",
"276 131 CURVE SMOOTH",
"245 131 LINE"
);
}
);
};
layerId = "62EAF1BF-1B79-4549-96F9-774E14A065EF";
paths = (
{
closed = 1;
nodes = (
"96 515 OFFCURVE",
"30 434 OFFCURVE",
"30 250 CURVE SMOOTH",
"30 66 OFFCURVE",
"96 -15 OFFCURVE",
"245 -15 CURVE SMOOTH",
"393 -15 OFFCURVE",
"460 68 OFFCURVE",
"460 250 CURVE SMOOTH",
"460 432 OFFCURVE",
"393 515 OFFCURVE",
"245 515 CURVE SMOOTH"
);
},
{
closed = 1;
nodes = (
"345 163 LINE SMOOTH",
"345 142 OFFCURVE",
"336 135 OFFCURVE",
"306 135 CURVE SMOOTH",
"245 135 LINE",
"245 337 LINE SMOOTH",
"245 358 OFFCURVE",
"254 365 OFFCURVE",
"284 365 CURVE SMOOTH",
"345 365 LINE"
);
},
{
closed = 1;
nodes = (
"345 650 LINE",
"345 135 LINE",
"445 0 LINE",
"545 0 LINE",
"545 665 LINE"
);
}
);
width = 595;
},
{
anchors = (
{
name = bottom;
position = "{282, 0}";
},
{
name = center;
position = "{429, 589}";
},
{
name = top;
position = "{282, 500}";
},
{
name = topright;
position = "{479, 500}";
}
);
background = {
paths = (
{
closed = 1;
nodes = (
"296 -15 OFFCURVE",
"348 9 OFFCURVE",
"385 50 CURVE",
"432 0 LINE",
"518 0 LINE",
"518 665 LINE",
"359 653 LINE",
"359 500 LINE",
"268 500 LINE SMOOTH",
"104 500 OFFCURVE",
"41 413 OFFCURVE",
"41 242 CURVE SMOOTH",
"41 71 OFFCURVE",
"104 -15 OFFCURVE",
"225 -15 CURVE SMOOTH"
);
},
{
closed = 1;
nodes = (
"359 172 LINE SMOOTH",
"359 96 OFFCURVE",
"318 91 OFFCURVE",
"262 91 CURVE SMOOTH",
"203 91 LINE",
"203 317 LINE SMOOTH",
"203 394 OFFCURVE",
"244 399 OFFCURVE",
"299 399 CURVE SMOOTH",
"359 399 LINE"
);
},
{
closed = 1;
nodes = (
"379 172 LINE SMOOTH",
"379 96 OFFCURVE",
"338 91 OFFCURVE",
"282 91 CURVE SMOOTH",
"183 91 LINE",
"183 317 LINE SMOOTH",
"183 394 OFFCURVE",
"224 399 OFFCURVE",
"279 399 CURVE SMOOTH",
"379 399 LINE"
);
}
);
};
hints = (
{
horizontal = 1;
origin = "{0, 5}";
target = "{1, 4}";
type = Stem;
},
{
horizontal = 1;
origin = "{0, 11}";
target = "{1, 8}";
type = Stem;
},
{
origin = "{0, 2}";
target = "{1, 4}";
type = Stem;
},
{
origin = "{2, 0}";
target = "{2, 4}";
type = Stem;
},
{
horizontal = 1;
origin = "{0, 5}";
target = up;
type = BottomGhost;
},
{
horizontal = 1;
origin = "{0, 11}";
target = down;
type = TopGhost;
}
);
layerId = "CF2D4400-0F4D-4A72-A30C-ABA3B96311EF";
paths = (
{
closed = 1;
nodes = (
"96 511 OFFCURVE",
"60 459 OFFCURVE",
"60 250 CURVE SMOOTH",
"60 36 OFFCURVE",
"94 -14 OFFCURVE",
"240 -15 CURVE SMOOTH",
"412 -16 OFFCURVE",
"444 26 OFFCURVE",
"444 250 CURVE SMOOTH",
"444 469 OFFCURVE",
"412 509 OFFCURVE",
"240 510 CURVE SMOOTH"
);
},
{
closed = 1;
nodes = (
"379 92 LINE SMOOTH",
"379 72 OFFCURVE",
"369 67 OFFCURVE",
"333 67 CURVE SMOOTH",
"165 67 LINE",
"165 403 LINE SMOOTH",
"165 423 OFFCURVE",
"175 428 OFFCURVE",
"211 428 CURVE SMOOTH",
"379 428 LINE"
);
},
{
closed = 1;
nodes = (
"379 665 LINE",
"379 100 LINE",
"433 0 LINE",
"479 0 LINE",
"479 677 LINE"
);
}
);
width = 569;
}
);
leftKerningGroup = o;
leftMetricsKey = o;
rightKerningGroup = l;
rightMetricsKey = "=|h";
unicode = 0064;
},
{
glyphname = eth;
layers = (
{
background = {
paths = (
{
closed = 0;
nodes = (
"451 662 LINE",
"528 539 OFFCURVE",
"562 415 OFFCURVE",
"562 292 CURVE"
);
}
);
};
components = (
{
name = slashshortcomb;
transform = "{1, 0, 0, 1, 231, 236}";
}
);
layerId = "62EAF1BF-1B79-4549-96F9-774E14A065EF";
paths = (
{
closed = 1;
nodes = (
"477 -15 OFFCURVE",
"560 69 OFFCURVE",
"560 255 CURVE SMOOTH",
"560 295 LINE",
"438 445 LINE",
"295 445 LINE SMOOTH",
"112 445 OFFCURVE",
"30 373 OFFCURVE",
"30 215 CURVE SMOOTH",
"30 57 OFFCURVE",
"113 -15 OFFCURVE",
"295 -15 CURVE SMOOTH"
);
},
{
closed = 1;
nodes = (
"245 267 LINE SMOOTH",
"245 288 OFFCURVE",
"254 295 OFFCURVE",
"284 295 CURVE SMOOTH",
"345 295 LINE",
"345 163 LINE SMOOTH",
"345 142 OFFCURVE",
"336 135 OFFCURVE",
"306 135 CURVE SMOOTH",
"245 135 LINE"
);
},
{
closed = 1;
nodes = (
"560 295 LINE",
"560 437 OFFCURVE",
"505 614 OFFCURVE",
"431 711 CURVE",
"247 659 LINE",
"322 556 OFFCURVE",
"365 422 OFFCURVE",
"365 295 CURVE"
);
}
);
width = 592;
},
{
background = {
paths = (
{
closed = 1;
nodes = (
"447 -10 OFFCURVE",
"489 35 OFFCURVE",
"489 215 CURVE SMOOTH",
"489 358 LINE",
"418 440 LINE",
"277 440 LINE SMOOTH",
"107 440 OFFCURVE",
"65 395 OFFCURVE",
"65 215 CURVE SMOOTH",
"65 35 OFFCURVE",
"107 -10 OFFCURVE",
"277 -10 CURVE SMOOTH"
);
},
{
closed = 1;
nodes = (
"170 333 LINE SMOOTH",
"170 353 OFFCURVE",
"180 358 OFFCURVE",
"216 358 CURVE SMOOTH",
"384 358 LINE",
"384 97 LINE SMOOTH",
"384 77 OFFCURVE",
"374 72 OFFCURVE",
"338 72 CURVE SMOOTH",
"170 72 LINE"
);
},
{
closed = 1;
nodes = (
"489 358 LINE",
"485 460 OFFCURVE",
"450 563 OFFCURVE",
"386 665 CURVE",
"291 665 LINE",
"355 563 OFFCURVE",
"390 460 OFFCURVE",
"394 358 CURVE"
);
}
);
};
components = (
{
name = slashshortcomb;
transform = "{1, 0, 0, 1, 261, 230}";
}
);
hints = (
{
horizontal = 1;
origin = "{0, 11}";
target = "{1, 9}";
type = Stem;
},
{
horizontal = 1;
origin = "{1, 3}";
target = "{0, 5}";
type = Stem;
},
{
origin = "{0, 8}";
target = "{1, 9}";
type = Stem;
},
{
origin = "{1, 5}";
target = "{0, 2}";
type = Stem;
},
{
horizontal = 1;
origin = "{0, 11}";
target = up;
type = BottomGhost;
}
);
layerId = "CF2D4400-0F4D-4A72-A30C-ABA3B96311EF";
paths = (
{
closed = 1;
nodes = (
"447 -10 OFFCURVE",
"489 35 OFFCURVE",
"489 215 CURVE SMOOTH",
"489 358 LINE",
"418 440 LINE",
"277 440 LINE SMOOTH",
"107 440 OFFCURVE",
"65 395 OFFCURVE",
"65 215 CURVE SMOOTH",
"65 35 OFFCURVE",
"107 -10 OFFCURVE",
"277 -10 CURVE SMOOTH"
);
},
{
closed = 1;
nodes = (
"170 333 LINE SMOOTH",
"170 353 OFFCURVE",
"180 358 OFFCURVE",
"216 358 CURVE SMOOTH",
"384 358 LINE",
"384 97 LINE SMOOTH",
"384 77 OFFCURVE",
"374 72 OFFCURVE",
"338 72 CURVE SMOOTH",
"170 72 LINE"
);
},
{
closed = 1;
nodes = (
"489 358 LINE",
"489 454 OFFCURVE",
"442 580 OFFCURVE",
"371 677 CURVE",
"285 653 LINE",
"356 553 OFFCURVE",
"394 450 OFFCURVE",
"394 358 CURVE"
);
}
);
width = 557;
}
);
leftKerningGroup = eth;
rightKerningGroup = eth;
unicode = 00F0;
},
{
glyphname = e;
layers = (
{
anchors = (
{
name = bottom;
position = "{275, 0}";
},
{
name = ogonek;
position = "{517, 19}";
},
{
name = top;
position = "{295, 500}";
}
);
background = {
paths = (
{
closed = 0;
nodes = (
"530 345 LINE",
"517 15 LINE"
);
}
);
};
layerId = "62EAF1BF-1B79-4549-96F9-774E14A065EF";
paths = (
{
closed = 1;
nodes = (
"373 -15 OFFCURVE",
"447 -4 OFFCURVE",
"517 19 CURVE",
"493 157 LINE",
"431 140 OFFCURVE",
"372 131 OFFCURVE",
"315 131 CURVE SMOOTH",
"281 131 OFFCURVE",
"261 132 OFFCURVE",
"245 135 CURVE",
"245 332 LINE SMOOTH",
"245 361 OFFCURVE",
"262 370 OFFCURVE",
"314 370 CURVE SMOOTH",
"350 370 LINE",
"350 322 LINE SMOOTH",
"350 290 OFFCURVE",
"333 280 OFFCURVE",
"281 280 CURVE SMOOTH",
"215 280 LINE",
"215 180 LINE",
"245 180 LINE SMOOTH",
"454 180 OFFCURVE",
"530 224 OFFCURVE",
"530 345 CURVE SMOOTH",
"530 475 OFFCURVE",
"475 515 OFFCURVE",
"295 515 CURVE SMOOTH",
"113 515 OFFCURVE",
"30 433 OFFCURVE",
"30 250 CURVE SMOOTH",
"30 68 OFFCURVE",
"113 -15 OFFCURVE",
"295 -15 CURVE"
);
}
);
width = 570;
},
{
anchors = (
{
name = bottom;
position = "{261, 0}";
},
{
name = ogonek;
position = "{458, 20}";
},
{
name = top;
position = "{271, 500}";
}
);
background = {
paths = (
{
closed = 0;
nodes = (
"458 20 LINE",
"434 167 LINE"
);
}
);
};
hints = (
{
horizontal = 1;
origin = "{0, 33}";
target = "{0, 6}";
type = Stem;
},
{
horizontal = 1;
origin = "{0, 20}";
target = "{0, 19}";
type = Stem;
},
{
horizontal = 1;
origin = "{0, 27}";
target = "{0, 13}";
type = Stem;
},
{
origin = "{0, 30}";
target = "{0, 9}";
type = Stem;
},
{
origin = "{0, 15}";
target = "{0, 24}";
type = Stem;
},
{
horizontal = 1;
origin = "{0, 33}";
target = up;
type = BottomGhost;
},
{
horizontal = 1;
origin = "{0, 27}";
target = down;
type = TopGhost;
}
);
layerId = "CF2D4400-0F4D-4A72-A30C-ABA3B96311EF";
paths = (
{
closed = 1;
nodes = (
"331 -10 OFFCURVE",
"408 1 OFFCURVE",
"458 20 CURVE",
"445 93 LINE",
"372 75 OFFCURVE",
"325 69 OFFCURVE",
"272 69 CURVE SMOOTH",
"225 69 OFFCURVE",
"194 72 OFFCURVE",
"165 80 CURVE",
"165 370 LINE SMOOTH",
"165 415 OFFCURVE",
"184 428 OFFCURVE",
"248 428 CURVE SMOOTH",
"381 428 LINE",
"381 324 LINE SMOOTH",
"381 279 OFFCURVE",
"362 266 OFFCURVE",
"297 266 CURVE SMOOTH",
"135 266 LINE",
"135 201 LINE",
"165 201 LINE SMOOTH",
"433 201 OFFCURVE",
"471 221 OFFCURVE",
"471 360 CURVE SMOOTH",
"471 478 OFFCURVE",
"429 510 OFFCURVE",
"271 510 CURVE SMOOTH",
"110 510 OFFCURVE",
"60 448 OFFCURVE",
"60 250 CURVE SMOOTH",
"60 45 OFFCURVE",
"101 -10 OFFCURVE",
"254 -10 CURVE SMOOTH"
);
}
);
width = 541;
}
);
leftKerningGroup = o;
leftMetricsKey = o;
rightKerningGroup = e;
rightMetricsKey = "=o+10";
unicode = 0065;
},
{
glyphname = f;
layers = (
{
background = {
paths = (
{
closed = 1;
nodes = (
"280 542 LINE",
"362 534 LINE",
"373 665 LINE",
"332 671 OFFCURVE",
"295 675 OFFCURVE",
"263 675 CURVE SMOOTH",
"154 675 OFFCURVE",
"94 636 OFFCURVE",
"87 560 CURVE SMOOTH",
"80 484 LINE",
"80 0 LINE",
"280 0 LINE"
);
}
);
};
layerId = "62EAF1BF-1B79-4549-96F9-774E14A065EF";
paths = (
{
closed = 1;
nodes = (
"280 552 LINE",
"362 544 LINE",
"373 665 LINE",
"329 672 OFFCURVE",
"294 675 OFFCURVE",
"263 675 CURVE SMOOTH",
"132 675 OFFCURVE",
"85 631 OFFCURVE",
"80 500 CURVE",
"80 0 LINE",
"280 0 LINE"
);
},
{
closed = 1;
nodes = (
"30 500 LINE",
"30 371 LINE",
"340 371 LINE",
"340 500 LINE"
);
}
);
width = 358;
},
{
background = {
paths = (
{
closed = 1;
nodes = (
"220 592 LINE",
"322 584 LINE",
"333 665 LINE",
"314 670 OFFCURVE",
"290 675 OFFCURVE",
"260 675 CURVE SMOOTH",
"159 675 OFFCURVE",
"135 636 OFFCURVE",
"127 560 CURVE SMOOTH",
"120 500 LINE",
"50 500 LINE",
"50 420 LINE",
"120 420 LINE",
"120 0 LINE",
"220 0 LINE",
"220 420 LINE",
"300 420 LINE",
"300 500 LINE",
"220 500 LINE"
);
}
);
};
hints = (
{
horizontal = 1;
origin = "{1, 0}";
target = "{1, 1}";
type = Stem;
},
{
origin = "{0, 9}";
target = "{0, 10}";
type = Stem;
},
{
horizontal = 1;
origin = "{0, 0}";
target = "{0, 5}";
type = Stem;
},
{
horizontal = 1;
origin = "{0, 9}";
target = up;
type = BottomGhost;
},
{
horizontal = 1;
origin = "{0, 5}";
target = down;
type = TopGhost;
}
);
layerId = "CF2D4400-0F4D-4A72-A30C-ABA3B96311EF";
paths = (
{
closed = 1;
nodes = (
"220 602 LINE",
"327 593 LINE",
"333 665 LINE",
"302 672 OFFCURVE",
"271 675 OFFCURVE",
"241 675 CURVE SMOOTH",
"154 675 OFFCURVE",
"127 634 OFFCURVE",
"120 494 CURVE",
"120 0 LINE",
"220 0 LINE"
);
},
{
closed = 1;
nodes = (
"50 500 LINE",
"50 431 LINE",
"300 431 LINE",
"300 500 LINE"
);
}
);
width = 333;
}
);
leftKerningGroup = f;
rightKerningGroup = f;
unicode = 0066;
},
{
glyphname = g;
layers = (
{
anchors = (
{
name = bottom;
position = "{277, -175}";
},
{
name = top;
position = "{274, 500}";
}
);
background = {
paths = (
{
closed = 1;
nodes = (
"365 507 LINE",
"337 512 OFFCURVE",
"303 515 OFFCURVE",
"266 515 CURVE SMOOTH",
"87 515 OFFCURVE",
"15 457 OFFCURVE",
"15 334 CURVE SMOOTH",
"15 213 OFFCURVE",
"78 167 OFFCURVE",
"179 154 CURVE",
"294 152 LINE",
"452 159 OFFCURVE",
"499 210 OFFCURVE",
"499 318 CURVE SMOOTH",
"499 360 OFFCURVE",
"493 394 OFFCURVE",
"481 420 CURVE"
);
},
{
closed = 1;
nodes = (
"203 340 LINE SMOOTH",
"203 379 OFFCURVE",
"232 382 OFFCURVE",
"272 382 CURVE SMOOTH",
"303 382 LINE",
"303 317 LINE SMOOTH",
"303 278 OFFCURVE",
"274 275 OFFCURVE",
"234 275 CURVE SMOOTH",
"203 275 LINE"
);
},
{
closed = 1;
nodes = (
"167 172 LINE",
"132 71 LINE",
"132 49 OFFCURVE",
"135 22 OFFCURVE",
"296 22 CURVE",
"296 -13 LINE",
"282 -15 OFFCURVE",
"265 -15 OFFCURVE",
"248 -15 CURVE SMOOTH",
"182 -15 OFFCURVE",
"105 -5 OFFCURVE",
"49 14 CURVE",
"23 -135 LINE",
"93 -153 OFFCURVE",
"169 -165 OFFCURVE",
"242 -165 CURVE SMOOTH",
"378 -165 OFFCURVE",
"512 -151 OFFCURVE",
"512 0 CURVE SMOOTH",
"512 100 OFFCURVE",
"450 122 OFFCURVE",
"315 130 CURVE",
"322 170 LINE"
);
},
{
closed = 1;
nodes = (
"476 396 LINE",
"543 475 LINE",
"438 576 LINE",
"338 499 LINE"
);
}
);
};
layerId = "62EAF1BF-1B79-4549-96F9-774E14A065EF";
paths = (
{
closed = 1;
nodes = (
"429 143 OFFCURVE",
"501 199 OFFCURVE",
"501 329 CURVE SMOOTH",
"501 459 OFFCURVE",
"429 515 OFFCURVE",
"262 515 CURVE SMOOTH",
"98 515 OFFCURVE",
"25 457 OFFCURVE",
"25 329 CURVE SMOOTH",
"25 201 OFFCURVE",
"98 143 OFFCURVE",
"262 143 CURVE SMOOTH"
);
},
{
closed = 1;
nodes = (
"215 381 LINE SMOOTH",
"215 406 OFFCURVE",
"223 413 OFFCURVE",
"247 413 CURVE SMOOTH",
"311 413 LINE",
"311 277 LINE SMOOTH",
"311 254 OFFCURVE",
"302 245 OFFCURVE",
"277 245 CURVE SMOOTH",
"215 245 LINE"
);
},
{
closed = 1;
nodes = (
"507 67 OFFCURVE",
"463 99 OFFCURVE",
"315 120 CURVE",
"319 170 LINE",
"189 172 LINE",
"152 61 LINE",
"152 36 OFFCURVE",
"202 22 OFFCURVE",
"327 12 CURVE",
"327 -24 LINE",
"297 -27 OFFCURVE",
"269 -29 OFFCURVE",
"237 -29 CURVE SMOOTH",
"178 -29 OFFCURVE",
"119 -20 OFFCURVE",
"59 -3 CURVE",
"35 -141 LINE",
"113 -164 OFFCURVE",
"194 -175 OFFCURVE",
"277 -175 CURVE SMOOTH",
"436 -175 OFFCURVE",
"507 -127 OFFCURVE",
"507 -20 CURVE SMOOTH"
);
},
{
closed = 1;
nodes = (
"543 485 LINE",
"448 576 LINE",
"348 499 LINE",
"449 362 LINE"
);
}
);
width = 548;
},
{
anchors = (
{
name = bottom;
position = "{247, -165}";
},
{
name = top;
position = "{253, 500}";
}
);
background = {
paths = (
{
closed = 1;
nodes = (
"269 160 LINE",
"154 164 LINE",
"116 38 LINE",
"116 17 OFFCURVE",
"159 -8 OFFCURVE",
"286 -8 CURVE",
"286 -53 LINE",
"275 -55 OFFCURVE",
"263 -55 OFFCURVE",
"250 -55 CURVE SMOOTH",
"201 -55 OFFCURVE",
"89 -46 OFFCURVE",
"33 -29 CURVE",
"13 -135 LINE",
"73 -156 OFFCURVE",
"157 -165 OFFCURVE",
"212 -165 CURVE SMOOTH",
"338 -165 OFFCURVE",
"462 -153 OFFCURVE",
"462 -21 CURVE SMOOTH",
"462 67 OFFCURVE",
"391 87 OFFCURVE",
"263 94 CURVE"
);
},
{
closed = 1;
nodes = (
"153 370 LINE SMOOTH",
"153 409 OFFCURVE",
"182 412 OFFCURVE",
"222 412 CURVE SMOOTH",
"303 412 LINE",
"303 277 LINE SMOOTH",
"303 238 OFFCURVE",
"274 235 OFFCURVE",
"234 235 CURVE SMOOTH",
"153 235 LINE"
);
},
{
closed = 1;
nodes = (
"5 196 OFFCURVE",
"68 131 OFFCURVE",
"228 131 CURVE SMOOTH",
"388 131 OFFCURVE",
"451 196 OFFCURVE",
"451 322 CURVE SMOOTH",
"451 449 OFFCURVE",
"388 515 OFFCURVE",
"228 515 CURVE SMOOTH",
"68 515 OFFCURVE",
"5 449 OFFCURVE",
"5 322 CURVE SMOOTH"
);
},
{
closed = 1;
nodes = (
"315 495 LINE",
"421 421 LINE",
"478 488 LINE",
"402 562 LINE"
);
}
);
};
hints = (
{
horizontal = 1;
origin = "{2, 19}";
target = "{2, 12}";
type = Stem;
},
{
horizontal = 1;
place = "{148, 64}";
type = Stem;
},
{
horizontal = 1;
origin = "{1, 3}";
target = "{0, 5}";
type = Stem;
},
{
origin = "{0, 8}";
target = "{1, 9}";
type = Stem;
},
{
origin = "{2, 9}";
target = "{2, 22}";
type = Stem;
},
{
origin = "{1, 5}";
target = "{0, 2}";
type = Stem;
},
{
horizontal = 1;
origin = "{0, 5}";
target = down;
type = TopGhost;
}
);
layerId = "CF2D4400-0F4D-4A72-A30C-ABA3B96311EF";
paths = (
{
closed = 1;
nodes = (
"392 146 OFFCURVE",
"440 191 OFFCURVE",
"440 330 CURVE SMOOTH",
"440 469 OFFCURVE",
"391 515 OFFCURVE",
"242 515 CURVE SMOOTH",
"93 515 OFFCURVE",
"45 469 OFFCURVE",
"45 330 CURVE SMOOTH",
"45 190 OFFCURVE",
"93 146 OFFCURVE",
"242 146 CURVE SMOOTH"
);
},
{
closed = 1;
nodes = (
"144 387 LINE SMOOTH",
"144 434 OFFCURVE",
"162 449 OFFCURVE",
"217 449 CURVE SMOOTH",
"341 449 LINE",
"341 274 LINE SMOOTH",
"341 227 OFFCURVE",
"323 212 OFFCURVE",
"268 212 CURVE SMOOTH",
"144 212 LINE"
);
},
{
closed = 1;
nodes = (
"446 39 OFFCURVE",
"417 56 OFFCURVE",
"257 74 CURVE",
"263 160 LINE",
"199 160 LINE",
"169 45 LINE",
"169 22 OFFCURVE",
"221 10 OFFCURVE",
"357 2 CURVE",
"357 -72 LINE",
"320 -80 OFFCURVE",
"283 -83 OFFCURVE",
"229 -83 CURVE SMOOTH",
"178 -83 OFFCURVE",
"134 -76 OFFCURVE",
"66 -59 CURVE",
"53 -135 LINE",
"102 -154 OFFCURVE",
"175 -165 OFFCURVE",
"247 -165 CURVE SMOOTH",
"394 -165 OFFCURVE",
"446 -132 OFFCURVE",
"446 -39 CURVE SMOOTH"
);
},
{
closed = 1;
nodes = (
"481 503 LINE",
"431 552 LINE",
"346 487 LINE",
"405 415 LINE"
);
}
);
width = 506;
}
);
leftKerningGroup = g;
rightKerningGroup = g;
unicode = 0067;
},
{
glyphname = h;
layers = (
{
anchors = (
{
name = bottom;
position = "{298, 0}";
},
{
name = center;
position = "{150, 564}";
},
{
name = top;
position = "{150, 645}";
}
);
layerId = "62EAF1BF-1B79-4549-96F9-774E14A065EF";
paths = (
{
closed = 1;
nodes = (
"250 0 LINE",
"250 308 LINE SMOOTH",
"250 340 OFFCURVE",
"267 350 OFFCURVE",
"319 350 CURVE SMOOTH",
"350 350 LINE",
"350 0 LINE",
"550 0 LINE",
"550 400 LINE SMOOTH",
"550 472 OFFCURVE",
"494 515 OFFCURVE",
"400 515 CURVE SMOOTH",
"342 515 OFFCURVE",
"288 504 OFFCURVE",
"246 482 CURVE",
"246 665 LINE",
"50 650 LINE",
"50 0 LINE"
);
}
);
width = 595;
},
{
anchors = (
{
name = bottom;
position = "{288, 0}";
},
{
name = center;
position = "{140, 577}";
},
{
name = top;
position = "{140, 625}";
}
);
background = {
paths = (
{
closed = 1;
nodes = (
"51 0 LINE",
"211 0 LINE",
"211 320 LINE SMOOTH",
"211 390 OFFCURVE",
"250 398 OFFCURVE",
"298 398 CURVE SMOOTH",
"352 398 LINE",
"352 0 LINE",
"511 0 LINE",
"511 410 LINE SMOOTH",
"511 491 OFFCURVE",
"466 515 OFFCURVE",
"390 515 CURVE SMOOTH",
"332 515 OFFCURVE",
"268 497 OFFCURVE",
"201 460 CURVE",
"201 665 LINE",
"51 654 LINE"
);
},
{
closed = 1;
nodes = (
"51 0 LINE",
"211 0 LINE",
"211 320 LINE SMOOTH",
"211 390 OFFCURVE",
"250 398 OFFCURVE",
"298 398 CURVE SMOOTH",
"352 398 LINE",
"352 0 LINE",
"511 0 LINE",
"511 410 LINE SMOOTH",
"511 491 OFFCURVE",
"466 515 OFFCURVE",
"390 515 CURVE SMOOTH",
"332 515 OFFCURVE",
"268 497 OFFCURVE",
"201 460 CURVE",
"201 665 LINE",
"51 654 LINE"
);
},
{
closed = 1;
nodes = (
"137 500 LINE",
"91 500 LINE",
"91 0 LINE",
"191 0 LINE",
"191 350 LINE SMOOTH",
"191 400 OFFCURVE",
"216 408 OFFCURVE",
"270 408 CURVE SMOOTH",
"371 408 LINE",
"371 0 LINE",
"471 0 LINE",
"471 410 LINE SMOOTH",
"471 491 OFFCURVE",
"434 510 OFFCURVE",
"371 510 CURVE SMOOTH",
"319 510 OFFCURVE",
"248 490 OFFCURVE",
"174 440 CURVE"
);
}
);
};
guideLines = (
{
angle = 90;
position = "{190, 185}";
}
);
hints = (
{
horizontal = 1;
origin = "{0, 17}";
target = up;
type = BottomGhost;
},
{
horizontal = 1;
origin = "{0, 11}";
target = "{0, 4}";
type = Stem;
},
{
origin = "{0, 17}";
target = "{0, 0}";
type = Stem;
},
{
origin = "{0, 6}";
target = "{0, 7}";
type = Stem;
},
{
horizontal = 1;
origin = "{0, 17}";
target = up;
type = BottomGhost;
},
{
horizontal = 1;
origin = "{0, 11}";
target = down;
type = TopGhost;
}
);
layerId = "CF2D4400-0F4D-4A72-A30C-ABA3B96311EF";
paths = (
{
closed = 1;
nodes = (
"190 0 LINE",
"190 370 LINE SMOOTH",
"190 415 OFFCURVE",
"209 428 OFFCURVE",
"275 428 CURVE SMOOTH",
"391 428 LINE",
"391 0 LINE",
"491 0 LINE",
"491 425 LINE SMOOTH",
"491 481 OFFCURVE",
"442 510 OFFCURVE",
"349 510 CURVE SMOOTH",
"280 510 OFFCURVE",
"231 497 OFFCURVE",
"188 467 CURVE",
"188 665 LINE",
"90 657 LINE",
"90 0 LINE"
);
}
);
width = 576;
}
);
leftKerningGroup = h;
leftMetricsKey = n;
rightKerningGroup = n;
rightMetricsKey = n;
unicode = 0068;
},
{
glyphname = i;
layers = (
{
components = (
{
name = idotless;
},
{
name = dotaccentcomb;
transform = "{1, 0, 0, 1, 17, 0}";
}
);
layerId = "62EAF1BF-1B79-4549-96F9-774E14A065EF";
width = 300;
},
{
background = {
paths = (
{
closed = 1;
nodes = (
"59 0 LINE",
"219 0 LINE",
"219 508 LINE",
"59 483 LINE"
);
},
{
closed = 1;
nodes = (
"48 578 OFFCURVE",
"64 560 OFFCURVE",
"140 560 CURVE SMOOTH",
"215 560 OFFCURVE",
"231 578 OFFCURVE",
"231 627 CURVE SMOOTH",
"231 676 OFFCURVE",
"215 695 OFFCURVE",
"140 695 CURVE SMOOTH",
"64 695 OFFCURVE",
"48 676 OFFCURVE",
"48 627 CURVE SMOOTH"
);
},
{
closed = 1;
nodes = (
"88 595 OFFCURVE",
"96 580 OFFCURVE",
"140 580 CURVE SMOOTH",
"183 580 OFFCURVE",
"191 595 OFFCURVE",
"191 637 CURVE SMOOTH",
"191 679 OFFCURVE",
"183 695 OFFCURVE",
"140 695 CURVE SMOOTH",
"96 695 OFFCURVE",
"88 679 OFFCURVE",
"88 637 CURVE SMOOTH"
);
}
);
};
components = (
{
name = idotless;
},
{
name = dotaccentcomb;
transform = "{1, 0, 0, 1, 9, 0}";
}
);
hints = (
{
horizontal = 1;
place = "{508, -20}";
target = down;
type = TopGhost;
},
{
horizontal = 1;
place = "{575, 120}";
type = Stem;
},
{
place = "{90, 100}";
type = Stem;
},
{
place = "{78, 124}";
type = Stem;
}
);
layerId = "CF2D4400-0F4D-4A72-A30C-ABA3B96311EF";
width = 280;
}
);
leftKerningGroup = idotless;
rightKerningGroup = idotless;
unicode = 0069;
},
{
glyphname = idotless;
layers = (
{
anchors = (
{
name = bottom;
position = "{150, 0}";
},
{
name = ogonek;
position = "{250, 0}";
},
{
name = top;
position = "{150, 500}";
}
);
layerId = "62EAF1BF-1B79-4549-96F9-774E14A065EF";
paths = (
{
closed = 1;
nodes = (
"50 0 LINE",
"250 0 LINE",
"250 500 LINE",
"50 475 LINE"
);
}
);
width = 300;
},
{
anchors = (
{
name = bottom;
position = "{140, 0}";
},
{
name = ogonek;
position = "{190, 0}";
},
{
name = top;
position = "{140, 500}";
}
);
hints = (
{
horizontal = 1;
origin = "{0, 2}";
target = down;
type = TopGhost;
},
{
origin = "{0, 0}";
target = "{0, 1}";
type = Stem;
},
{
horizontal = 1;
origin = "{0, 0}";
target = up;
type = BottomGhost;
},
{
horizontal = 1;
origin = "{0, 0}";
target = up;
type = BottomGhost;
},
{
horizontal = 1;
origin = "{0, 2}";
target = down;
type = TopGhost;
}
);
layerId = "CF2D4400-0F4D-4A72-A30C-ABA3B96311EF";
paths = (
{
closed = 1;
nodes = (
"90 0 LINE",
"190 0 LINE",
"190 508 LINE",
"90 493 LINE"
);
}
);
width = 280;
}
);
leftKerningGroup = idotless;
rightKerningGroup = idotless;
unicode = 0131;
},
{
glyphname = j;
layers = (
{
background = {
paths = (
{
closed = 1;
nodes = (
"-50 -165 LINE",
"95 -165 LINE SMOOTH",
"195 -165 OFFCURVE",
"250 -108 OFFCURVE",
"250 0 CURVE SMOOTH",
"250 500 LINE",
"50 475 LINE",
"50 15 LINE SMOOTH",
"50 -13 OFFCURVE",
"28 -20 OFFCURVE",
"2 -25 CURVE SMOOTH",
"-50 -35 LINE"
);
}
);
};
components = (
{
name = jdotless;
},
{
name = dotaccentcomb;
transform = "{1, 0, 0, 1, 17, 0}";
}
);
layerId = "62EAF1BF-1B79-4549-96F9-774E14A065EF";
width = 300;
},
{
background = {
paths = (
{
closed = 1;
nodes = (
"-10 -165 LINE",
"66 -165 LINE SMOOTH",
"146 -165 OFFCURVE",
"190 -128 OFFCURVE",
"190 -20 CURVE SMOOTH",
"190 508 LINE",
"90 493 LINE",
"90 -45 LINE SMOOTH",
"90 -73 OFFCURVE",
"78 -88 OFFCURVE",
"42 -95 CURVE SMOOTH",
"-10 -105 LINE"
);
},
{
closed = 1;
nodes = (
"80 604 OFFCURVE",
"91 590 OFFCURVE",
"142 590 CURVE SMOOTH",
"192 590 OFFCURVE",
"203 604 OFFCURVE",
"203 642 CURVE SMOOTH",
"203 680 OFFCURVE",
"192 695 OFFCURVE",
"142 695 CURVE SMOOTH",
"91 695 OFFCURVE",
"80 680 OFFCURVE",
"80 642 CURVE SMOOTH"
);
}
);
};
components = (
{
name = jdotless;
},
{
name = dotaccentcomb;
transform = "{1, 0, 0, 1, 9, 0}";
}
);
hints = (
{
horizontal = 1;
place = "{-175, 69}";
type = Stem;
},
{
horizontal = 1;
place = "{508, -20}";
target = down;
type = TopGhost;
},
{
horizontal = 1;
place = "{575, 120}";
type = Stem;
},
{
place = "{90, 100}";
type = Stem;
},
{
place = "{79, 123}";
type = Stem;
},
{
place = "{90, 100}";
type = Stem;
}
);
layerId = "CF2D4400-0F4D-4A72-A30C-ABA3B96311EF";
width = 280;
}
);
leftKerningGroup = j;
rightKerningGroup = j;
unicode = 006A;
},
{
glyphname = jdotless;
layers = (
{
anchors = (
{
name = bottom;
position = "{140, 0}";
},
{
name = top;
position = "{140, 500}";
}
);
hints = (
{
horizontal = 1;
origin = "{0, 12}";
target = "{0, 8}";
type = Stem;
},
{
origin = "{0, 5}";
target = "{0, 2}";
type = Stem;
},
{
horizontal = 1;
origin = "{0, 12}";
target = up;
type = BottomGhost;
},
{
horizontal = 1;
origin = "{0, 3}";
target = down;
type = TopGhost;
}
);
layerId = "CF2D4400-0F4D-4A72-A30C-ABA3B96311EF";
paths = (
{
closed = 1;
nodes = (
"151 -175 OFFCURVE",
"190 -138 OFFCURVE",
"190 -60 CURVE SMOOTH",
"190 508 LINE",
"90 493 LINE",
"90 -45 LINE SMOOTH",
"90 -97 OFFCURVE",
"75 -106 OFFCURVE",
"-5 -106 CURVE",
"-11 -164 LINE",
"10 -171 OFFCURVE",
"40 -175 OFFCURVE",
"66 -175 CURVE SMOOTH"
);
}
);
width = 280;
},
{
anchors = (
{
name = bottom;
position = "{150, 0}";
},
{
name = top;
position = "{150, 500}";
}
);
layerId = "62EAF1BF-1B79-4549-96F9-774E14A065EF";
paths = (
{
closed = 1;
nodes = (
"197 -180 OFFCURVE",
"250 -127 OFFCURVE",
"250 -11 CURVE SMOOTH",
"250 500 LINE",
"50 475 LINE",
"50 25 LINE SMOOTH",
"50 -25 OFFCURVE",
"31 -39 OFFCURVE",
"-40 -39 CURVE",
"-49 -164 LINE",
"-11 -174 OFFCURVE",
"39 -180 OFFCURVE",
"81 -180 CURVE SMOOTH"
);
}
);
width = 300;
}
);
leftKerningGroup = jdotless;
rightKerningGroup = jdotless;
unicode = 0237;
},
{
glyphname = k;
layers = (
{
anchors = (
{
name = bottom;
position = "{288, 0}";
},
{
name = top;
position = "{288, 500}";
}
);
layerId = "62EAF1BF-1B79-4549-96F9-774E14A065EF";
paths = (
{
closed = 1;
nodes = (
"361 0 LINE",
"570 0 LINE",
"449 262 LINE",
"565 500 LINE",
"354 500 LINE",
"282 326 LINE",
"250 326 LINE",
"250 665 LINE",
"50 650 LINE",
"50 0 LINE",
"250 0 LINE",
"250 207 LINE",
"284 207 LINE"
);
}
);
width = 575;
},
{
anchors = (
{
name = bottom;
position = "{268, 0}";
},
{
name = top;
position = "{268, 500}";
}
);
background = {
paths = (
{
closed = 0;
nodes = (
"237 267 LINE",
"365 500 LINE"
);
}
);
};
guideLines = (
{
angle = 151.682;
position = "{365, 500}";
showMeasurement = 1;
}
);
hints = (
{
horizontal = 1;
origin = "{0, 9}";
target = up;
type = BottomGhost;
},
{
horizontal = 1;
origin = "{0, 11}";
target = "{0, 6}";
type = Stem;
},
{
origin = "{0, 9}";
target = "{0, 10}";
type = Stem;
},
{
horizontal = 1;
origin = "{0, 7}";
target = down;
type = TopGhost;
},
{
horizontal = 1;
origin = "{0, 4}";
target = down;
type = TopGhost;
}
);
layerId = "CF2D4400-0F4D-4A72-A30C-ABA3B96311EF";
paths = (
{
closed = 1;
nodes = (
"382 0 LINE",
"485 0 LINE",
"352 267 LINE",
"480 500 LINE",
"375 500 LINE",
"269 302 LINE",
"190 302 LINE",
"190 665 LINE",
"90 650 LINE",
"90 0 LINE",
"190 0 LINE",
"190 232 LINE",
"269 232 LINE"
);
}
);
width = 495;
}
);
leftKerningGroup = h;
leftMetricsKey = n;
rightKerningGroup = k;
unicode = 006B;
},
{
glyphname = kgreenlandic;
layers = (
{
anchors = (
{
name = bottom;
position = "{300, 0}";
},
{
name = top;
position = "{300, 500}";
}
);
layerId = "62EAF1BF-1B79-4549-96F9-774E14A065EF";
paths = (
{
closed = 1;
nodes = (
"366 0 LINE",
"575 0 LINE",
"454 250 LINE",
"570 500 LINE",
"359 500 LINE",
"287 314 LINE",
"250 314 LINE",
"250 500 LINE",
"50 500 LINE",
"50 0 LINE",
"250 0 LINE",
"250 195 LINE",
"289 195 LINE"
);
}
);
width = 580;
},
{
anchors = (
{
name = bottom;
position = "{275, 0}";
},
{
name = top;
position = "{275, 500}";
}
);
background = {
paths = (
{
closed = 0;
nodes = (
"252 267 LINE",
"380 500 LINE"
);
}
);
};
guideLines = (
{
angle = 151.682;
position = "{380, 260}";
showMeasurement = 1;
}
);
hints = (
{
horizontal = 1;
origin = "{0, 11}";
target = "{0, 6}";
type = Stem;
},
{
origin = "{0, 9}";
target = "{0, 10}";
type = Stem;
},
{
horizontal = 1;
origin = "{0, 9}";
target = up;
type = BottomGhost;
},
{
horizontal = 1;
origin = "{0, 8}";
target = down;
type = TopGhost;
}
);
layerId = "CF2D4400-0F4D-4A72-A30C-ABA3B96311EF";
paths = (
{
closed = 1;
nodes = (
"397 0 LINE",
"500 0 LINE",
"367 250 LINE",
"495 500 LINE",
"390 500 LINE",
"284 285 LINE",
"190 285 LINE",
"190 500 LINE",
"90 500 LINE",
"90 0 LINE",
"190 0 LINE",
"190 215 LINE",
"284 215 LINE"
);
}
);
width = 510;
}
);
leftKerningGroup = h;
leftMetricsKey = n;
rightKerningGroup = k;
unicode = 0138;
},
{
glyphname = l;
layers = (
{
anchors = (
{
name = bottom;
position = "{150, 0}";
},
{
name = center;
position = "{150, 330}";
},
{
name = top;
position = "{150, 645}";
},
{
name = topright;
position = "{250, 500}";
}
);
layerId = "62EAF1BF-1B79-4549-96F9-774E14A065EF";
paths = (
{
closed = 1;
nodes = (
"250 665 LINE",
"50 650 LINE",
"50 94 LINE SMOOTH",
"50 19 OFFCURVE",
"91 -15 OFFCURVE",
"179 -15 CURVE SMOOTH",
"212 -15 OFFCURVE",
"250 -9 OFFCURVE",
"290 1 CURVE",
"299 136 LINE",
"286 137 OFFCURVE",
"270 139 OFFCURVE",
"250 143 CURVE"
);
}
);
width = 309;
},
{
anchors = (
{
name = bottom;
position = "{135, 0}";
},
{
name = center;
position = "{135, 330}";
},
{
name = top;
position = "{135, 625}";
},
{
name = topright;
position = "{185, 500}";
}
);
background = {
paths = (
{
closed = 1;
nodes = (
"215 665 LINE",
"55 650 LINE",
"55 94 LINE SMOOTH",
"55 -6 OFFCURVE",
"143 -11 OFFCURVE",
"255 -11 CURVE",
"264 98 LINE",
"248 99 OFFCURVE",
"231 101 OFFCURVE",
"215 103 CURVE"
);
}
);
};
guideLines = (
{
position = "{105, 308}";
}
);
hints = (
{
origin = "{0, 2}";
target = "{0, 12}";
type = Stem;
},
{
horizontal = 1;
origin = "{0, 5}";
target = "{0, 9}";
type = Stem;
},
{
horizontal = 1;
origin = "{0, 5}";
target = up;
type = BottomGhost;
},
{
horizontal = 1;
origin = "{0, 0}";
target = down;
type = TopGhost;
}
);
layerId = "CF2D4400-0F4D-4A72-A30C-ABA3B96311EF";
paths = (
{
closed = 1;
nodes = (
"185 665 LINE",
"85 650 LINE",
"85 65 LINE SMOOTH",
"85 14 OFFCURVE",
"109 -10 OFFCURVE",
"159 -10 CURVE SMOOTH",
"179 -10 OFFCURVE",
"198 -7 OFFCURVE",
"225 1 CURVE",
"231 69 LINE",
"215 70 OFFCURVE",
"197 72 OFFCURVE",
"185 74 CURVE"
);
}
);
width = 271;
}
);
leftKerningGroup = h;
rightKerningGroup = l;
unicode = 006C;
},
{
glyphname = lslash;
layers = (
{
components = (
{
name = l;
},
{
name = slashshortcomb;
transform = "{1, 0, 0, 1, -20, -10}";
}
);
layerId = "62EAF1BF-1B79-4549-96F9-774E14A065EF";
width = 309;
},
{
background = {
paths = (
{
closed = 1;
nodes = (
"287 329 LINE SMOOTH",
"311 337 OFFCURVE",
"329 343 OFFCURVE",
"329 359 CURVE SMOOTH",
"329 362 OFFCURVE",
"327 371 OFFCURVE",
"302 451 CURVE",
"11 356 LINE SMOOTH",
"-13 348 OFFCURVE",
"-31 341 OFFCURVE",
"-31 328 CURVE SMOOTH",
"-31 324 OFFCURVE",
"-30 320 OFFCURVE",
"-2 234 CURVE"
);
}
);
};
components = (
{
name = l;
},
{
name = slashshortcomb;
transform = "{1, 0, 0, 1, 9, -10}";
}
);
layerId = "CF2D4400-0F4D-4A72-A30C-ABA3B96311EF";
width = 271;
}
);
leftKerningGroup = h;
rightKerningGroup = l;
unicode = 0142;
},
{
glyphname = m;
layers = (
{
background = {
paths = (
{
closed = 1;
nodes = (
"330 350 LINE",
"330 0 LINE",
"530 0 LINE",
"530 310 LINE",
"532 348 OFFCURVE",
"561 350 OFFCURVE",
"596 350 CURVE SMOOTH",
"610 350 LINE",
"610 0 LINE",
"810 0 LINE",
"810 400 LINE SMOOTH",
"810 472 OFFCURVE",
"747 515 OFFCURVE",
"640 515 CURVE SMOOTH",
"583 515 OFFCURVE",
"535 499 OFFCURVE",
"498 474 CURVE",
"470 500 OFFCURVE",
"422 515 OFFCURVE",
"360 515 CURVE SMOOTH",
"290 515 OFFCURVE",
"232 491 OFFCURVE",
"195 454 CURVE",
"150 500 LINE",
"50 500 LINE",
"50 0 LINE",
"250 0 LINE",
"250 304 LINE SMOOTH",
"250 348 OFFCURVE",
"279 350 OFFCURVE",
"316 350 CURVE SMOOTH"
);
}
);
};
layerId = "62EAF1BF-1B79-4549-96F9-774E14A065EF";
paths = (
{
closed = 1;
nodes = (
"250 0 LINE",
"250 322 LINE SMOOTH",
"250 342 OFFCURVE",
"261 350 OFFCURVE",
"289 350 CURVE SMOOTH",
"340 350 LINE",
"340 0 LINE",
"540 0 LINE",
"540 400 LINE SMOOTH",
"540 472 OFFCURVE",
"484 515 OFFCURVE",
"390 515 CURVE SMOOTH",
"324 515 OFFCURVE",
"258 492 OFFCURVE",
"200 450 CURVE",
"150 500 LINE",
"50 500 LINE",
"50 0 LINE"
);
},
{
closed = 1;
nodes = (
"540 0 LINE",
"540 322 LINE SMOOTH",
"540 342 OFFCURVE",
"551 350 OFFCURVE",
"579 350 CURVE SMOOTH",
"630 350 LINE",
"630 0 LINE",
"830 0 LINE",
"830 400 LINE SMOOTH",
"830 472 OFFCURVE",
"774 515 OFFCURVE",
"680 515 CURVE SMOOTH",
"614 515 OFFCURVE",
"548 492 OFFCURVE",
"490 450 CURVE",
"340 500 LINE",
"340 0 LINE"
);
}
);
width = 875;
},
{
background = {
paths = (
{
closed = 1;
nodes = (
"191 0 LINE",
"191 403 LINE SMOOTH",
"191 421 OFFCURVE",
"203 428 OFFCURVE",
"241 428 CURVE SMOOTH",
"376 428 LINE",
"376 0 LINE",
"476 0 LINE",
"476 430 LINE SMOOTH",
"476 488 OFFCURVE",
"442 510 OFFCURVE",
"349 510 CURVE SMOOTH",
"294 510 OFFCURVE",
"226 494 OFFCURVE",
"171 467 CURVE",
"136 500 LINE",
"91 500 LINE",
"91 0 LINE"
);
},
{
closed = 1;
nodes = (
"476 0 LINE",
"476 403 LINE SMOOTH",
"476 421 OFFCURVE",
"488 428 OFFCURVE",
"526 428 CURVE SMOOTH",
"661 428 LINE",
"661 0 LINE",
"761 0 LINE",
"761 430 LINE SMOOTH",
"761 488 OFFCURVE",
"727 510 OFFCURVE",
"634 510 CURVE SMOOTH",
"579 510 OFFCURVE",
"511 494 OFFCURVE",
"456 467 CURVE",
"421 500 LINE",
"376 500 LINE",
"376 0 LINE"
);
}
);
};
hints = (
{
horizontal = 1;
origin = "{0, 17}";
target = up;
type = BottomGhost;
},
{
horizontal = 1;
origin = "{0, 11}";
target = "{0, 4}";
type = Stem;
},
{
horizontal = 1;
origin = "{0, 16}";
target = down;
type = TopGhost;
},
{
origin = "{0, 17}";
target = "{0, 0}";
type = Stem;
},
{
origin = "{0, 6}";
target = "{0, 7}";
type = Stem;
},
{
origin = "{1, 6}";
target = "{1, 7}";
type = Stem;
}
);
layerId = "CF2D4400-0F4D-4A72-A30C-ABA3B96311EF";
paths = (
{
closed = 1;
nodes = (
"190 0 LINE",
"190 370 LINE SMOOTH",
"190 415 OFFCURVE",
"209 428 OFFCURVE",
"275 428 CURVE SMOOTH",
"381 428 LINE",
"381 0 LINE",
"481 0 LINE",
"481 425 LINE SMOOTH",
"481 481 OFFCURVE",
"432 510 OFFCURVE",
"339 510 CURVE SMOOTH",
"266 510 OFFCURVE",
"211 491 OFFCURVE",
"163 450 CURVE",
"136 500 LINE",
"90 500 LINE",
"90 0 LINE"
);
},
{
closed = 1;
nodes = (
"480 0 LINE",
"480 370 LINE SMOOTH",
"480 415 OFFCURVE",
"499 428 OFFCURVE",
"565 428 CURVE SMOOTH",
"671 428 LINE",
"671 0 LINE",
"771 0 LINE",
"771 425 LINE SMOOTH",
"771 481 OFFCURVE",
"722 510 OFFCURVE",
"629 510 CURVE SMOOTH",
"556 510 OFFCURVE",
"501 491 OFFCURVE",
"453 450 CURVE",
"381 500 LINE",
"381 0 LINE"
);
}
);
width = 856;
}
);
leftKerningGroup = n;
leftMetricsKey = n;
rightKerningGroup = n;
rightMetricsKey = n;
unicode = 006D;
},
{
glyphname = n;
layers = (
{
anchors = (
{
name = bottom;
position = "{298, 0}";
},
{
name = top;
position = "{308, 500}";
}
);
layerId = "62EAF1BF-1B79-4549-96F9-774E14A065EF";
paths = (
{
closed = 1;
nodes = (
"250 0 LINE",
"250 322 LINE SMOOTH",
"250 342 OFFCURVE",
"261 350 OFFCURVE",
"289 350 CURVE SMOOTH",
"350 350 LINE",
"350 0 LINE",
"550 0 LINE",
"550 400 LINE SMOOTH",
"550 472 OFFCURVE",
"494 515 OFFCURVE",
"400 515 CURVE SMOOTH",
"327 515 OFFCURVE",
"258 493 OFFCURVE",
"200 450 CURVE",
"150 500 LINE",
"50 500 LINE",
"50 0 LINE"
);
}
);
width = 595;
},
{
anchors = (
{
name = bottom;
position = "{288, 0}";
},
{
name = top;
position = "{298, 500}";
}
);
background = {
paths = (
{
closed = 1;
nodes = (
"191 0 LINE",
"191 403 LINE SMOOTH",
"191 421 OFFCURVE",
"203 428 OFFCURVE",
"241 428 CURVE SMOOTH",
"391 428 LINE",
"391 0 LINE",
"491 0 LINE",
"491 430 LINE SMOOTH",
"491 488 OFFCURVE",
"457 510 OFFCURVE",
"364 510 CURVE SMOOTH",
"304 510 OFFCURVE",
"231 494 OFFCURVE",
"171 467 CURVE",
"136 500 LINE",
"91 500 LINE",
"91 0 LINE"
);
}
);
};
hints = (
{
horizontal = 1;
origin = "{0, 11}";
target = "{0, 4}";
type = Stem;
},
{
horizontal = 1;
origin = "{0, 16}";
target = down;
type = TopGhost;
},
{
origin = "{0, 17}";
target = "{0, 0}";
type = Stem;
},
{
origin = "{0, 6}";
target = "{0, 7}";
type = Stem;
},
{
horizontal = 1;
origin = "{0, 17}";
target = up;
type = BottomGhost;
}
);
layerId = "CF2D4400-0F4D-4A72-A30C-ABA3B96311EF";
paths = (
{
closed = 1;
nodes = (
"190 0 LINE",
"190 370 LINE SMOOTH",
"190 415 OFFCURVE",
"209 428 OFFCURVE",
"275 428 CURVE SMOOTH",
"391 428 LINE",
"391 0 LINE",
"491 0 LINE",
"491 425 LINE SMOOTH",
"491 481 OFFCURVE",
"442 510 OFFCURVE",
"349 510 CURVE SMOOTH",
"271 510 OFFCURVE",
"213 491 OFFCURVE",
"163 450 CURVE",
"136 500 LINE",
"90 500 LINE",
"90 0 LINE"
);
}
);
width = 576;
}
);
leftKerningGroup = n;
rightKerningGroup = n;
unicode = 006E;
},
{
glyphname = eng;
layers = (
{
components = (
{
name = n;
}
);
layerId = "62EAF1BF-1B79-4549-96F9-774E14A065EF";
paths = (
{
closed = 1;
nodes = (
"497 -180 OFFCURVE",
"550 -127 OFFCURVE",
"550 -11 CURVE SMOOTH",
"550 50 LINE",
"350 50 LINE",
"350 0 LINE SMOOTH",
"350 -50 OFFCURVE",
"331 -64 OFFCURVE",
"260 -64 CURVE",
"251 -164 LINE",
"291 -174 OFFCURVE",
"341 -180 OFFCURVE",
"381 -180 CURVE SMOOTH"
);
}
);
width = 595;
},
{
components = (
{
name = n;
}
);
hints = (
{
horizontal = 1;
origin = "{0, 12}";
target = "{0, 8}";
type = Stem;
},
{
origin = "{0, 5}";
target = "{0, 2}";
type = Stem;
},
{
horizontal = 1;
origin = "{0, 12}";
target = up;
type = BottomGhost;
}
);
layerId = "CF2D4400-0F4D-4A72-A30C-ABA3B96311EF";
paths = (
{
closed = 1;
nodes = (
"452 -175 OFFCURVE",
"491 -138 OFFCURVE",
"491 -60 CURVE SMOOTH",
"491 30 LINE",
"391 30 LINE",
"391 -55 LINE SMOOTH",
"391 -106 OFFCURVE",
"377 -115 OFFCURVE",
"296 -116 CURVE",
"290 -164 LINE",
"313 -171 OFFCURVE",
"343 -175 OFFCURVE",
"367 -175 CURVE SMOOTH"
);
}
);
width = 576;
}
);
leftKerningGroup = n;
leftMetricsKey = n;
rightKerningGroup = n;
rightMetricsKey = n;
unicode = 014B;
},
{
glyphname = o;
layers = (
{
anchors = (
{
name = bottom;
position = "{295, 0}";
},
{
name = center;
position = "{295, 250}";
},
{
name = ogonek;
position = "{412, 0}";
},
{
name = top;
position = "{295, 500}";
},
{
name = topright;
position = "{570, 500}";
}
);
layerId = "62EAF1BF-1B79-4549-96F9-774E14A065EF";
paths = (
{
closed = 1;
nodes = (
"478 -15 OFFCURVE",
"560 68 OFFCURVE",
"560 250 CURVE SMOOTH",
"560 433 OFFCURVE",
"478 515 OFFCURVE",
"295 515 CURVE SMOOTH",
"113 515 OFFCURVE",
"30 433 OFFCURVE",
"30 250 CURVE SMOOTH",
"30 68 OFFCURVE",
"113 -15 OFFCURVE",
"295 -15 CURVE SMOOTH"
);
},
{
closed = 1;
nodes = (
"245 337 LINE SMOOTH",
"245 358 OFFCURVE",
"254 365 OFFCURVE",
"284 365 CURVE SMOOTH",
"345 365 LINE",
"345 163 LINE SMOOTH",
"345 142 OFFCURVE",
"336 135 OFFCURVE",
"306 135 CURVE SMOOTH",
"245 135 LINE"
);
}
);
width = 590;
},
{
anchors = (
{
name = bottom;
position = "{277, 0}";
},
{
name = center;
position = "{277, 250}";
},
{
name = ogonek;
position = "{380, 0}";
},
{
name = top;
position = "{277, 500}";
},
{
name = topright;
position = "{545, 500}";
}
);
background = {
paths = (
{
closed = 1;
nodes = (
"25 74 OFFCURVE",
"95 -15 OFFCURVE",
"272 -15 CURVE SMOOTH",
"449 -15 OFFCURVE",
"519 74 OFFCURVE",
"519 250 CURVE SMOOTH",
"519 426 OFFCURVE",
"449 515 OFFCURVE",
"272 515 CURVE SMOOTH",
"95 515 OFFCURVE",
"25 426 OFFCURVE",
"25 250 CURVE SMOOTH"
);
},
{
closed = 1;
nodes = (
"194 328 LINE SMOOTH",
"194 404 OFFCURVE",
"235 409 OFFCURVE",
"291 409 CURVE SMOOTH",
"350 409 LINE",
"350 173 LINE SMOOTH",
"350 96 OFFCURVE",
"309 91 OFFCURVE",
"254 91 CURVE SMOOTH",
"194 91 LINE"
);
}
);
};
hints = (
{
horizontal = 1;
origin = "{0, 11}";
target = "{1, 9}";
type = Stem;
},
{
horizontal = 1;
origin = "{0, 5}";
target = "{1, 3}";
type = Stem;
},
{
origin = "{0, 8}";
target = "{1, 9}";
type = Stem;
},
{
origin = "{1, 5}";
target = "{0, 2}";
type = Stem;
},
{
horizontal = 1;
origin = "{0, 11}";
target = up;
type = BottomGhost;
},
{
horizontal = 1;
origin = "{0, 5}";
target = down;
type = TopGhost;
}
);
layerId = "CF2D4400-0F4D-4A72-A30C-ABA3B96311EF";
paths = (
{
closed = 1;
nodes = (
"451 -10 OFFCURVE",
"494 41 OFFCURVE",
"494 250 CURVE SMOOTH",
"494 460 OFFCURVE",
"453 510 OFFCURVE",
"277 510 CURVE SMOOTH",
"103 510 OFFCURVE",
"60 459 OFFCURVE",
"60 250 CURVE SMOOTH",
"60 41 OFFCURVE",
"103 -10 OFFCURVE",
"277 -10 CURVE SMOOTH"
);
},
{
closed = 1;
nodes = (
"164 403 LINE SMOOTH",
"164 423 OFFCURVE",
"174 428 OFFCURVE",
"212 428 CURVE SMOOTH",
"390 428 LINE",
"390 97 LINE SMOOTH",
"390 77 OFFCURVE",
"380 72 OFFCURVE",
"342 72 CURVE SMOOTH",
"164 72 LINE"
);
}
);
width = 554;
}
);
leftKerningGroup = o;
rightKerningGroup = o;
unicode = 006F;
},
{
glyphname = oslash;
layers = (
{
anchors = (
{
name = bottom;
position = "{295, 0}";
},
{
name = top;
position = "{295, 500}";
}
);
components = (
{
name = o;
},
{
name = slashlongcomb;
transform = "{1, 0, 0, 1, 93, -63}";
}
);
layerId = "62EAF1BF-1B79-4549-96F9-774E14A065EF";
width = 590;
},
{
anchors = (
{
name = bottom;
position = "{277, 0}";
},
{
name = top;
position = "{277, 500}";
}
);
background = {
paths = (
{
closed = 1;
nodes = (
"230 74 LINE",
"432 426 LINE",
"361 426 LINE",
"159 74 LINE"
);
}
);
};
components = (
{
name = o;
},
{
name = slashlongcomb;
transform = "{1, 0, 0, 1, 75, -63}";
}
);
layerId = "CF2D4400-0F4D-4A72-A30C-ABA3B96311EF";
width = 554;
},
{
anchors = (
{
name = _center;
position = "{277, 250}";
},
{
name = bottom;
position = "{277, 0}";
},
{
name = top;
position = "{277, 500}";
}
);
associatedMasterId = "CF2D4400-0F4D-4A72-A30C-ABA3B96311EF";
background = {
paths = (
{
closed = 1;
nodes = (
"308 249 LINE",
"479 602 LINE",
"448 602 LINE SMOOTH",
"425 602 OFFCURVE",
"415 597 OFFCURVE",
"405 577 CURVE SMOOTH",
"246 250 LINE"
);
}
);
};
components = (
{
name = o;
}
);
layerId = "8F3B4EA7-B08C-4DD8-8E20-3E88F8479054";
name = "Regular [140]";
paths = (
{
closed = 1;
nodes = (
"151 51 LINE",
"75 -103 LINE",
"106 -103 LINE SMOOTH",
"129 -103 OFFCURVE",
"139 -98 OFFCURVE",
"149 -78 CURVE SMOOTH",
"213 50 LINE"
);
},
{
closed = 1;
nodes = (
"403 448 LINE",
"479 602 LINE",
"448 602 LINE SMOOTH",
"425 602 OFFCURVE",
"415 597 OFFCURVE",
"405 577 CURVE SMOOTH",
"341 449 LINE"
);
}
);
width = 554;
},
{
anchors = (
{
name = _center;
position = "{295, 250}";
},
{
name = bottom;
position = "{295, 0}";
},
{
name = top;
position = "{295, 500}";
}
);
associatedMasterId = "62EAF1BF-1B79-4549-96F9-774E14A065EF";
background = {
paths = (
{
closed = 1;
nodes = (
"336 250 LINE",
"497 602 LINE",
"446 602 LINE SMOOTH",
"423 602 OFFCURVE",
"412 597 OFFCURVE",
"403 577 CURVE SMOOTH",
"254 249 LINE"
);
}
);
};
components = (
{
name = o;
}
);
layerId = "26902533-ACF5-4B29-8B38-126C2BE93808";
name = "Bold [140]";
paths = (
{
closed = 1;
nodes = (
"172 68 LINE",
"93 -103 LINE",
"144 -103 LINE SMOOTH",
"167 -103 OFFCURVE",
"177 -100 OFFCURVE",
"187 -78 CURVE SMOOTH",
"254 69 LINE"
);
},
{
closed = 1;
nodes = (
"418 431 LINE",
"497 602 LINE",
"446 602 LINE SMOOTH",
"423 602 OFFCURVE",
"413 599 OFFCURVE",
"403 577 CURVE SMOOTH",
"336 430 LINE"
);
}
);
width = 590;
}
);
leftKerningGroup = o;
rightKerningGroup = o;
unicode = 00F8;
},
{
glyphname = oe;
layers = (
{
anchors = (
{
name = bottom;
position = "{443, 0}";
},
{
name = top;
position = "{443, 500}";
}
);
layerId = "62EAF1BF-1B79-4549-96F9-774E14A065EF";
paths = (
{
closed = 1;
nodes = (
"464 -15 OFFCURVE",
"540 68 OFFCURVE",
"540 250 CURVE SMOOTH",
"540 433 OFFCURVE",
"464 515 OFFCURVE",
"295 515 CURVE SMOOTH",
"113 515 OFFCURVE",
"30 433 OFFCURVE",
"30 250 CURVE SMOOTH",
"30 68 OFFCURVE",
"113 -15 OFFCURVE",
"295 -15 CURVE SMOOTH"
);
},
{
closed = 1;
nodes = (
"245 337 LINE SMOOTH",
"245 358 OFFCURVE",
"254 365 OFFCURVE",
"284 365 CURVE SMOOTH",
"345 365 LINE",
"345 163 LINE SMOOTH",
"345 142 OFFCURVE",
"336 135 OFFCURVE",
"306 135 CURVE SMOOTH",
"245 135 LINE"
);
},
{
closed = 1;
nodes = (
"686 -15 OFFCURVE",
"760 -4 OFFCURVE",
"832 19 CURVE",
"808 157 LINE",
"748 140 OFFCURVE",
"689 131 OFFCURVE",
"630 131 CURVE SMOOTH",
"601 131 OFFCURVE",
"578 132 OFFCURVE",
"560 135 CURVE",
"560 332 LINE SMOOTH",
"560 361 OFFCURVE",
"577 370 OFFCURVE",
"629 370 CURVE SMOOTH",
"665 370 LINE",
"665 322 LINE SMOOTH",
"665 290 OFFCURVE",
"648 280 OFFCURVE",
"596 280 CURVE SMOOTH",
"530 280 LINE",
"530 180 LINE",
"560 180 LINE SMOOTH",
"769 180 OFFCURVE",
"845 224 OFFCURVE",
"845 345 CURVE SMOOTH",
"845 475 OFFCURVE",
"790 515 OFFCURVE",
"610 515 CURVE SMOOTH",
"441 515 OFFCURVE",
"365 433 OFFCURVE",
"365 250 CURVE SMOOTH",
"365 67 OFFCURVE",
"441 -15 OFFCURVE",
"610 -15 CURVE"
);
}
);
width = 885;
},
{
anchors = (
{
name = bottom;
position = "{439, 0}";
},
{
name = top;
position = "{439, 500}";
}
);
hints = (
{
horizontal = 1;
origin = "{2, 20}";
target = "{2, 19}";
type = Stem;
},
{
horizontal = 1;
origin = "{2, 27}";
target = "{2, 13}";
type = Stem;
},
{
horizontal = 1;
origin = "{2, 33}";
target = "{2, 6}";
type = Stem;
},
{
place = "{65, 105}";
type = Stem;
},
{
origin = "{2, 15}";
target = "{2, 24}";
type = Stem;
},
{
origin = "{2, 30}";
target = "{2, 9}";
type = Stem;
},
{
horizontal = 1;
origin = "{0, 11}";
target = up;
type = BottomGhost;
},
{
horizontal = 1;
origin = "{0, 5}";
target = down;
type = TopGhost;
}
);
layerId = "CF2D4400-0F4D-4A72-A30C-ABA3B96311EF";
paths = (
{
closed = 1;
nodes = (
"443 -10 OFFCURVE",
"484 41 OFFCURVE",
"484 250 CURVE SMOOTH",
"484 461 OFFCURVE",
"445 510 OFFCURVE",
"277 510 CURVE SMOOTH",
"103 510 OFFCURVE",
"60 459 OFFCURVE",
"60 250 CURVE SMOOTH",
"60 41 OFFCURVE",
"103 -10 OFFCURVE",
"277 -10 CURVE SMOOTH"
);
},
{
closed = 1;
nodes = (
"164 403 LINE SMOOTH",
"164 423 OFFCURVE",
"174 428 OFFCURVE",
"212 428 CURVE SMOOTH",
"390 428 LINE",
"390 97 LINE SMOOTH",
"390 77 OFFCURVE",
"380 72 OFFCURVE",
"342 72 CURVE SMOOTH",
"164 72 LINE"
);
},
{
closed = 1;
nodes = (
"657 -10 OFFCURVE",
"734 1 OFFCURVE",
"786 20 CURVE",
"773 93 LINE",
"700 75 OFFCURVE",
"653 69 OFFCURVE",
"600 69 CURVE SMOOTH",
"555 69 OFFCURVE",
"524 72 OFFCURVE",
"493 80 CURVE",
"493 370 LINE SMOOTH",
"493 415 OFFCURVE",
"512 428 OFFCURVE",
"576 428 CURVE SMOOTH",
"709 428 LINE",
"709 324 LINE SMOOTH",
"709 279 OFFCURVE",
"690 266 OFFCURVE",
"625 266 CURVE SMOOTH",
"463 266 LINE",
"463 201 LINE",
"493 201 LINE SMOOTH",
"761 201 OFFCURVE",
"799 221 OFFCURVE",
"799 360 CURVE SMOOTH",
"799 478 OFFCURVE",
"757 510 OFFCURVE",
"599 510 CURVE SMOOTH",
"445 510 OFFCURVE",
"398 449 OFFCURVE",
"398 250 CURVE SMOOTH",
"398 46 OFFCURVE",
"437 -10 OFFCURVE",
"582 -10 CURVE SMOOTH"
);
}
);
width = 869;
}
);
leftKerningGroup = o;
leftMetricsKey = o;
rightKerningGroup = e;
rightMetricsKey = e;
unicode = 0153;
},
{
glyphname = p;
layers = (
{
layerId = "62EAF1BF-1B79-4549-96F9-774E14A065EF";
paths = (
{
closed = 1;
nodes = (
"499 -15 OFFCURVE",
"565 66 OFFCURVE",
"565 250 CURVE SMOOTH",
"565 434 OFFCURVE",
"499 515 OFFCURVE",
"350 515 CURVE SMOOTH",
"202 515 OFFCURVE",
"135 432 OFFCURVE",
"135 250 CURVE SMOOTH",
"135 68 OFFCURVE",
"202 -15 OFFCURVE",
"350 -15 CURVE SMOOTH"
);
},
{
closed = 1;
nodes = (
"250 337 LINE SMOOTH",
"250 358 OFFCURVE",
"259 365 OFFCURVE",
"289 365 CURVE SMOOTH",
"350 365 LINE",
"350 163 LINE SMOOTH",
"350 142 OFFCURVE",
"341 135 OFFCURVE",
"311 135 CURVE SMOOTH",
"250 135 LINE"
);
},
{
closed = 1;
nodes = (
"250 -150 LINE",
"250 365 LINE",
"150 500 LINE",
"50 500 LINE",
"50 -165 LINE"
);
}
);
width = 595;
},
{
background = {
paths = (
{
closed = 0;
nodes = (
"404 428 LINE"
);
},
{
closed = 0;
nodes = (
"504 425 LINE SMOOTH",
"504 498 OFFCURVE",
"426 510 OFFCURVE",
"362 510 CURVE SMOOTH"
);
}
);
};
hints = (
{
horizontal = 1;
origin = "{0, 11}";
target = "{1, 9}";
type = Stem;
},
{
horizontal = 1;
origin = "{0, 5}";
target = "{1, 3}";
type = Stem;
},
{
horizontal = 1;
origin = "{0, 5}";
target = down;
type = TopGhost;
},
{
origin = "{2, 4}";
target = "{2, 0}";
type = Stem;
},
{
origin = "{1, 5}";
target = "{0, 2}";
type = Stem;
},
{
horizontal = 1;
origin = "{2, 4}";
target = up;
type = BottomGhost;
},
{
horizontal = 1;
origin = "{0, 11}";
target = up;
type = BottomGhost;
}
);
layerId = "CF2D4400-0F4D-4A72-A30C-ABA3B96311EF";
paths = (
{
closed = 1;
nodes = (
"473 -15 OFFCURVE",
"509 38 OFFCURVE",
"509 250 CURVE SMOOTH",
"509 460 OFFCURVE",
"475 510 OFFCURVE",
"329 510 CURVE SMOOTH",
"157 510 OFFCURVE",
"125 470 OFFCURVE",
"125 250 CURVE SMOOTH",
"125 27 OFFCURVE",
"157 -15 OFFCURVE",
"329 -15 CURVE SMOOTH"
);
},
{
closed = 1;
nodes = (
"190 408 LINE SMOOTH",
"190 423 OFFCURVE",
"201 428 OFFCURVE",
"236 428 CURVE SMOOTH",
"404 428 LINE",
"404 92 LINE SMOOTH",
"404 72 OFFCURVE",
"394 67 OFFCURVE",
"358 67 CURVE SMOOTH",
"190 67 LINE"
);
},
{
closed = 1;
nodes = (
"190 -165 LINE",
"190 400 LINE",
"136 500 LINE",
"90 500 LINE",
"90 -177 LINE"
);
}
);
width = 569;
}
);
leftKerningGroup = p;
leftMetricsKey = n;
rightKerningGroup = o;
rightMetricsKey = o;
unicode = 0070;
},
{
glyphname = thorn;
layers = (
{
background = {
paths = (
{
closed = 0;
nodes = (
"250 665 LINE",
"50 650 LINE"
);
}
);
};
layerId = "62EAF1BF-1B79-4549-96F9-774E14A065EF";
paths = (
{
closed = 1;
nodes = (
"499 -15 OFFCURVE",
"565 66 OFFCURVE",
"565 250 CURVE SMOOTH",
"565 434 OFFCURVE",
"499 515 OFFCURVE",
"350 515 CURVE SMOOTH",
"202 515 OFFCURVE",
"135 432 OFFCURVE",
"135 250 CURVE SMOOTH",
"135 68 OFFCURVE",
"202 -15 OFFCURVE",
"350 -15 CURVE SMOOTH"
);
},
{
closed = 1;
nodes = (
"250 337 LINE SMOOTH",
"250 358 OFFCURVE",
"259 365 OFFCURVE",
"289 365 CURVE SMOOTH",
"350 365 LINE",
"350 163 LINE SMOOTH",
"350 142 OFFCURVE",
"341 135 OFFCURVE",
"311 135 CURVE SMOOTH",
"250 135 LINE"
);
},
{
closed = 1;
nodes = (
"250 -150 LINE",
"250 665 LINE",
"50 650 LINE",
"50 -165 LINE"
);
}
);
width = 595;
},
{
background = {
paths = (
{
closed = 0;
nodes = (
"404 428 LINE"
);
},
{
closed = 0;
nodes = (
"504 425 LINE SMOOTH",
"504 498 OFFCURVE",
"426 510 OFFCURVE",
"362 510 CURVE SMOOTH"
);
}
);
};
hints = (
{
horizontal = 1;
origin = "{0, 11}";
target = "{1, 9}";
type = Stem;
},
{
horizontal = 1;
origin = "{0, 5}";
target = "{1, 3}";
type = Stem;
},
{
horizontal = 1;
place = "{650, -20}";
target = down;
type = TopGhost;
},
{
origin = "{2, 3}";
target = "{2, 0}";
type = Stem;
},
{
origin = "{1, 5}";
target = "{0, 2}";
type = Stem;
},
{
horizontal = 1;
origin = "{0, 11}";
target = up;
type = BottomGhost;
},
{
horizontal = 1;
origin = "{0, 5}";
target = down;
type = TopGhost;
}
);
layerId = "CF2D4400-0F4D-4A72-A30C-ABA3B96311EF";
paths = (
{
closed = 1;
nodes = (
"473 -15 OFFCURVE",
"509 38 OFFCURVE",
"509 250 CURVE SMOOTH",
"509 460 OFFCURVE",
"475 510 OFFCURVE",
"329 510 CURVE SMOOTH",
"157 510 OFFCURVE",
"125 470 OFFCURVE",
"125 250 CURVE SMOOTH",
"125 27 OFFCURVE",
"157 -15 OFFCURVE",
"329 -15 CURVE SMOOTH"
);
},
{
closed = 1;
nodes = (
"190 408 LINE SMOOTH",
"190 423 OFFCURVE",
"201 428 OFFCURVE",
"236 428 CURVE SMOOTH",
"404 428 LINE",
"404 92 LINE SMOOTH",
"404 72 OFFCURVE",
"394 67 OFFCURVE",
"358 67 CURVE SMOOTH",
"190 67 LINE"
);
},
{
closed = 1;
nodes = (
"190 -165 LINE",
"190 665 LINE",
"90 650 LINE",
"90 -177 LINE"
);
}
);
width = 569;
}
);
leftKerningGroup = p;
leftMetricsKey = n;
rightKerningGroup = o;
rightMetricsKey = o;
unicode = 00FE;
},
{
glyphname = q;
layers = (
{
background = {
paths = (
{
closed = 1;
nodes = (
"440 500 LINE",
"412 472 LINE",
"368 501 OFFCURVE",
"319 515 OFFCURVE",
"260 515 CURVE SMOOTH",
"89 515 OFFCURVE",
"25 400 OFFCURVE",
"25 250 CURVE SMOOTH",
"25 129 OFFCURVE",
"69 -15 OFFCURVE",
"240 -15 CURVE SMOOTH",
"281 -15 OFFCURVE",
"314 -10 OFFCURVE",
"340 0 CURVE",
"340 -165 LINE",
"540 -151 LINE",
"540 500 LINE"
);
},
{
closed = 1;
nodes = (
"240 327 LINE SMOOTH",
"240 366 OFFCURVE",
"269 369 OFFCURVE",
"309 369 CURVE SMOOTH",
"340 369 LINE",
"340 173 LINE SMOOTH",
"340 134 OFFCURVE",
"311 131 OFFCURVE",
"271 131 CURVE SMOOTH",
"240 131 LINE"
);
}
);
};
layerId = "62EAF1BF-1B79-4549-96F9-774E14A065EF";
paths = (
{
closed = 1;
nodes = (
"393 -15 OFFCURVE",
"460 68 OFFCURVE",
"460 250 CURVE SMOOTH",
"460 432 OFFCURVE",
"393 515 OFFCURVE",
"245 515 CURVE SMOOTH",
"96 515 OFFCURVE",
"30 434 OFFCURVE",
"30 250 CURVE SMOOTH",
"30 66 OFFCURVE",
"96 -15 OFFCURVE",
"245 -15 CURVE SMOOTH"
);
},
{
closed = 1;
nodes = (
"245 337 LINE SMOOTH",
"245 358 OFFCURVE",
"254 365 OFFCURVE",
"284 365 CURVE SMOOTH",
"345 365 LINE",
"345 163 LINE SMOOTH",
"345 142 OFFCURVE",
"336 135 OFFCURVE",
"306 135 CURVE SMOOTH",
"245 135 LINE"
);
},
{
closed = 1;
nodes = (
"545 500 LINE",
"445 500 LINE",
"345 365 LINE",
"345 -165 LINE",
"545 -150 LINE"
);
}
);
width = 595;
},
{
background = {
paths = (
{
closed = 1;
nodes = (
"395 500 LINE",
"374 466 LINE",
"326 504 OFFCURVE",
"270 510 OFFCURVE",
"223 510 CURVE SMOOTH",
"85 510 OFFCURVE",
"44 449 OFFCURVE",
"44 240 CURVE SMOOTH",
"44 72 OFFCURVE",
"71 -7 OFFCURVE",
"212 -7 CURVE SMOOTH",
"247 -7 OFFCURVE",
"298 3 OFFCURVE",
"341 26 CURVE",
"341 -177 LINE",
"441 -166 LINE",
"441 500 LINE"
);
},
{
closed = 1;
nodes = (
"153 91 LINE",
"153 351 LINE SMOOTH",
"153 401 OFFCURVE",
"178 409 OFFCURVE",
"232 409 CURVE SMOOTH",
"341 409 LINE",
"341 149 LINE SMOOTH",
"341 99 OFFCURVE",
"316 91 OFFCURVE",
"262 91 CURVE SMOOTH"
);
}
);
};
hints = (
{
horizontal = 1;
origin = "{0, 11}";
target = "{1, 9}";
type = Stem;
},
{
horizontal = 1;
origin = "{0, 5}";
target = "{1, 3}";
type = Stem;
},
{
horizontal = 1;
origin = "{0, 5}";
target = "{1, 3}";
type = Stem;
},
{
origin = "{0, 8}";
target = "{1, 9}";
type = Stem;
},
{
origin = "{2, 3}";
target = "{2, 4}";
type = Stem;
},
{
horizontal = 1;
origin = "{0, 11}";
target = up;
type = BottomGhost;
},
{
horizontal = 1;
origin = "{0, 5}";
target = down;
type = TopGhost;
}
);
layerId = "CF2D4400-0F4D-4A72-A30C-ABA3B96311EF";
paths = (
{
closed = 1;
nodes = (
"412 -15 OFFCURVE",
"444 27 OFFCURVE",
"444 250 CURVE SMOOTH",
"444 470 OFFCURVE",
"412 510 OFFCURVE",
"240 510 CURVE SMOOTH",
"94 510 OFFCURVE",
"60 460 OFFCURVE",
"60 250 CURVE SMOOTH",
"60 38 OFFCURVE",
"96 -15 OFFCURVE",
"240 -15 CURVE SMOOTH"
);
},
{
closed = 1;
nodes = (
"165 408 LINE SMOOTH",
"165 423 OFFCURVE",
"176 428 OFFCURVE",
"211 428 CURVE SMOOTH",
"379 428 LINE",
"379 92 LINE SMOOTH",
"379 72 OFFCURVE",
"369 67 OFFCURVE",
"333 67 CURVE SMOOTH",
"165 67 LINE"
);
},
{
closed = 1;
nodes = (
"479 500 LINE",
"433 500 LINE",
"379 400 LINE",
"379 -177 LINE",
"479 -165 LINE"
);
}
);
width = 569;
}
);
leftKerningGroup = o;
leftMetricsKey = o;
rightKerningGroup = q;
rightMetricsKey = "=|n";
unicode = 0071;
},
{
glyphname = r;
layers = (
{
anchors = (
{
name = bottom;
position = "{150, 0}";
},
{
name = top;
position = "{195, 500}";
}
);
layerId = "62EAF1BF-1B79-4549-96F9-774E14A065EF";
paths = (
{
closed = 1;
nodes = (
"50 500 LINE",
"50 0 LINE",
"250 0 LINE",
"250 281 LINE",
"271 296 OFFCURVE",
"334 318 OFFCURVE",
"365 321 CURVE",
"353 515 LINE",
"293 502 OFFCURVE",
"244 475 OFFCURVE",
"205 434 CURVE",
"150 500 LINE"
);
}
);
width = 370;
},
{
anchors = (
{
name = bottom;
position = "{140, 0}";
},
{
name = top;
position = "{197, 500}";
}
);
background = {
paths = (
{
closed = 1;
nodes = (
"61 500 LINE",
"61 0 LINE",
"220 0 LINE",
"220 302 LINE",
"249 339 OFFCURVE",
"309 358 OFFCURVE",
"349 366 CURVE",
"346 417 OFFCURVE",
"343 455 OFFCURVE",
"339 515 CURVE",
"290 498 OFFCURVE",
"243 468 OFFCURVE",
"202 431 CURVE",
"137 500 LINE"
);
}
);
};
hints = (
{
origin = "{0, 1}";
target = "{0, 2}";
type = Stem;
},
{
horizontal = 1;
origin = "{0, 7}";
target = "{0, 6}";
type = Stem;
},
{
horizontal = 1;
origin = "{0, 1}";
target = up;
type = BottomGhost;
},
{
horizontal = 1;
origin = "{0, 0}";
target = down;
type = TopGhost;
}
);
layerId = "CF2D4400-0F4D-4A72-A30C-ABA3B96311EF";
paths = (
{
closed = 1;
nodes = (
"90 500 LINE",
"90 0 LINE",
"190 0 LINE",
"190 353 LINE",
"223 378 OFFCURVE",
"276 404 OFFCURVE",
"319 417 CURVE",
"309 515 LINE",
"272 502 OFFCURVE",
"232 475 OFFCURVE",
"172 421 CURVE",
"137 500 LINE"
);
}
);
width = 334;
}
);
leftKerningGroup = n;
leftMetricsKey = n;
rightKerningGroup = r;
unicode = 0072;
},
{
glyphname = s;
layers = (
{
anchors = (
{
name = bottom;
position = "{261, 0}";
},
{
name = top;
position = "{256, 500}";
}
);
layerId = "62EAF1BF-1B79-4549-96F9-774E14A065EF";
paths = (
{
closed = 1;
nodes = (
"32 235 OFFCURVE",
"87 198 OFFCURVE",
"281 179 CURVE",
"281 140 LINE",
"252 135 OFFCURVE",
"227 132 OFFCURVE",
"210 132 CURVE SMOOTH",
"149 132 OFFCURVE",
"98 142 OFFCURVE",
"50 163 CURVE",
"25 19 LINE",
"84 -2 OFFCURVE",
"166 -15 OFFCURVE",
"244 -15 CURVE SMOOTH",
"419 -15 OFFCURVE",
"496 37 OFFCURVE",
"496 156 CURVE SMOOTH",
"496 259 OFFCURVE",
"430 303 OFFCURVE",
"247 322 CURVE",
"247 358 LINE",
"266 364 OFFCURVE",
"300 368 OFFCURVE",
"331 368 CURVE SMOOTH",
"377 368 OFFCURVE",
"415 364 OFFCURVE",
"448 355 CURVE",
"471 493 LINE",
"407 507 OFFCURVE",
"331 515 OFFCURVE",
"255 515 CURVE SMOOTH",
"102 515 OFFCURVE",
"32 462 OFFCURVE",
"32 346 CURVE SMOOTH"
);
}
);
width = 521;
},
{
anchors = (
{
name = bottom;
position = "{241, 0}";
},
{
name = top;
position = "{246, 500}";
}
);
background = {
paths = (
{
closed = 1;
nodes = (
"28 236 OFFCURVE",
"76 196 OFFCURVE",
"286 166 CURVE",
"286 104 LINE",
"259 101 OFFCURVE",
"242 100 OFFCURVE",
"216 100 CURVE SMOOTH",
"157 100 OFFCURVE",
"99 108 OFFCURVE",
"44 126 CURVE",
"20 14 LINE",
"87 -6 OFFCURVE",
"165 -15 OFFCURVE",
"236 -15 CURVE SMOOTH",
"348 -15 OFFCURVE",
"446 1 OFFCURVE",
"446 156 CURVE SMOOTH",
"446 253 OFFCURVE",
"398 304 OFFCURVE",
"188 334 CURVE",
"188 396 LINE",
"209 398 OFFCURVE",
"230 400 OFFCURVE",
"251 400 CURVE SMOOTH",
"299 400 OFFCURVE",
"348 393 OFFCURVE",
"397 378 CURVE",
"420 484 LINE",
"359 506 OFFCURVE",
"291 515 OFFCURVE",
"226 515 CURVE SMOOTH",
"119 515 OFFCURVE",
"28 485 OFFCURVE",
"28 351 CURVE SMOOTH"
);
}
);
};
hints = (
{
horizontal = 1;
origin = "{0, 13}";
target = "{0, 6}";
type = Stem;
},
{
horizontal = 1;
origin = "{0, 30}";
target = "{0, 23}";
type = Stem;
},
{
horizontal = 1;
origin = "{0, 30}";
target = down;
type = TopGhost;
},
{
origin = "{0, 33}";
target = "{0, 19}";
type = Stem;
},
{
origin = "{0, 3}";
target = "{0, 16}";
type = Stem;
},
{
horizontal = 1;
origin = "{0, 13}";
target = up;
type = BottomGhost;
},
{
horizontal = 1;
origin = "{0, 30}";
target = down;
type = TopGhost;
}
);
layerId = "CF2D4400-0F4D-4A72-A30C-ABA3B96311EF";
paths = (
{
closed = 1;
nodes = (
"56 250 OFFCURVE",
"86 231 OFFCURVE",
"331 196 CURVE",
"331 78 LINE",
"290 67 OFFCURVE",
"265 64 OFFCURVE",
"225 64 CURVE SMOOTH",
"166 64 OFFCURVE",
"112 74 OFFCURVE",
"61 94 CURVE",
"45 14 LINE",
"107 -5 OFFCURVE",
"167 -15 OFFCURVE",
"226 -15 CURVE SMOOTH",
"379 -15 OFFCURVE",
"436 28 OFFCURVE",
"436 141 CURVE SMOOTH",
"436 250 OFFCURVE",
"392 277 OFFCURVE",
"161 309 CURVE",
"161 427 LINE",
"191 432 OFFCURVE",
"232 436 OFFCURVE",
"275 436 CURVE SMOOTH",
"315 436 OFFCURVE",
"364 429 OFFCURVE",
"397 420 CURVE",
"411 493 LINE",
"357 508 OFFCURVE",
"305 515 OFFCURVE",
"245 515 CURVE SMOOTH",
"115 515 OFFCURVE",
"56 469 OFFCURVE",
"56 366 CURVE SMOOTH"
);
}
);
width = 481;
}
);
leftKerningGroup = s;
rightKerningGroup = s;
unicode = 0073;
},
{
glyphname = germandbls;
layers = (
{
layerId = "62EAF1BF-1B79-4549-96F9-774E14A065EF";
paths = (
{
closed = 1;
nodes = (
"590 -15 OFFCURVE",
"660 41 OFFCURVE",
"660 151 CURVE SMOOTH",
"660 244 OFFCURVE",
"621 295 OFFCURVE",
"510 344 CURVE",
"565 413 OFFCURVE",
"585 458 OFFCURVE",
"585 515 CURVE SMOOTH",
"585 617 OFFCURVE",
"496 675 OFFCURVE",
"340 675 CURVE SMOOTH",
"163 675 OFFCURVE",
"97 631 OFFCURVE",
"80 500 CURVE",
"30 500 LINE",
"30 371 LINE",
"80 371 LINE",
"80 0 LINE",
"280 0 LINE",
"280 524 LINE",
"288 527 OFFCURVE",
"297 528 OFFCURVE",
"315 528 CURVE SMOOTH",
"362 528 OFFCURVE",
"385 510 OFFCURVE",
"385 474 CURVE SMOOTH",
"385 425 OFFCURVE",
"312 385 OFFCURVE",
"312 320 CURVE SMOOTH",
"312 256 OFFCURVE",
"337 235 OFFCURVE",
"460 196 CURVE",
"460 136 LINE",
"459 133 OFFCURVE",
"449 132 OFFCURVE",
"422 132 CURVE SMOOTH",
"400 132 OFFCURVE",
"373 135 OFFCURVE",
"336 143 CURVE",
"311 -1 LINE",
"330 -9 OFFCURVE",
"392 -15 OFFCURVE",
"454 -15 CURVE SMOOTH"
);
}
);
width = 685;
},
{
hints = (
{
horizontal = 1;
origin = "{0, 43}";
target = "{0, 36}";
type = Stem;
},
{
horizontal = 1;
origin = "{0, 15}";
target = "{0, 16}";
type = Stem;
},
{
horizontal = 1;
origin = "{0, 23}";
target = "{0, 11}";
type = Stem;
},
{
origin = "{0, 18}";
target = "{0, 19}";
type = Stem;
},
{
origin = "{0, 33}";
target = "{0, 2}";
type = Stem;
},
{
origin = "{0, 26}";
target = "{0, 8}";
type = Stem;
},
{
horizontal = 1;
origin = "{0, 18}";
target = up;
type = BottomGhost;
},
{
horizontal = 1;
origin = "{0, 43}";
target = up;
type = BottomGhost;
},
{
horizontal = 1;
origin = "{0, 11}";
target = down;
type = TopGhost;
}
);
layerId = "CF2D4400-0F4D-4A72-A30C-ABA3B96311EF";
paths = (
{
closed = 1;
nodes = (
"528 -15 OFFCURVE",
"585 31 OFFCURVE",
"585 136 CURVE SMOOTH",
"585 223 OFFCURVE",
"548 263 OFFCURVE",
"410 324 CURVE",
"492 414 OFFCURVE",
"520 465 OFFCURVE",
"520 525 CURVE SMOOTH",
"520 626 OFFCURVE",
"453 675 OFFCURVE",
"312 675 CURVE SMOOTH",
"181 675 OFFCURVE",
"130 629 OFFCURVE",
"120 500 CURVE",
"50 500 LINE",
"50 431 LINE",
"120 431 LINE",
"120 0 LINE",
"220 0 LINE",
"220 588 LINE",
"253 594 OFFCURVE",
"278 596 OFFCURVE",
"300 596 CURVE SMOOTH",
"382 596 OFFCURVE",
"420 569 OFFCURVE",
"420 511 CURVE SMOOTH",
"420 419 OFFCURVE",
"322 383 OFFCURVE",
"322 315 CURVE SMOOTH",
"322 276 OFFCURVE",
"340 263 OFFCURVE",
"485 196 CURVE",
"485 71 LINE",
"468 66 OFFCURVE",
"444 64 OFFCURVE",
"410 64 CURVE SMOOTH",
"367 64 OFFCURVE",
"316 73 OFFCURVE",
"274 88 CURVE",
"258 8 LINE",
"307 -7 OFFCURVE",
"357 -15 OFFCURVE",
"400 -15 CURVE SMOOTH"
);
}
);
width = 630;
}
);
leftKerningGroup = h;
leftMetricsKey = f;
rightKerningGroup = germandbls;
rightMetricsKey = s;
unicode = 00DF;
},
{
glyphname = t;
layers = (
{
anchors = (
{
name = bottom;
position = "{182, 0}";
},
{
name = center;
position = "{170, 255}";
},
{
name = top;
position = "{170, 625}";
},
{
name = topright;
position = "{299, 500}";
}
);
layerId = "62EAF1BF-1B79-4549-96F9-774E14A065EF";
paths = (
{
closed = 1;
nodes = (
"234 -15 OFFCURVE",
"274 -10 OFFCURVE",
"320 1 CURVE",
"329 136 LINE",
"312 137 OFFCURVE",
"292 139 OFFCURVE",
"270 143 CURVE",
"270 630 LINE",
"70 580 LINE",
"70 94 LINE SMOOTH",
"70 19 OFFCURVE",
"111 -15 OFFCURVE",
"199 -15 CURVE SMOOTH"
);
},
{
closed = 1;
nodes = (
"339 371 LINE",
"339 500 LINE",
"20 500 LINE",
"20 371 LINE"
);
}
);
width = 364;
},
{
anchors = (
{
name = bottom;
position = "{177, 0}";
},
{
name = center;
position = "{170, 260}";
},
{
name = top;
position = "{170, 625}";
},
{
name = topright;
position = "{269, 500}";
}
);
background = {
paths = (
{
closed = 1;
nodes = (
"250 631 LINE",
"90 591 LINE",
"90 94 LINE SMOOTH",
"90 -6 OFFCURVE",
"178 -11 OFFCURVE",
"290 -11 CURVE",
"299 98 LINE",
"283 99 OFFCURVE",
"266 101 OFFCURVE",
"250 103 CURVE"
);
},
{
closed = 1;
nodes = (
"20 391 LINE",
"339 391 LINE",
"339 500 LINE",
"20 500 LINE"
);
},
{
closed = 1;
nodes = (
"20 391 LINE",
"90 391 LINE",
"90 94 LINE SMOOTH",
"90 -6 OFFCURVE",
"178 -11 OFFCURVE",
"290 -11 CURVE",
"299 98 LINE",
"283 99 OFFCURVE",
"266 101 OFFCURVE",
"250 103 CURVE",
"250 391 LINE",
"339 391 LINE",
"339 500 LINE",
"250 500 LINE",
"250 631 LINE",
"90 591 LINE",
"90 500 LINE",
"20 500 LINE"
);
}
);
};
hints = (
{
horizontal = 1;
origin = "{0, 12}";
target = "{0, 3}";
type = Stem;
},
{
horizontal = 1;
origin = "{1, 2}";
target = "{1, 3}";
type = Stem;
},
{
horizontal = 1;
origin = "{0, 7}";
target = down;
type = TopGhost;
},
{
origin = "{0, 9}";
target = "{0, 6}";
type = Stem;
},
{
horizontal = 1;
origin = "{0, 12}";
target = up;
type = BottomGhost;
},
{
horizontal = 1;
origin = "{0, 7}";
target = down;
type = TopGhost;
}
);
layerId = "CF2D4400-0F4D-4A72-A30C-ABA3B96311EF";
paths = (
{
closed = 1;
nodes = (
"215 -10 OFFCURVE",
"244 -7 OFFCURVE",
"285 1 CURVE",
"291 69 LINE",
"257 70 OFFCURVE",
"238 72 OFFCURVE",
"220 74 CURVE",
"220 632 LINE",
"120 607 LINE",
"120 65 LINE SMOOTH",
"120 14 OFFCURVE",
"144 -10 OFFCURVE",
"194 -10 CURVE SMOOTH"
);
},
{
closed = 1;
nodes = (
"309 431 LINE",
"309 500 LINE",
"50 500 LINE",
"50 431 LINE"
);
}
);
width = 354;
}
);
leftKerningGroup = t;
rightKerningGroup = t;
unicode = 0074;
},
{
glyphname = u;
layers = (
{
anchors = (
{
name = bottom;
position = "{298, 0}";
},
{
name = ogonek;
position = "{545, 0}";
},
{
name = top;
position = "{298, 500}";
},
{
name = topright;
position = "{545, 500}";
}
);
background = {
paths = (
{
closed = 1;
nodes = (
"288 -15 OFFCURVE",
"347 9 OFFCURVE",
"387 57 CURVE",
"445 0 LINE",
"545 0 LINE",
"545 500 LINE",
"345 500 LINE",
"345 173 LINE SMOOTH",
"345 134 OFFCURVE",
"316 131 OFFCURVE",
"276 131 CURVE SMOOTH",
"245 131 LINE",
"245 500 LINE",
"45 500 LINE",
"45 150 LINE SMOOTH",
"45 29 OFFCURVE",
"99 -15 OFFCURVE",
"216 -15 CURVE SMOOTH"
);
}
);
};
layerId = "62EAF1BF-1B79-4549-96F9-774E14A065EF";
paths = (
{
closed = 1;
nodes = (
"345 500 LINE",
"345 148 LINE SMOOTH",
"345 128 OFFCURVE",
"334 120 OFFCURVE",
"306 120 CURVE SMOOTH",
"245 120 LINE",
"245 500 LINE",
"45 500 LINE",
"45 130 LINE SMOOTH",
"45 29 OFFCURVE",
"91 -15 OFFCURVE",
"195 -15 CURVE SMOOTH",
"268 -15 OFFCURVE",
"337 7 OFFCURVE",
"395 50 CURVE",
"445 0 LINE",
"545 0 LINE",
"545 500 LINE"
);
}
);
width = 595;
},
{
anchors = (
{
name = bottom;
position = "{288, 0}";
},
{
name = ogonek;
position = "{485, 0}";
},
{
name = top;
position = "{288, 500}";
},
{
name = topright;
position = "{486, 500}";
}
);
background = {
paths = (
{
closed = 1;
nodes = (
"455 0 LINE",
"455 500 LINE",
"355 500 LINE",
"355 170 LINE SMOOTH",
"355 100 OFFCURVE",
"305 92 OFFCURVE",
"243 92 CURVE SMOOTH",
"175 92 LINE",
"175 500 LINE",
"75 500 LINE",
"75 100 LINE SMOOTH",
"75 12 OFFCURVE",
"116 -10 OFFCURVE",
"186 -10 CURVE SMOOTH",
"246 -10 OFFCURVE",
"311 8 OFFCURVE",
"372 60 CURVE",
"409 0 LINE"
);
},
{
closed = 1;
nodes = (
"160 81 LINE",
"160 350 LINE SMOOTH",
"160 400 OFFCURVE",
"185 408 OFFCURVE",
"239 408 CURVE SMOOTH",
"356 408 LINE",
"356 139 LINE SMOOTH",
"356 89 OFFCURVE",
"331 81 OFFCURVE",
"277 81 CURVE SMOOTH"
);
}
);
};
hints = (
{
horizontal = 1;
origin = "{0, 11}";
target = "{0, 5}";
type = Stem;
},
{
horizontal = 1;
origin = "{0, 7}";
target = down;
type = TopGhost;
},
{
origin = "{0, 8}";
target = "{0, 5}";
type = Stem;
},
{
origin = "{0, 1}";
target = "{0, 16}";
type = Stem;
},
{
horizontal = 1;
origin = "{0, 7}";
target = down;
type = TopGhost;
},
{
horizontal = 1;
origin = "{0, 11}";
target = up;
type = BottomGhost;
}
);
layerId = "CF2D4400-0F4D-4A72-A30C-ABA3B96311EF";
paths = (
{
closed = 1;
nodes = (
"386 500 LINE",
"386 125 LINE SMOOTH",
"386 80 OFFCURVE",
"367 67 OFFCURVE",
"301 67 CURVE SMOOTH",
"185 67 LINE",
"185 500 LINE",
"85 500 LINE",
"85 95 LINE SMOOTH",
"85 23 OFFCURVE",
"126 -10 OFFCURVE",
"217 -10 CURVE SMOOTH",
"298 -10 OFFCURVE",
"360 9 OFFCURVE",
"413 50 CURVE",
"440 0 LINE",
"486 0 LINE",
"486 500 LINE"
);
}
);
width = 576;
}
);
leftKerningGroup = u;
leftMetricsKey = "=|n";
rightKerningGroup = u;
rightMetricsKey = "=|n";
unicode = 0075;
},
{
glyphname = v;
layers = (
{
guideLines = (
{
angle = 169.711;
position = "{331, 500}";
showMeasurement = 1;
}
);
layerId = "62EAF1BF-1B79-4549-96F9-774E14A065EF";
paths = (
{
closed = 1;
nodes = (
"117 0 LINE",
"417 0 LINE",
"531 500 LINE",
"336 500 LINE",
"272 175 LINE",
"262 175 LINE",
"198 500 LINE",
"3 500 LINE"
);
}
);
width = 534;
},
{
background = {
paths = (
{
closed = 1;
nodes = (
"115 0 LINE",
"345 0 LINE",
"470 500 LINE",
"310 500 LINE",
"235 135 LINE",
"225 135 LINE",
"150 500 LINE",
"-10 500 LINE"
);
}
);
};
guideLines = (
{
angle = 195.961;
position = "{110, 500}";
showMeasurement = 1;
}
);
hints = (
{
horizontal = 1;
origin = "{0, 0}";
target = "{0, 5}";
type = Stem;
},
{
horizontal = 1;
origin = "{0, 0}";
target = up;
type = BottomGhost;
},
{
horizontal = 1;
origin = "{0, 7}";
target = down;
type = TopGhost;
}
);
layerId = "CF2D4400-0F4D-4A72-A30C-ABA3B96311EF";
paths = (
{
closed = 1;
nodes = (
"154 0 LINE",
"306 0 LINE",
"454 500 LINE",
"355 500 LINE",
"235 85 LINE",
"225 85 LINE",
"105 500 LINE",
"6 500 LINE"
);
}
);
width = 460;
}
);
leftKerningGroup = v;
rightKerningGroup = v;
unicode = 0076;
},
{
glyphname = w;
layers = (
{
anchors = (
{
name = bottom;
position = "{400, 0}";
},
{
name = top;
position = "{400, 500}";
}
);
background = {
paths = (
{
closed = 1;
nodes = (
"114 0 LINE",
"350 0 LINE",
"393 215 LINE",
"401 215 LINE",
"440 0 LINE",
"686 0 LINE",
"786 500 LINE",
"590 500 LINE",
"542 203 LINE",
"531 203 LINE",
"475 500 LINE",
"325 500 LINE",
"262 203 LINE",
"251 203 LINE",
"210 500 LINE",
"14 500 LINE"
);
}
);
};
layerId = "62EAF1BF-1B79-4549-96F9-774E14A065EF";
paths = (
{
closed = 1;
nodes = (
"703 0 LINE",
"797 500 LINE",
"602 500 LINE",
"553 175 LINE",
"543 175 LINE",
"484 500 LINE",
"339 500 LINE",
"438 0 LINE"
);
},
{
closed = 1;
nodes = (
"362 0 LINE",
"461 500 LINE",
"316 500 LINE",
"257 175 LINE",
"247 175 LINE",
"198 500 LINE",
"3 500 LINE",
"97 0 LINE"
);
}
);
width = 800;
},
{
anchors = (
{
name = bottom;
position = "{351, 0}";
},
{
name = top;
position = "{351, 500}";
}
);
background = {
paths = (
{
closed = 1;
nodes = (
"123 0 LINE",
"272 0 LINE",
"345 295 LINE",
"353 295 LINE",
"422 0 LINE",
"572 0 LINE",
"684 500 LINE",
"582 500 LINE",
"494 85 LINE",
"483 85 LINE",
"394 470 LINE",
"310 470 LINE",
"214 85 LINE",
"203 85 LINE",
"122 500 LINE",
"20 500 LINE"
);
}
);
};
hints = (
{
horizontal = 1;
origin = "{1, 7}";
target = "{1, 4}";
type = Stem;
},
{
horizontal = 1;
origin = "{1, 7}";
target = up;
type = BottomGhost;
},
{
horizontal = 1;
origin = "{1, 6}";
target = down;
type = TopGhost;
}
);
layerId = "CF2D4400-0F4D-4A72-A30C-ABA3B96311EF";
paths = (
{
closed = 1;
nodes = (
"573 0 LINE",
"696 500 LINE",
"597 500 LINE",
"502 85 LINE",
"492 85 LINE",
"397 500 LINE",
"317 500 LINE",
"435 0 LINE"
);
},
{
closed = 1;
nodes = (
"267 0 LINE",
"385 500 LINE",
"305 500 LINE",
"210 85 LINE",
"200 85 LINE",
"105 500 LINE",
"6 500 LINE",
"129 0 LINE"
);
}
);
width = 702;
}
);
leftKerningGroup = w;
rightKerningGroup = w;
unicode = 0077;
},
{
glyphname = x;
layers = (
{
background = {
paths = (
{
closed = 1;
nodes = (
"135 272 LINE",
"-2 0 LINE",
"206 0 LINE",
"269 150 LINE"
);
},
{
closed = 1;
nodes = (
"338 376 LINE",
"267 376 LINE",
"211 500 LINE",
"3 500 LINE",
"192 135 LINE",
"268 135 LINE",
"330 0 LINE",
"538 0 LINE"
);
},
{
closed = 1;
nodes = (
"401 230 LINE",
"533 500 LINE",
"325 500 LINE",
"267 361 LINE"
);
}
);
};
guideLines = (
{
angle = 33.185;
position = "{236, 500}";
showMeasurement = 1;
},
{
angle = 148.777;
position = "{345, 500}";
showMeasurement = 1;
}
);
layerId = "62EAF1BF-1B79-4549-96F9-774E14A065EF";
paths = (
{
closed = 1;
nodes = (
"559 0 LINE",
"225 500 LINE",
"3 500 LINE",
"337 0 LINE"
);
},
{
closed = 1;
nodes = (
"217 0 LINE",
"310 170 LINE",
"191 308 LINE",
"3 0 LINE"
);
},
{
closed = 1;
nodes = (
"559 500 LINE",
"345 500 LINE",
"252 330 LINE",
"365 182 LINE"
);
}
);
width = 562;
},
{
background = {
paths = (
{
closed = 1;
nodes = (
"301 237 LINE",
"465 500 LINE",
"357 500 LINE",
"232 297 LINE"
);
}
);
};
guideLines = (
{
angle = 148.053;
position = "{138, 0}";
showMeasurement = 1;
}
);
hints = (
{
horizontal = 1;
origin = "{1, 3}";
target = up;
type = BottomGhost;
},
{
horizontal = 1;
origin = "{0, 2}";
target = down;
type = TopGhost;
}
);
layerId = "CF2D4400-0F4D-4A72-A30C-ABA3B96311EF";
paths = (
{
closed = 1;
nodes = (
"480 0 LINE",
"138 500 LINE",
"31 500 LINE",
"373 0 LINE"
);
},
{
closed = 1;
nodes = (
"132 0 LINE",
"263 208 LINE",
"204 273 LINE",
"26 0 LINE"
);
},
{
closed = 1;
nodes = (
"475 500 LINE",
"369 500 LINE",
"238 292 LINE",
"296 227 LINE"
);
}
);
width = 506;
}
);
leftKerningGroup = x;
rightKerningGroup = x;
unicode = 0078;
},
{
glyphname = y;
layers = (
{
anchors = (
{
name = bottom;
position = "{262, -180}";
},
{
name = top;
position = "{262, 500}";
}
);
background = {
paths = (
{
closed = 0;
nodes = (
"254 -30 LINE SMOOTH",
"25 -60 LINE"
);
}
);
};
layerId = "62EAF1BF-1B79-4549-96F9-774E14A065EF";
paths = (
{
closed = 1;
nodes = (
"412 50 LINE",
"521 500 LINE",
"326 500 LINE",
"267 225 LINE",
"257 225 LINE",
"198 500 LINE",
"3 500 LINE",
"112 50 LINE"
);
},
{
closed = 1;
nodes = (
"304 -180 OFFCURVE",
"371 -123 OFFCURVE",
"412 50 CURVE",
"229 50 LINE",
"227 40 LINE SMOOTH",
"215 -23 OFFCURVE",
"205 -37 OFFCURVE",
"150 -44 CURVE SMOOTH",
"30 -59 LINE",
"21 -164 LINE",
"54 -174 OFFCURVE",
"99 -180 OFFCURVE",
"141 -180 CURVE SMOOTH"
);
}
);
width = 524;
},
{
anchors = (
{
name = bottom;
position = "{225, -175}";
},
{
name = top;
position = "{225, 500}";
}
);
background = {
paths = (
{
closed = 1;
nodes = (
"158 -440 LINE",
"301 30 LINE",
"202 30 LINE",
"87 -355 LINE",
"77 -355 LINE",
"-38 30 LINE",
"-137 30 LINE",
"6 -440 LINE"
);
}
);
};
hints = (
{
horizontal = 1;
origin = "{0, 7}";
target = "{0, 4}";
type = Stem;
},
{
horizontal = 1;
origin = "{1, 12}";
target = "{1, 8}";
type = Stem;
},
{
horizontal = 1;
origin = "{1, 12}";
target = up;
type = BottomGhost;
},
{
horizontal = 1;
origin = "{0, 6}";
target = down;
type = TopGhost;
}
);
layerId = "CF2D4400-0F4D-4A72-A30C-ABA3B96311EF";
paths = (
{
closed = 1;
nodes = (
"301 30 LINE",
"444 500 LINE",
"345 500 LINE",
"230 115 LINE",
"220 115 LINE",
"105 500 LINE",
"6 500 LINE",
"149 30 LINE"
);
},
{
closed = 1;
nodes = (
"203 -175 OFFCURVE",
"254 -125 OFFCURVE",
"301 30 CURVE",
"205 30 LINE",
"196 0 LINE SMOOTH",
"174 -74 OFFCURVE",
"154 -92 OFFCURVE",
"79 -102 CURVE SMOOTH",
"10 -111 LINE",
"6 -164 LINE",
"30 -171 OFFCURVE",
"64 -175 OFFCURVE",
"93 -175 CURVE SMOOTH"
);
}
);
width = 450;
}
);
leftKerningGroup = y;
rightKerningGroup = y;
unicode = 0079;
},
{
glyphname = z;
layers = (
{
anchors = (
{
name = bottom;
position = "{265, 0}";
},
{
name = top;
position = "{275, 500}";
}
);
background = {
paths = (
{
closed = 0;
nodes = (
"483 400 LINE",
"281 135 LINE"
);
}
);
};
guideLines = (
{
angle = 141.871;
position = "{373, 175}";
showMeasurement = 1;
}
);
layerId = "62EAF1BF-1B79-4549-96F9-774E14A065EF";
paths = (
{
closed = 1;
nodes = (
"35 110 LINE",
"35 0 LINE",
"495 0 LINE",
"495 144 LINE",
"290 144 LINE",
"287 150 LINE",
"488 390 LINE",
"488 500 LINE",
"50 500 LINE",
"63 356 LINE",
"233 356 LINE",
"236 350 LINE"
);
}
);
width = 530;
},
{
anchors = (
{
name = bottom;
position = "{237, 0}";
},
{
name = top;
position = "{257, 500}";
}
);
background = {
paths = (
{
closed = 0;
nodes = (
"40 55 LINE",
"347 465 LINE"
);
}
);
};
hints = (
{
horizontal = 1;
origin = "{0, 1}";
target = "{0, 4}";
type = Stem;
},
{
horizontal = 1;
origin = "{0, 8}";
target = "{0, 9}";
type = Stem;
},
{
horizontal = 1;
origin = "{0, 1}";
target = up;
type = BottomGhost;
},
{
horizontal = 1;
origin = "{0, 8}";
target = down;
type = TopGhost;
}
);
layerId = "CF2D4400-0F4D-4A72-A30C-ABA3B96311EF";
paths = (
{
closed = 1;
nodes = (
"40 55 LINE",
"40 0 LINE",
"428 0 LINE",
"428 72 LINE",
"167 72 LINE",
"164 78 LINE",
"433 445 LINE",
"433 500 LINE",
"60 500 LINE",
"68 428 LINE",
"305 428 LINE",
"309 422 LINE"
);
}
);
width = 473;
}
);
leftKerningGroup = z;
rightKerningGroup = z;
unicode = 007A;
},
{
glyphname = ordfeminine;
layers = (
{
components = (
{
name = strokeshortcomb;
transform = "{1.1, 0, 0, 1, 10, -59}";
}
);
guideLines = (
{
angle = 270;
position = "{411, 481}";
}
);
layerId = "62EAF1BF-1B79-4549-96F9-774E14A065EF";
paths = (
{
closed = 1;
nodes = (
"198 338 OFFCURVE",
"245 356 OFFCURVE",
"285 389 CURVE",
"326 350 LINE",
"410 350 LINE",
"410 612 LINE SMOOTH",
"410 708 OFFCURVE",
"352 752 OFFCURVE",
"226 752 CURVE SMOOTH",
"159 752 OFFCURVE",
"96 744 OFFCURVE",
"32 725 CURVE",
"52 610 LINE",
"106 623 OFFCURVE",
"158 631 OFFCURVE",
"210 631 CURVE SMOOTH",
"223 631 OFFCURVE",
"234 630 OFFCURVE",
"243 628 CURVE",
"243 478 LINE SMOOTH",
"243 457 OFFCURVE",
"230 450 OFFCURVE",
"190 450 CURVE SMOOTH",
"168 450 LINE",
"168 490 LINE SMOOTH",
"168 512 OFFCURVE",
"180 520 OFFCURVE",
"220 520 CURVE SMOOTH",
"267 520 LINE",
"267 592 LINE",
"217 592 LINE SMOOTH",
"73 592 OFFCURVE",
"13 557 OFFCURVE",
"13 473 CURVE SMOOTH",
"13 381 OFFCURVE",
"56 338 OFFCURVE",
"153 338 CURVE SMOOTH"
);
}
);
userData = {
RMXScaler = {
adjustSpace = 15;
height = 80;
verticalShift = 360;
weight = -30;
width = 85;
};
};
width = 433;
},
{
background = {
paths = (
{
closed = 1;
nodes = (
"126 770 OFFCURVE",
"64 764 OFFCURVE",
"9 748 CURVE",
"28 648 LINE",
"73 660 OFFCURVE",
"116 666 OFFCURVE",
"161 666 CURVE SMOOTH",
"181 666 OFFCURVE",
"201 665 OFFCURVE",
"221 662 CURVE",
"221 606 LINE",
"197 606 LINE SMOOTH",
"61 606 OFFCURVE",
"-23 577 OFFCURVE",
"-23 475 CURVE SMOOTH",
"-23 363 OFFCURVE",
"47 344 OFFCURVE",
"102 344 CURVE SMOOTH",
"152 344 OFFCURVE",
"205 364 OFFCURVE",
"235 398 CURVE",
"273 356 LINE",
"360 356 LINE",
"360 635 LINE SMOOTH",
"360 744 OFFCURVE",
"279 770 OFFCURVE",
"182 770 CURVE SMOOTH"
);
},
{
closed = 1;
nodes = (
"122 503 LINE SMOOTH",
"122 527 OFFCURVE",
"141 528 OFFCURVE",
"168 528 CURVE SMOOTH",
"221 528 LINE",
"221 474 LINE",
"218 454 OFFCURVE",
"200 452 OFFCURVE",
"173 452 CURVE SMOOTH",
"122 452 LINE"
);
},
{
closed = 1;
nodes = (
"6 201 LINE",
"306 201 LINE SMOOTH",
"335 201 OFFCURVE",
"354 203 OFFCURVE",
"354 232 CURVE SMOOTH",
"354 290 LINE",
"54 290 LINE SMOOTH",
"25 290 OFFCURVE",
"6 290 OFFCURVE",
"6 261 CURVE SMOOTH"
);
}
);
};
components = (
{
name = strokeshortcomb;
transform = "{1.1, 0, 0, 1, 12, -22}";
}
);
guideLines = (
{
angle = 269.799;
position = "{353, 493}";
}
);
hints = (
{
horizontal = 1;
origin = "{0, 12}";
target = "{0, 15}";
type = Stem;
},
{
horizontal = 1;
place = "{747, -2147483648}";
type = Stem;
},
{
horizontal = 1;
place = "{662, 62}";
type = Stem;
},
{
origin = "{0, 12}";
target = "{0, 24}";
type = Stem;
},
{
origin = "{0, 30}";
target = "{0, 3}";
type = Stem;
}
);
layerId = "CF2D4400-0F4D-4A72-A30C-ABA3B96311EF";
paths = (
{
closed = 1;
nodes = (
"206 342 OFFCURVE",
"251 357 OFFCURVE",
"289 389 CURVE",
"312 350 LINE",
"352 350 LINE",
"353 635 LINE SMOOTH",
"353 717 OFFCURVE",
"313 747 OFFCURVE",
"205 747 CURVE SMOOTH",
"151 747 OFFCURVE",
"87 738 OFFCURVE",
"46 724 CURVE",
"57 662 LINE",
"105 673 OFFCURVE",
"151 680 OFFCURVE",
"191 680 CURVE SMOOTH",
"222 680 OFFCURVE",
"245 678 OFFCURVE",
"266 673 CURVE",
"266 450 LINE SMOOTH",
"266 417 OFFCURVE",
"252 407 OFFCURVE",
"204 407 CURVE SMOOTH",
"106 407 LINE",
"106 487 LINE SMOOTH",
"106 521 OFFCURVE",
"121 531 OFFCURVE",
"169 531 CURVE SMOOTH",
"290 531 LINE",
"290 580 LINE",
"254 580 LINE SMOOTH",
"59 580 OFFCURVE",
"28 563 OFFCURVE",
"28 460 CURVE SMOOTH",
"28 376 OFFCURVE",
"63 342 OFFCURVE",
"150 342 CURVE SMOOTH"
);
}
);
userData = {
RMXScaler = {
adjustSpace = 15;
height = 80;
verticalShift = 360;
weight = -15;
width = 85;
};
};
width = 396;
}
);
leftKerningGroup = ordfeminine;
leftMetricsKey = "=a/2";
rightKerningGroup = ordfeminine;
rightMetricsKey = "=a/2";
unicode = 00AA;
userData = {
RMXScaler = {
source = a;
};
};
},
{
glyphname = ordmasculine;
layers = (
{
components = (
{
name = strokeshortcomb;
transform = "{1.2, 0, 0, 1, 43, -55}";
}
);
guideLines = (
{
position = "{44, 415}";
},
{
angle = 90;
position = "{42, 633}";
}
);
layerId = "62EAF1BF-1B79-4549-96F9-774E14A065EF";
paths = (
{
closed = 1;
nodes = (
"420 348 OFFCURVE",
"489 416 OFFCURVE",
"489 560 CURVE SMOOTH",
"489 704 OFFCURVE",
"420 772 OFFCURVE",
"265 772 CURVE SMOOTH",
"111 772 OFFCURVE",
"42 705 OFFCURVE",
"42 560 CURVE SMOOTH",
"42 416 OFFCURVE",
"111 348 OFFCURVE",
"265 348 CURVE SMOOTH"
);
},
{
closed = 1;
nodes = (
"221 625 LINE SMOOTH",
"221 642 OFFCURVE",
"228 647 OFFCURVE",
"254 647 CURVE SMOOTH",
"310 647 LINE",
"310 495 LINE SMOOTH",
"310 478 OFFCURVE",
"302 473 OFFCURVE",
"276 473 CURVE SMOOTH",
"221 473 LINE"
);
}
);
userData = {
RMXScaler = {
adjustSpace = 15;
height = 80;
verticalShift = 360;
weight = -30;
width = 85;
};
};
width = 531;
},
{
background = {
paths = (
{
closed = 1;
nodes = (
"35 416 OFFCURVE",
"91 344 OFFCURVE",
"233 344 CURVE SMOOTH",
"375 344 OFFCURVE",
"431 416 OFFCURVE",
"431 557 CURVE SMOOTH",
"431 698 OFFCURVE",
"375 770 OFFCURVE",
"233 770 CURVE SMOOTH",
"91 770 OFFCURVE",
"35 698 OFFCURVE",
"35 557 CURVE SMOOTH"
);
},
{
closed = 1;
nodes = (
"186 638 LINE SMOOTH",
"186 661 OFFCURVE",
"205 663 OFFCURVE",
"232 663 CURVE SMOOTH",
"280 663 LINE",
"280 477 LINE SMOOTH",
"280 454 OFFCURVE",
"260 452 OFFCURVE",
"233 452 CURVE SMOOTH",
"186 452 LINE"
);
},
{
closed = 1;
nodes = (
"55 201 LINE",
"355 201 LINE SMOOTH",
"384 201 OFFCURVE",
"403 203 OFFCURVE",
"403 232 CURVE SMOOTH",
"403 290 LINE",
"103 290 LINE SMOOTH",
"74 290 OFFCURVE",
"55 290 OFFCURVE",
"55 261 CURVE SMOOTH"
);
}
);
};
components = (
{
name = strokeshortcomb;
transform = "{1.2, 0, 0, 1, 56, -21}";
}
);
guideLines = (
{
angle = 90;
position = "{70, 643}";
}
);
hints = (
{
horizontal = 1;
place = "{695, 0}";
type = Stem;
},
{
horizontal = 1;
place = "{705, 62}";
type = Stem;
},
{
origin = "{0, 8}";
target = "{1, 0}";
type = Stem;
},
{
origin = "{0, 5}";
target = "{0, 5}";
type = Stem;
}
);
layerId = "CF2D4400-0F4D-4A72-A30C-ABA3B96311EF";
paths = (
{
closed = 1;
nodes = (
"395 352 OFFCURVE",
"430 395 OFFCURVE",
"430 560 CURVE SMOOTH",
"430 726 OFFCURVE",
"396 768 OFFCURVE",
"250 768 CURVE SMOOTH",
"106 768 OFFCURVE",
"70 725 OFFCURVE",
"70 560 CURVE SMOOTH",
"70 395 OFFCURVE",
"106 352 OFFCURVE",
"250 352 CURVE SMOOTH"
);
},
{
closed = 1;
nodes = (
"159 678 LINE SMOOTH",
"159 694 OFFCURVE",
"168 698 OFFCURVE",
"198 698 CURVE SMOOTH",
"341 698 LINE",
"341 442 LINE SMOOTH",
"341 426 OFFCURVE",
"333 422 OFFCURVE",
"302 422 CURVE SMOOTH",
"159 422 LINE"
);
}
);
userData = {
RMXScaler = {
adjustSpace = 15;
height = 80;
verticalShift = 360;
weight = -15;
width = 85;
};
};
width = 500;
}
);
leftKerningGroup = ordmasculine;
rightKerningGroup = ordmasculine;
unicode = 00BA;
userData = {
RMXScaler = {
source = o;
};
};
},
{
glyphname = Omega;
layers = (
{
layerId = "62EAF1BF-1B79-4549-96F9-774E14A065EF";
paths = (
{
closed = 1;
nodes = (
"413 483 LINE SMOOTH",
"458 483 OFFCURVE",
"472 471 OFFCURVE",
"472 433 CURVE SMOOTH",
"472 230 LINE",
"413 230 LINE",
"428 0 LINE",
"694 0 LINE",
"694 123 LINE",
"551 132 LINE",
"551 156 LINE",
"646 176 OFFCURVE",
"687 250 OFFCURVE",
"687 375 CURVE SMOOTH",
"687 556 OFFCURVE",
"585 640 OFFCURVE",
"363 640 CURVE SMOOTH",
"141 640 OFFCURVE",
"39 556 OFFCURVE",
"39 375 CURVE SMOOTH",
"39 250 OFFCURVE",
"80 176 OFFCURVE",
"175 156 CURVE",
"175 132 LINE",
"32 123 LINE",
"32 0 LINE",
"298 0 LINE",
"313 230 LINE",
"268 230 OFFCURVE",
"254 242 OFFCURVE",
"254 280 CURVE SMOOTH",
"254 483 LINE"
);
}
);
width = 726;
},
{
layerId = "CF2D4400-0F4D-4A72-A30C-ABA3B96311EF";
paths = (
{
closed = 1;
nodes = (
"426 563 LINE SMOOTH",
"470 563 OFFCURVE",
"500 558 OFFCURVE",
"500 500 CURVE SMOOTH",
"500 187 LINE",
"413 187 LINE",
"428 0 LINE",
"621 0 LINE",
"621 63 LINE",
"491 71 LINE",
"485 139 LINE",
"583 161 OFFCURVE",
"607 206 OFFCURVE",
"607 375 CURVE SMOOTH",
"607 594 OFFCURVE",
"551 640 OFFCURVE",
"333 640 CURVE SMOOTH",
"115 640 OFFCURVE",
"59 594 OFFCURVE",
"59 375 CURVE SMOOTH",
"59 206 OFFCURVE",
"83 161 OFFCURVE",
"181 139 CURVE",
"175 71 LINE",
"45 63 LINE",
"45 0 LINE",
"238 0 LINE",
"253 187 LINE",
"201 187 OFFCURVE",
"166 194 OFFCURVE",
"166 273 CURVE SMOOTH",
"166 563 LINE"
);
}
);
width = 666;
}
);
leftKerningGroup = uni03A9;
rightKerningGroup = uni03A9;
unicode = 03A9;
},
{
glyphname = pi;
layers = (
{
layerId = "62EAF1BF-1B79-4549-96F9-774E14A065EF";
paths = (
{
closed = 1;
nodes = (
"225 0 LINE",
"281 312 LINE SMOOTH",
"286 339 OFFCURVE",
"299 349 OFFCURVE",
"325 349 CURVE SMOOTH",
"535 351 LINE SMOOTH",
"608 352 OFFCURVE",
"630 393 OFFCURVE",
"630 529 CURVE",
"483 536 LINE",
"482 521 OFFCURVE",
"480 509 OFFCURVE",
"477 500 CURVE",
"45 500 LINE",
"45 378 LINE",
"98 366 LINE",
"73 0 LINE"
);
},
{
closed = 1;
nodes = (
"514 -15 OFFCURVE",
"552 -9 OFFCURVE",
"592 1 CURVE",
"601 136 LINE",
"588 137 OFFCURVE",
"572 139 OFFCURVE",
"552 143 CURVE",
"552 423 LINE",
"352 423 LINE",
"352 94 LINE SMOOTH",
"352 19 OFFCURVE",
"393 -15 OFFCURVE",
"481 -15 CURVE SMOOTH"
);
}
);
width = 657;
},
{
background = {
paths = (
{
closed = 1;
nodes = (
"80 500 LINE",
"80 428 LINE",
"123 416 LINE",
"98 0 LINE",
"180 0 LINE",
"236 362 LINE SMOOTH",
"241 391 OFFCURVE",
"258 400 OFFCURVE",
"290 400 CURVE SMOOTH",
"387 400 LINE",
"387 94 LINE SMOOTH",
"387 -6 OFFCURVE",
"407 -11 OFFCURVE",
"537 -11 CURVE",
"546 86 LINE",
"530 87 OFFCURVE",
"513 90 OFFCURVE",
"497 93 CURVE",
"497 400 LINE",
"551 400 OFFCURVE",
"565 432 OFFCURVE",
"565 529 CURVE",
"478 536 LINE",
"477 525 OFFCURVE",
"475 512 OFFCURVE",
"472 500 CURVE"
);
}
);
};
layerId = "CF2D4400-0F4D-4A72-A30C-ABA3B96311EF";
paths = (
{
closed = 1;
nodes = (
"170 0 LINE",
"229 377 LINE SMOOTH",
"232 402 OFFCURVE",
"250 415 OFFCURVE",
"280 415 CURVE SMOOTH",
"477 415 LINE SMOOTH",
"543 415 OFFCURVE",
"555 433 OFFCURVE",
"555 529 CURVE",
"478 536 LINE",
"477 521 OFFCURVE",
"475 509 OFFCURVE",
"472 500 CURVE",
"80 500 LINE",
"80 433 LINE",
"128 421 LINE",
"98 0 LINE"
);
},
{
closed = 1;
nodes = (
"487 -7 OFFCURVE",
"506 -4 OFFCURVE",
"537 4 CURVE",
"543 72 LINE",
"527 73 OFFCURVE",
"513 75 OFFCURVE",
"497 77 CURVE",
"497 440 LINE",
"397 440 LINE",
"397 68 LINE SMOOTH",
"397 17 OFFCURVE",
"421 -7 OFFCURVE",
"471 -7 CURVE SMOOTH"
);
}
);
width = 617;
}
);
leftKerningGroup = pi;
rightKerningGroup = pi;
unicode = 03C0;
},
{
glyphname = "hamza-ar";
layers = (
{
anchors = (
{
name = bottom;
position = "{212, 0}";
},
{
name = top;
position = "{212, 500}";
}
);
background = {
paths = (
{
closed = 0;
nodes = (
"20 103 LINE",
"403 206 LINE"
);
}
);
};
hints = (
{
horizontal = 1;
origin = "{0, 6}";
target = "{0, 7}";
type = Stem;
},
{
origin = "{0, 10}";
target = "{0, 2}";
type = Stem;
}
);
layerId = "CF2D4400-0F4D-4A72-A30C-ABA3B96311EF";
paths = (
{
closed = 1;
nodes = (
"193 150 OFFCURVE",
"176 160 OFFCURVE",
"176 212 CURVE SMOOTH",
"176 364 LINE",
"222 390 OFFCURVE",
"294 405 OFFCURVE",
"362 405 CURVE",
"362 495 LINE",
"172 495 OFFCURVE",
"91 426 OFFCURVE",
"91 263 CURVE SMOOTH",
"91 204 OFFCURVE",
"101 159 OFFCURVE",
"120 130 CURVE",
"20 103 LINE",
"20 18 LINE",
"403 121 LINE",
"403 206 LINE",
"253 166 LINE SMOOTH"
);
}
);
width = 423;
},
{
anchors = (
{
name = bottom;
position = "{218, 0}";
},
{
name = top;
position = "{218, 500}";
}
);
annotations = (
{
position = "{295.391, 560.312}";
type = Text;
}
);
background = {
paths = (
{
closed = 0;
nodes = (
"20 146 LINE",
"416 252 LINE"
);
}
);
};
color = 1;
layerId = "62EAF1BF-1B79-4549-96F9-774E14A065EF";
paths = (
{
closed = 1;
nodes = (
"257 209 OFFCURVE",
"248 222 OFFCURVE",
"248 245 CURVE SMOOTH",
"248 296 LINE",
"275 309 OFFCURVE",
"333 324 OFFCURVE",
"377 324 CURVE",
"377 504 LINE",
"188 504 OFFCURVE",
"88 431 OFFCURVE",
"88 284 CURVE SMOOTH",
"88 233 OFFCURVE",
"98 192 OFFCURVE",
"115 171 CURVE",
"20 146 LINE",
"20 -23 LINE",
"426 86 LINE",
"426 255 LINE",
"290 218 LINE SMOOTH"
);
}
);
width = 456;
}
);
unicode = 0621;
},
{
glyphname = "alef-ar";
layers = (
{
anchors = (
{
name = bottom;
position = "{140, -80}";
},
{
name = top;
position = "{140, 730}";
}
);
annotations = (
{
position = "{84, 774}";
text = "+ 30 ascendentes";
type = Text;
}
);
hints = (
{
horizontal = 1;
origin = "{0, 3}";
target = up;
type = BottomGhost;
},
{
horizontal = 1;
origin = "{0, 2}";
target = down;
type = TopGhost;
},
{
origin = "{0, 3}";
target = "{0, 0}";
type = Stem;
},
{
horizontal = 1;
origin = "{0, 3}";
target = up;
type = BottomGhost;
},
{
horizontal = 1;
origin = "{0, 2}";
target = down;
type = TopGhost;
}
);
layerId = "CF2D4400-0F4D-4A72-A30C-ABA3B96311EF";
paths = (
{
closed = 1;
nodes = (
"180 0 LINE",
"180 630 LINE",
"100 630 LINE",
"100 0 LINE"
);
}
);
width = 280;
},
{
anchors = (
{
name = bottom;
position = "{150, -80}";
},
{
name = top;
position = "{150, 730}";
}
);
layerId = "62EAF1BF-1B79-4549-96F9-774E14A065EF";
paths = (
{
closed = 1;
nodes = (
"230 0 LINE",
"230 630 LINE",
"70 630 LINE",
"70 0 LINE"
);
}
);
width = 300;
}
);
unicode = 0627;
},
{
glyphname = "alef-ar.fina";
layers = (
{
anchors = (
{
name = bottom;
position = "{140, -80}";
},
{
name = entry;
position = "{280, 45}";
},
{
name = top;
position = "{140, 730}";
}
);
hints = (
{
horizontal = 1;
origin = "{0, 5}";
target = "{0, 2}";
type = Stem;
},
{
horizontal = 1;
origin = "{0, 4}";
target = down;
type = TopGhost;
},
{
origin = "{0, 5}";
target = "{0, 2}";
type = Stem;
},
{
horizontal = 1;
origin = "{0, 4}";
target = down;
type = TopGhost;
},
{
horizontal = 1;
origin = "{0, 5}";
target = up;
type = BottomGhost;
}
);
layerId = "CF2D4400-0F4D-4A72-A30C-ABA3B96311EF";
paths = (
{
closed = 1;
nodes = (
"300 0 LINE",
"300 90 LINE",
"180 90 LINE",
"180 630 LINE",
"100 630 LINE",
"100 0 LINE"
);
}
);
width = 280;
},
{
anchors = (
{
name = bottom;
position = "{150, -80}";
},
{
name = entry;
position = "{300, 90}";
},
{
name = top;
position = "{150, 730}";
}
);
layerId = "62EAF1BF-1B79-4549-96F9-774E14A065EF";
paths = (
{
closed = 1;
nodes = (
"320 0 LINE",
"320 180 LINE",
"230 180 LINE",
"230 630 LINE",
"70 630 LINE",
"70 0 LINE"
);
}
);
width = 300;
}
);
unicode = FE8E;
},
{
glyphname = "alef-ar.short";
layers = (
{
anchors = (
{
name = bottom;
position = "{140, -80}";
},
{
name = top;
position = "{140, 550}";
}
);
hints = (
{
horizontal = 1;
origin = "{0, 3}";
target = up;
type = BottomGhost;
},
{
horizontal = 1;
origin = "{0, 2}";
target = down;
type = TopGhost;
},
{
origin = "{0, 3}";
target = "{0, 0}";
type = Stem;
}
);
layerId = "CF2D4400-0F4D-4A72-A30C-ABA3B96311EF";
paths = (
{
closed = 1;
nodes = (
"180 0 LINE",
"180 470 LINE",
"100 470 LINE",
"100 0 LINE"
);
}
);
width = 280;
},
{
anchors = (
{
name = bottom;
position = "{150, -80}";
},
{
name = top;
position = "{150, 550}";
}
);
layerId = "62EAF1BF-1B79-4549-96F9-774E14A065EF";
paths = (
{
closed = 1;
nodes = (
"230 0 LINE",
"230 470 LINE",
"70 470 LINE",
"70 0 LINE"
);
}
);
width = 300;
}
);
},
{
glyphname = "alef-ar.fina.short";
layers = (
{
anchors = (
{
name = bottom;
position = "{140, -80}";
},
{
name = entry;
position = "{280, 45}";
},
{
name = top;
position = "{140, 550}";
}
);
hints = (
{
horizontal = 1;
origin = "{0, 5}";
target = "{0, 2}";
type = Stem;
},
{
horizontal = 1;
origin = "{0, 4}";
target = down;
type = TopGhost;
},
{
origin = "{0, 5}";
target = "{0, 2}";
type = Stem;
},
{
horizontal = 1;
origin = "{0, 5}";
target = up;
type = BottomGhost;
}
);
layerId = "CF2D4400-0F4D-4A72-A30C-ABA3B96311EF";
paths = (
{
closed = 1;
nodes = (
"300 0 LINE",
"300 90 LINE",
"180 90 LINE",
"180 470 LINE",
"100 470 LINE",
"100 0 LINE"
);
}
);
width = 280;
},
{
anchors = (
{
name = bottom;
position = "{150, -80}";
},
{
name = entry;
position = "{300, 90}";
},
{
name = top;
position = "{150, 550}";
}
);
layerId = "62EAF1BF-1B79-4549-96F9-774E14A065EF";
paths = (
{
closed = 1;
nodes = (
"320 0 LINE",
"320 180 LINE",
"230 180 LINE",
"230 470 LINE",
"70 470 LINE",
"70 0 LINE"
);
}
);
width = 300;
}
);
},
{
glyphname = "dotlessbeh-ar";
layers = (
{
anchors = (
{
name = bottom;
position = "{439, -90}";
},
{
name = top;
position = "{439, 450}";
}
);
hints = (
{
horizontal = 1;
origin = "{0, 17}";
target = "{0, 4}";
type = Stem;
},
{
horizontal = 1;
origin = "{0, 2}";
target = down;
type = TopGhost;
},
{
origin = "{0, 14}";
target = "{0, 7}";
type = Stem;
},
{
origin = "{0, 3}";
target = "{0, 0}";
type = Stem;
}
);
layerId = "CF2D4400-0F4D-4A72-A30C-ABA3B96311EF";
paths = (
{
closed = 1;
nodes = (
"784 0 LINE",
"784 470 LINE",
"704 470 LINE",
"704 90 LINE",
"166 90 LINE",
"154 127 OFFCURVE",
"150 167 OFFCURVE",
"150 222 CURVE SMOOTH",
"150 266 OFFCURVE",
"158 317 OFFCURVE",
"174 371 CURVE",
"98 384 LINE",
"81 338 OFFCURVE",
"70 266 OFFCURVE",
"70 206 CURVE SMOOTH",
"70 55 OFFCURVE",
"107 0 OFFCURVE",
"210 0 CURVE"
);
}
);
width = 884;
},
{
anchors = (
{
name = bottom;
position = "{459, -80}";
},
{
name = top;
position = "{459, 450}";
}
);
layerId = "62EAF1BF-1B79-4549-96F9-774E14A065EF";
paths = (
{
closed = 1;
nodes = (
"854 0 LINE",
"854 470 LINE",
"694 470 LINE",
"694 180 LINE",
"223 180 LINE",
"213 205 OFFCURVE",
"210 233 OFFCURVE",
"210 272 CURVE SMOOTH",
"210 314 OFFCURVE",
"219 355 OFFCURVE",
"236 400 CURVE",
"82 424 LINE",
"60 359 OFFCURVE",
"50 292 OFFCURVE",
"50 223 CURVE SMOOTH",
"50 69 OFFCURVE",
"106 0 OFFCURVE",
"229 0 CURVE"
);
}
);
width = 924;
}
);
unicode = 066E;
},
{
glyphname = "dotlessbeh-ar.fina";
layers = (
{
anchors = (
{
name = bottom;
position = "{439, -90}";
},
{
name = entry;
position = "{884, 45}";
},
{
name = top;
position = "{439, 450}";
}
);
components = (
{
name = "dotlessbeh-ar";
}
);
hints = (
{
horizontal = 1;
origin = "{0, 0}";
target = "{0, 3}";
type = Stem;
}
);
layerId = "CF2D4400-0F4D-4A72-A30C-ABA3B96311EF";
paths = (
{
closed = 1;
nodes = (
"774 0 LINE",
"904 0 LINE",
"904 90 LINE",
"774 90 LINE"
);
}
);
width = 884;
},
{
anchors = (
{
name = bottom;
position = "{459, -80}";
},
{
name = entry;
position = "{924, 90}";
},
{
name = top;
position = "{459, 450}";
}
);
components = (
{
name = "dotlessbeh-ar";
}
);
layerId = "62EAF1BF-1B79-4549-96F9-774E14A065EF";
paths = (
{
closed = 1;
nodes = (
"834 0 LINE",
"944 0 LINE",
"944 180 LINE",
"834 180 LINE"
);
}
);
width = 924;
}
);
leftMetricsKey = "=dotlessbeh-ar";
},
{
glyphname = "dotlessbeh-ar.medi";
layers = (
{
anchors = (
{
name = bottom;
position = "{180, -80}";
},
{
name = entry;
position = "{320, 45}";
},
{
name = exit;
position = "{0, 45}";
},
{
name = top;
position = "{180, 550}";
}
);
hints = (
{
horizontal = 1;
origin = "{0, 4}";
target = "{0, 3}";
type = Stem;
},
{
horizontal = 1;
origin = "{0, 1}";
target = down;
type = TopGhost;
},
{
origin = "{0, 2}";
target = "{0, 7}";
type = Stem;
}
);
layerId = "CF2D4400-0F4D-4A72-A30C-ABA3B96311EF";
paths = (
{
closed = 1;
nodes = (
"220 470 LINE",
"140 470 LINE",
"140 90 LINE",
"-20 90 LINE",
"-20 0 LINE",
"340 0 LINE",
"340 90 LINE",
"220 90 LINE"
);
}
);
width = 320;
},
{
anchors = (
{
name = bottom;
position = "{210, -80}";
},
{
name = entry;
position = "{360, 90}";
},
{
name = exit;
position = "{0, 90}";
},
{
name = top;
position = "{210, 550}";
}
);
color = 5;
layerId = "62EAF1BF-1B79-4549-96F9-774E14A065EF";
paths = (
{
closed = 1;
nodes = (
"290 470 LINE",
"130 470 LINE",
"130 180 LINE",
"-20 180 LINE",
"-20 0 LINE",
"380 0 LINE",
"380 180 LINE",
"290 180 LINE"
);
}
);
width = 360;
}
);
},
{
glyphname = "dotlessbeh-ar.init";
layers = (
{
anchors = (
{
name = bottom;
position = "{180, -80}";
},
{
name = exit;
position = "{0, 45}";
},
{
name = top;
position = "{180, 550}";
}
);
hints = (
{
horizontal = 1;
origin = "{0, 5}";
target = "{0, 4}";
type = Stem;
},
{
horizontal = 1;
origin = "{0, 2}";
target = down;
type = TopGhost;
},
{
origin = "{0, 3}";
target = "{0, 0}";
type = Stem;
}
);
layerId = "CF2D4400-0F4D-4A72-A30C-ABA3B96311EF";
paths = (
{
closed = 1;
nodes = (
"220 0 LINE",
"220 470 LINE",
"140 470 LINE",
"140 90 LINE",
"-20 90 LINE",
"-20 0 LINE"
);
}
);
width = 320;
},
{
anchors = (
{
name = bottom;
position = "{210, -80}";
},
{
name = exit;
position = "{0, 90}";
},
{
name = top;
position = "{210, 550}";
}
);
color = 5;
layerId = "62EAF1BF-1B79-4549-96F9-774E14A065EF";
paths = (
{
closed = 1;
nodes = (
"290 0 LINE",
"290 470 LINE",
"130 470 LINE",
"130 180 LINE",
"-20 180 LINE",
"-20 0 LINE"
);
}
);
width = 360;
}
);
},
{
glyphname = "tcheh-ar";
layers = (
{
anchors = (
{
name = bottom;
position = "{267, -420}";
},
{
name = top;
position = "{279, 573}";
}
);
background = {
paths = (
{
closed = 0;
nodes = (
"277 -187 LINE",
"214 -187 OFFCURVE",
"170 -184 OFFCURVE",
"136 -178 CURVE",
"136 -1 LINE SMOOTH",
"136 122 OFFCURVE",
"249 168 OFFCURVE",
"555 168 CURVE",
"499 248 LINE",
"173 248 OFFCURVE",
"51 166 OFFCURVE",
"51 -52 CURVE SMOOTH",
"51 -237 OFFCURVE",
"86 -277 OFFCURVE",
"249 -277 CURVE"
);
}
);
};
components = (
{
alignment = -1;
name = "threedotsdownbelow-ar";
transform = "{1, 0, 0, 1, 201, 128}";
}
);
hints = (
{
horizontal = 1;
origin = "{0, 16}";
target = "{0, 2}";
type = Stem;
},
{
horizontal = 1;
origin = "{0, 9}";
target = "{0, 10}";
type = Stem;
},
{
horizontal = 1;
origin = "{1, 7}";
target = "{1, 14}";
type = Stem;
},
{
origin = "{0, 13}";
target = "{0, 5}";
type = Stem;
}
);
layerId = "CF2D4400-0F4D-4A72-A30C-ABA3B96311EF";
paths = (
{
closed = 1;
nodes = (
"268 -182 OFFCURVE",
"235 -185 OFFCURVE",
"206 -185 CURVE SMOOTH",
"179 -185 OFFCURVE",
"156 -182 OFFCURVE",
"136 -178 CURVE",
"136 -1 LINE SMOOTH",
"136 122 OFFCURVE",
"249 168 OFFCURVE",
"555 168 CURVE",
"499 248 LINE",
"173 248 OFFCURVE",
"51 166 OFFCURVE",
"51 -52 CURVE SMOOTH",
"51 -217 OFFCURVE",
"82 -275 OFFCURVE",
"216 -275 CURVE SMOOTH",
"247 -275 OFFCURVE",
"281 -270 OFFCURVE",
"319 -261 CURVE",
"307 -177 LINE"
);
},
{
closed = 1;
nodes = (
"427 190 OFFCURVE",
"466 168 OFFCURVE",
"555 168 CURVE",
"555 248 LINE",
"499 248 LINE",
"439 413 OFFCURVE",
"341 480 OFFCURVE",
"160 480 CURVE SMOOTH",
"128 480 OFFCURVE",
"93 478 OFFCURVE",
"54 474 CURVE",
"67 386 LINE",
"92 389 OFFCURVE",
"119 390 OFFCURVE",
"150 390 CURVE SMOOTH",
"278 390 OFFCURVE",
"357 348 OFFCURVE",
"400 257 CURVE SMOOTH"
);
}
);
width = 549;
},
{
anchors = (
{
name = bottom;
position = "{270, -420}";
},
{
name = top;
position = "{299, 573}";
}
);
background = {
paths = (
{
closed = 1;
nodes = (
"279 -117 OFFCURVE",
"227 -114 OFFCURVE",
"202 -111 CURVE",
"202 18 LINE SMOOTH",
"202 80 OFFCURVE",
"329 110 OFFCURVE",
"591 110 CURVE",
"535 270 LINE",
"184 270 OFFCURVE",
"42 182 OFFCURVE",
"42 -37 CURVE SMOOTH",
"42 -227 OFFCURVE",
"103 -297 OFFCURVE",
"270 -297 CURVE",
"328 -289 LINE",
"310 -117 LINE"
);
}
);
};
color = 1;
components = (
{
alignment = -1;
name = "threedotsdownbelow-ar";
transform = "{0.8, 0, 0, 0.8, 271, 97}";
}
);
layerId = "62EAF1BF-1B79-4549-96F9-774E14A065EF";
paths = (
{
closed = 1;
nodes = (
"292 -112 OFFCURVE",
"266 -115 OFFCURVE",
"243 -115 CURVE SMOOTH",
"227 -115 OFFCURVE",
"212 -114 OFFCURVE",
"202 -111 CURVE",
"202 18 LINE SMOOTH",
"202 80 OFFCURVE",
"329 110 OFFCURVE",
"591 110 CURVE",
"535 270 LINE",
"184 270 OFFCURVE",
"42 182 OFFCURVE",
"42 -37 CURVE SMOOTH",
"42 -222 OFFCURVE",
"85 -295 OFFCURVE",
"239 -295 CURVE SMOOTH",
"266 -295 OFFCURVE",
"295 -290 OFFCURVE",
"328 -279 CURVE",
"310 -107 LINE"
);
},
{
closed = 1;
nodes = (
"388 148 OFFCURVE",
"461 110 OFFCURVE",
"591 110 CURVE",
"591 270 LINE",
"535 270 LINE",
"485 420 OFFCURVE",
"385 485 OFFCURVE",
"205 485 CURVE SMOOTH",
"165 485 OFFCURVE",
"120 482 OFFCURVE",
"54 474 CURVE",
"78 297 LINE",
"121 303 OFFCURVE",
"152 305 OFFCURVE",
"179 305 CURVE SMOOTH",
"267 305 OFFCURVE",
"322 283 OFFCURVE",
"350 236 CURVE SMOOTH"
);
}
);
width = 600;
}
);
unicode = 0686;
},
{
glyphname = "tcheh-ar.fina";
layers = (
{
anchors = (
{
name = bottom;
position = "{367, -300}";
},
{
name = entry;
position = "{672, 45}";
},
{
name = top;
position = "{379, 573}";
}
);
components = (
{
alignment = -1;
name = "threedotsdownbelow-ar";
transform = "{1, 0, 0, 1, 201, 128}";
}
);
hints = (
{
horizontal = 1;
origin = "{1, 16}";
target = "{1, 2}";
type = Stem;
},
{
horizontal = 1;
origin = "{0, 17}";
target = "{0, 20}";
type = Stem;
},
{
horizontal = 1;
origin = "{1, 9}";
target = "{1, 10}";
type = Stem;
},
{
horizontal = 1;
origin = "{0, 3}";
target = "{0, 10}";
type = Stem;
},
{
origin = "{1, 13}";
target = "{1, 5}";
type = Stem;
}
);
layerId = "CF2D4400-0F4D-4A72-A30C-ABA3B96311EF";
paths = (
{
closed = 1;
nodes = (
"564 270 LINE SMOOTH",
"509 420 OFFCURVE",
"427 480 OFFCURVE",
"260 480 CURVE SMOOTH",
"228 480 OFFCURVE",
"193 478 OFFCURVE",
"154 474 CURVE",
"167 386 LINE",
"198 389 OFFCURVE",
"225 390 OFFCURVE",
"250 390 CURVE SMOOTH",
"387 390 OFFCURVE",
"444 351 OFFCURVE",
"492 236 CURVE SMOOTH",
"561 56 LINE SMOOTH",
"576 17 OFFCURVE",
"596 0 OFFCURVE",
"636 0 CURVE SMOOTH",
"692 0 LINE",
"692 90 LINE",
"632 90 LINE"
);
},
{
closed = 1;
nodes = (
"268 -182 OFFCURVE",
"235 -185 OFFCURVE",
"206 -185 CURVE SMOOTH",
"179 -185 OFFCURVE",
"156 -182 OFFCURVE",
"136 -178 CURVE",
"136 -1 LINE SMOOTH",
"136 122 OFFCURVE",
"249 168 OFFCURVE",
"555 168 CURVE",
"499 238 LINE",
"173 238 OFFCURVE",
"51 159 OFFCURVE",
"51 -52 CURVE SMOOTH",
"51 -217 OFFCURVE",
"82 -275 OFFCURVE",
"216 -275 CURVE SMOOTH",
"247 -275 OFFCURVE",
"281 -270 OFFCURVE",
"319 -261 CURVE",
"307 -177 LINE"
);
}
);
width = 672;
},
{
anchors = (
{
name = bottom;
position = "{420, -297}";
},
{
name = entry;
position = "{772, 90}";
},
{
name = top;
position = "{449, 573}";
}
);
color = 1;
components = (
{
alignment = -1;
name = "threedotsdownbelow-ar";
transform = "{0.8, 0, 0, 0.8, 271, 97}";
}
);
layerId = "62EAF1BF-1B79-4549-96F9-774E14A065EF";
paths = (
{
closed = 1;
nodes = (
"675 270 LINE SMOOTH",
"622 422 OFFCURVE",
"528 485 OFFCURVE",
"355 485 CURVE SMOOTH",
"315 485 OFFCURVE",
"268 482 OFFCURVE",
"204 474 CURVE",
"228 297 LINE",
"274 302 OFFCURVE",
"318 305 OFFCURVE",
"359 305 CURVE SMOOTH",
"454 305 OFFCURVE",
"505 275 OFFCURVE",
"532 205 CURVE SMOOTH",
"589 56 LINE SMOOTH",
"604 17 OFFCURVE",
"629 0 OFFCURVE",
"673 0 CURVE SMOOTH",
"792 0 LINE",
"792 180 LINE",
"707 180 LINE"
);
},
{
closed = 1;
nodes = (
"292 -112 OFFCURVE",
"266 -115 OFFCURVE",
"243 -115 CURVE SMOOTH",
"227 -115 OFFCURVE",
"212 -114 OFFCURVE",
"202 -111 CURVE",
"202 18 LINE SMOOTH",
"202 73 OFFCURVE",
"329 100 OFFCURVE",
"591 100 CURVE",
"535 240 LINE",
"184 240 OFFCURVE",
"42 161 OFFCURVE",
"42 -37 CURVE SMOOTH",
"42 -222 OFFCURVE",
"85 -295 OFFCURVE",
"239 -295 CURVE SMOOTH",
"266 -295 OFFCURVE",
"295 -290 OFFCURVE",
"328 -279 CURVE",
"310 -107 LINE"
);
}
);
width = 772;
}
);
unicode = FB7B;
},
{
glyphname = "hah-ar";
layers = (
{
anchors = (
{
name = bottom;
position = "{267, -320}";
},
{
name = center;
position = "{308, -50}";
},
{
name = top;
position = "{279, 573}";
}
);
background = {
paths = (
{
closed = 1;
nodes = (
"315 -316 OFFCURVE",
"377 -309 OFFCURVE",
"447 -294 CURVE SMOOTH",
"480 -287 LINE",
"471 -226 LINE",
"394 -241 OFFCURVE",
"326 -248 OFFCURVE",
"286 -248 CURVE SMOOTH",
"170 -248 OFFCURVE",
"119 -191 OFFCURVE",
"119 -95 CURVE SMOOTH",
"119 2 OFFCURVE",
"170 40 OFFCURVE",
"256 40 CURVE SMOOTH",
"345 40 OFFCURVE",
"416 0 OFFCURVE",
"416 0 CURVE",
"493 0 LINE",
"493 251 LINE SMOOTH",
"493 440 OFFCURVE",
"449 510 OFFCURVE",
"329 510 CURVE SMOOTH",
"270 510 OFFCURVE",
"171 493 OFFCURVE",
"103 479 CURVE",
"106 422 LINE",
"135 425 LINE SMOOTH",
"161 428 OFFCURVE",
"267 441 OFFCURVE",
"312 441 CURVE SMOOTH",
"396 441 OFFCURVE",
"416 397 OFFCURVE",
"416 252 CURVE SMOOTH",
"416 69 LINE",
"364 96 OFFCURVE",
"306 109 OFFCURVE",
"245 109 CURVE SMOOTH",
"110 109 OFFCURVE",
"40 44 OFFCURVE",
"40 -91 CURVE SMOOTH",
"40 -235 OFFCURVE",
"119 -316 OFFCURVE",
"270 -316 CURVE SMOOTH"
);
}
);
};
color = 1;
hints = (
{
horizontal = 1;
origin = "{0, 20}";
target = "{0, 6}";
type = Stem;
},
{
horizontal = 1;
origin = "{0, 13}";
target = "{0, 14}";
type = Stem;
},
{
horizontal = 1;
origin = "{1, 7}";
target = "{1, 14}";
type = Stem;
},
{
origin = "{0, 17}";
target = "{0, 9}";
type = Stem;
}
);
layerId = "CF2D4400-0F4D-4A72-A30C-ABA3B96311EF";
paths = (
{
closed = 1;
nodes = (
"331 -277 OFFCURVE",
"408 -267 OFFCURVE",
"458 -249 CURVE",
"446 -165 LINE",
"371 -181 OFFCURVE",
"326 -187 OFFCURVE",
"277 -187 CURVE SMOOTH",
"214 -187 OFFCURVE",
"170 -184 OFFCURVE",
"136 -178 CURVE",
"136 -1 LINE SMOOTH",
"136 122 OFFCURVE",
"249 168 OFFCURVE",
"555 168 CURVE",
"499 248 LINE",
"173 248 OFFCURVE",
"51 166 OFFCURVE",
"51 -52 CURVE SMOOTH",
"51 -237 OFFCURVE",
"86 -277 OFFCURVE",
"249 -277 CURVE SMOOTH"
);
},
{
closed = 1;
nodes = (
"427 190 OFFCURVE",
"466 168 OFFCURVE",
"555 168 CURVE",
"555 248 LINE",
"499 248 LINE",
"439 413 OFFCURVE",
"341 480 OFFCURVE",
"160 480 CURVE SMOOTH",
"128 480 OFFCURVE",
"93 478 OFFCURVE",
"54 474 CURVE",
"67 386 LINE",
"92 389 OFFCURVE",
"119 390 OFFCURVE",
"150 390 CURVE SMOOTH",
"278 390 OFFCURVE",
"357 348 OFFCURVE",
"400 257 CURVE SMOOTH"
);
}
);
width = 555;
},
{
anchors = (
{
name = bottom;
position = "{270, -340}";
},
{
name = center;
position = "{362, -25}";
},
{
name = top;
position = "{299, 573}";
}
);
guideLines = (
{
angle = 180;
position = "{526, 130}";
}
);
layerId = "62EAF1BF-1B79-4549-96F9-774E14A065EF";
paths = (
{
closed = 1;
nodes = (
"362 -297 OFFCURVE",
"448 -286 OFFCURVE",
"520 -265 CURVE",
"502 -93 LINE",
"436 -110 OFFCURVE",
"378 -117 OFFCURVE",
"310 -117 CURVE SMOOTH",
"279 -117 OFFCURVE",
"227 -114 OFFCURVE",
"202 -111 CURVE",
"202 18 LINE SMOOTH",
"202 80 OFFCURVE",
"329 110 OFFCURVE",
"591 110 CURVE",
"535 270 LINE",
"184 270 OFFCURVE",
"42 182 OFFCURVE",
"42 -37 CURVE SMOOTH",
"42 -227 OFFCURVE",
"103 -297 OFFCURVE",
"270 -297 CURVE SMOOTH"
);
},
{
closed = 1;
nodes = (
"388 148 OFFCURVE",
"461 110 OFFCURVE",
"591 110 CURVE",
"591 270 LINE",
"535 270 LINE",
"485 420 OFFCURVE",
"385 485 OFFCURVE",
"205 485 CURVE SMOOTH",
"165 485 OFFCURVE",
"120 482 OFFCURVE",
"54 474 CURVE",
"78 297 LINE",
"121 303 OFFCURVE",
"152 305 OFFCURVE",
"179 305 CURVE SMOOTH",
"267 305 OFFCURVE",
"322 283 OFFCURVE",
"350 236 CURVE SMOOTH"
);
}
);
width = 591;
}
);
unicode = 062D;
},
{
glyphname = "hah-ar.fina";
layers = (
{
anchors = (
{
name = bottom;
position = "{267, -340}";
},
{
name = center;
position = "{303, -65}";
},
{
name = entry;
position = "{572, 45}";
},
{
name = top;
position = "{279, 573}";
}
);
hints = (
{
horizontal = 1;
origin = "{0, 20}";
target = "{0, 6}";
type = Stem;
},
{
horizontal = 1;
origin = "{1, 17}";
target = "{1, 20}";
type = Stem;
},
{
horizontal = 1;
place = "{174, 70}";
type = Stem;
},
{
horizontal = 1;
origin = "{1, 3}";
target = "{1, 10}";
type = Stem;
},
{
origin = "{0, 17}";
target = "{0, 9}";
type = Stem;
}
);
layerId = "CF2D4400-0F4D-4A72-A30C-ABA3B96311EF";
paths = (
{
closed = 1;
nodes = (
"327 -277 OFFCURVE",
"406 -267 OFFCURVE",
"458 -249 CURVE",
"446 -165 LINE",
"373 -181 OFFCURVE",
"328 -187 OFFCURVE",
"277 -187 CURVE SMOOTH",
"220 -187 OFFCURVE",
"173 -185 OFFCURVE",
"136 -178 CURVE",
"136 -1 LINE SMOOTH",
"136 125 OFFCURVE",
"248 169 OFFCURVE",
"465 177 CURVE",
"444 247 LINE",
"179 239 OFFCURVE",
"51 168 OFFCURVE",
"51 -52 CURVE SMOOTH",
"51 -228 OFFCURVE",
"78 -277 OFFCURVE",
"249 -277 CURVE SMOOTH"
);
},
{
closed = 1;
nodes = (
"464 270 LINE SMOOTH",
"409 420 OFFCURVE",
"327 480 OFFCURVE",
"160 480 CURVE SMOOTH",
"128 480 OFFCURVE",
"93 478 OFFCURVE",
"54 474 CURVE",
"67 386 LINE",
"98 389 OFFCURVE",
"125 390 OFFCURVE",
"150 390 CURVE SMOOTH",
"287 390 OFFCURVE",
"344 351 OFFCURVE",
"392 236 CURVE SMOOTH",
"461 56 LINE SMOOTH",
"476 17 OFFCURVE",
"496 0 OFFCURVE",
"536 0 CURVE SMOOTH",
"592 0 LINE",
"592 90 LINE",
"532 90 LINE"
);
}
);
width = 572;
},
{
anchors = (
{
name = bottom;
position = "{270, -350}";
},
{
name = center;
position = "{326, -31}";
},
{
name = entry;
position = "{622, 90}";
},
{
name = top;
position = "{299, 573}";
}
);
color = 1;
layerId = "62EAF1BF-1B79-4549-96F9-774E14A065EF";
paths = (
{
closed = 1;
nodes = (
"362 -297 OFFCURVE",
"448 -286 OFFCURVE",
"520 -265 CURVE",
"502 -93 LINE",
"436 -110 OFFCURVE",
"378 -117 OFFCURVE",
"310 -117 CURVE SMOOTH",
"268 -117 OFFCURVE",
"236 -114 OFFCURVE",
"208 -111 CURVE",
"208 18 LINE SMOOTH",
"208 80 OFFCURVE",
"303 112 OFFCURVE",
"503 118 CURVE",
"456 258 LINE",
"167 245 OFFCURVE",
"38 154 OFFCURVE",
"38 -37 CURVE SMOOTH",
"38 -217 OFFCURVE",
"109 -297 OFFCURVE",
"270 -297 CURVE SMOOTH"
);
},
{
closed = 1;
nodes = (
"525 270 LINE SMOOTH",
"472 422 OFFCURVE",
"378 485 OFFCURVE",
"205 485 CURVE SMOOTH",
"165 485 OFFCURVE",
"118 482 OFFCURVE",
"54 474 CURVE",
"78 297 LINE",
"124 302 OFFCURVE",
"168 305 OFFCURVE",
"209 305 CURVE SMOOTH",
"304 305 OFFCURVE",
"355 275 OFFCURVE",
"382 205 CURVE SMOOTH",
"439 56 LINE SMOOTH",
"454 17 OFFCURVE",
"479 0 OFFCURVE",
"523 0 CURVE SMOOTH",
"642 0 LINE",
"642 180 LINE",
"557 180 LINE"
);
}
);
width = 622;
}
);
unicode = FEA2;
},
{
glyphname = "hah-ar.medi";
layers = (
{
anchors = (
{
name = bottom;
position = "{265, -80}";
},
{
name = entry;
position = "{572, 45}";
},
{
name = exit;
position = "{0, 45}";
},
{
name = top;
position = "{239, 550}";
}
);
guideLines = (
{
angle = 21.695;
position = "{508, 180}";
showMeasurement = 1;
},
{
angle = 249.842;
position = "{470, 233}";
}
);
hints = (
{
horizontal = 1;
origin = "{1, 4}";
target = "{1, 3}";
type = Stem;
},
{
horizontal = 1;
origin = "{0, 3}";
target = "{0, 10}";
type = Stem;
}
);
layerId = "CF2D4400-0F4D-4A72-A30C-ABA3B96311EF";
paths = (
{
closed = 1;
nodes = (
"464 270 LINE SMOOTH",
"409 420 OFFCURVE",
"327 480 OFFCURVE",
"160 480 CURVE SMOOTH",
"128 480 OFFCURVE",
"93 478 OFFCURVE",
"54 474 CURVE",
"67 386 LINE",
"98 389 OFFCURVE",
"125 390 OFFCURVE",
"150 390 CURVE SMOOTH",
"287 390 OFFCURVE",
"344 351 OFFCURVE",
"392 236 CURVE SMOOTH",
"461 56 LINE SMOOTH",
"476 17 OFFCURVE",
"496 0 OFFCURVE",
"536 0 CURVE SMOOTH",
"592 0 LINE",
"592 90 LINE",
"532 90 LINE"
);
},
{
closed = 1;
nodes = (
"367 186 OFFCURVE",
"303 90 OFFCURVE",
"196 90 CURVE SMOOTH",
"-20 90 LINE",
"-20 0 LINE",
"163 0 LINE SMOOTH",
"327 0 OFFCURVE",
"421 99 OFFCURVE",
"470 233 CURVE",
"396 265 LINE"
);
}
);
width = 572;
},
{
anchors = (
{
name = bottom;
position = "{319, -80}";
},
{
name = entry;
position = "{620, 90}";
},
{
name = exit;
position = "{0, 90}";
},
{
name = top;
position = "{289, 550}";
}
);
guideLines = (
{
angle = 20.427;
position = "{561, 225}";
showMeasurement = 1;
},
{
angle = 255.114;
position = "{505, 270}";
}
);
layerId = "62EAF1BF-1B79-4549-96F9-774E14A065EF";
paths = (
{
closed = 1;
nodes = (
"525 270 LINE SMOOTH",
"473 419 OFFCURVE",
"382 485 OFFCURVE",
"205 485 CURVE SMOOTH",
"160 485 OFFCURVE",
"110 481 OFFCURVE",
"54 474 CURVE",
"78 297 LINE",
"127 303 OFFCURVE",
"171 305 OFFCURVE",
"209 305 CURVE SMOOTH",
"310 305 OFFCURVE",
"357 271 OFFCURVE",
"382 205 CURVE SMOOTH",
"439 56 LINE SMOOTH",
"454 17 OFFCURVE",
"479 0 OFFCURVE",
"523 0 CURVE SMOOTH",
"642 0 LINE",
"642 180 LINE",
"557 180 LINE"
);
},
{
closed = 1;
nodes = (
"335 239 OFFCURVE",
"294 180 OFFCURVE",
"184 180 CURVE",
"-20 180 LINE",
"-20 0 LINE",
"173 0 LINE SMOOTH",
"315 0 OFFCURVE",
"450 63 OFFCURVE",
"505 270 CURVE",
"356 318 LINE"
);
}
);
width = 620;
}
);
unicode = FEA4;
},
{
glyphname = "hah-ar.init";
layers = (
{
anchors = (
{
name = bottom;
position = "{265, -80}";
},
{
name = exit;
position = "{0, 45}";
},
{
name = top;
position = "{239, 550}";
}
);
background = {
paths = (
{
closed = 0;
nodes = (
"461 56 LINE SMOOTH",
"476 17 OFFCURVE",
"496 0 OFFCURVE",
"536 0 CURVE SMOOTH",
"592 0 LINE",
"592 90 LINE",
"532 90 LINE"
);
}
);
};
hints = (
{
horizontal = 1;
origin = "{1, 4}";
target = "{1, 3}";
type = Stem;
},
{
horizontal = 1;
origin = "{0, 15}";
target = "{0, 18}";
type = Stem;
},
{
horizontal = 1;
origin = "{0, 2}";
target = "{0, 9}";
type = Stem;
}
);
layerId = "CF2D4400-0F4D-4A72-A30C-ABA3B96311EF";
paths = (
{
closed = 1;
nodes = (
"408 420 OFFCURVE",
"327 480 OFFCURVE",
"160 480 CURVE SMOOTH",
"128 480 OFFCURVE",
"93 478 OFFCURVE",
"54 474 CURVE",
"67 386 LINE",
"98 389 OFFCURVE",
"125 390 OFFCURVE",
"150 390 CURVE SMOOTH",
"288 390 OFFCURVE",
"349 354 OFFCURVE",
"392 236 CURVE SMOOTH",
"406 197 OFFCURVE",
"427 180 OFFCURVE",
"467 180 CURVE SMOOTH",
"555 180 LINE",
"555 270 LINE",
"463 270 LINE"
);
},
{
closed = 1;
nodes = (
"363 186 OFFCURVE",
"289 90 OFFCURVE",
"166 90 CURVE SMOOTH",
"-20 90 LINE",
"-20 0 LINE",
"143 0 LINE SMOOTH",
"318 0 OFFCURVE",
"418 99 OFFCURVE",
"470 233 CURVE",
"396 265 LINE"
);
}
);
width = 555;
},
{
anchors = (
{
name = bottom;
position = "{289, -80}";
},
{
name = exit;
position = "{0, 90}";
},
{
name = top;
position = "{289, 550}";
}
);
background = {
paths = (
{
closed = 1;
nodes = (
"427 130 LINE",
"591 130 LINE",
"591 270 LINE",
"398 270 LINE"
);
}
);
};
layerId = "62EAF1BF-1B79-4549-96F9-774E14A065EF";
paths = (
{
closed = 1;
nodes = (
"452 437 OFFCURVE",
"368 485 OFFCURVE",
"205 485 CURVE SMOOTH",
"160 485 OFFCURVE",
"110 481 OFFCURVE",
"54 474 CURVE",
"78 297 LINE",
"127 303 OFFCURVE",
"171 305 OFFCURVE",
"209 305 CURVE SMOOTH",
"310 305 OFFCURVE",
"357 271 OFFCURVE",
"382 205 CURVE SMOOTH",
"397 166 OFFCURVE",
"422 149 OFFCURVE",
"466 149 CURVE SMOOTH",
"591 149 LINE",
"591 329 LINE",
"500 329 LINE"
);
},
{
closed = 1;
nodes = (
"331 239 OFFCURVE",
"283 180 OFFCURVE",
"154 180 CURVE SMOOTH",
"-20 180 LINE",
"-20 0 LINE",
"143 0 LINE SMOOTH",
"298 0 OFFCURVE",
"445 63 OFFCURVE",
"505 270 CURVE",
"356 318 LINE"
);
}
);
width = 591;
},
{
anchors = (
{
name = bottom;
position = "{265, -80}";
},
{
name = exit;
position = "{0, 35}";
},
{
name = top;
position = "{239, 550}";
}
);
associatedMasterId = "CF2D4400-0F4D-4A72-A30C-ABA3B96311EF";
background = {
paths = (
{
closed = 1;
nodes = (
"377 195 OFFCURVE",
"237 88 OFFCURVE",
"131 70 CURVE",
"-20 70 LINE",
"-20 0 LINE",
"153 0 LINE SMOOTH",
"275 0 OFFCURVE",
"421 113 OFFCURVE",
"494 243 CURVE",
"415 287 LINE"
);
},
{
closed = 1;
nodes = (
"494 243 LINE",
"433 412 OFFCURVE",
"344 480 OFFCURVE",
"160 480 CURVE SMOOTH",
"128 480 OFFCURVE",
"93 478 OFFCURVE",
"54 474 CURVE",
"67 391 LINE",
"98 394 OFFCURVE",
"125 395 OFFCURVE",
"150 395 CURVE SMOOTH",
"291 395 OFFCURVE",
"350 347 OFFCURVE",
"399 209 CURVE"
);
},
{
closed = 1;
nodes = (
"442 178 LINE",
"555 178 LINE",
"555 248 LINE",
"428 248 LINE"
);
}
);
};
hints = (
{
horizontal = 1;
origin = "{0, 4}";
target = "{0, 3}";
type = Stem;
},
{
horizontal = 1;
origin = "{1, 2}";
target = "{1, 4}";
type = Stem;
},
{
horizontal = 1;
origin = "{1, 7}";
target = "{1, 14}";
type = Stem;
}
);
layerId = "649FEF58-BEB2-4C36-9CCC-B02C44496B72";
name = "Regular Dec 5 15, 15:25";
paths = (
{
closed = 1;
nodes = (
"376 195 OFFCURVE",
"239 88 OFFCURVE",
"136 70 CURVE",
"-20 70 LINE",
"-20 0 LINE",
"133 0 LINE SMOOTH",
"259 0 OFFCURVE",
"413 115 OFFCURVE",
"484 248 CURVE",
"410 287 LINE"
);
},
{
closed = 1;
nodes = (
"431 185 OFFCURVE",
"477 168 OFFCURVE",
"565 168 CURVE",
"565 248 LINE",
"499 248 LINE",
"441 407 OFFCURVE",
"347 480 OFFCURVE",
"160 480 CURVE SMOOTH",
"128 480 OFFCURVE",
"93 478 OFFCURVE",
"54 474 CURVE",
"67 396 LINE",
"98 399 OFFCURVE",
"125 400 OFFCURVE",
"150 400 CURVE SMOOTH",
"284 400 OFFCURVE",
"359 350 OFFCURVE",
"400 257 CURVE SMOOTH"
);
}
);
width = 555;
},
{
anchors = (
{
name = bottom;
position = "{289, -80}";
},
{
name = exit;
position = "{0, 70}";
},
{
name = top;
position = "{289, 550}";
}
);
associatedMasterId = "62EAF1BF-1B79-4549-96F9-774E14A065EF";
background = {
paths = (
{
closed = 1;
nodes = (
"427 130 LINE",
"591 130 LINE",
"591 270 LINE",
"398 270 LINE"
);
}
);
};
layerId = "2E185BD9-AE19-4E4A-8C74-5D4C96BD5DD3";
name = "Bold Dec 5 15, 15:25";
paths = (
{
closed = 1;
nodes = (
"344 239 OFFCURVE",
"259 156 OFFCURVE",
"184 140 CURVE",
"-20 140 LINE",
"-20 0 LINE",
"173 0 LINE SMOOTH",
"323 0 OFFCURVE",
"442 91 OFFCURVE",
"525 270 CURVE",
"366 318 LINE"
);
},
{
closed = 1;
nodes = (
"388 162 OFFCURVE",
"461 130 OFFCURVE",
"591 130 CURVE",
"591 280 LINE",
"535 280 LINE",
"485 423 OFFCURVE",
"385 485 OFFCURVE",
"205 485 CURVE SMOOTH",
"165 485 OFFCURVE",
"118 482 OFFCURVE",
"54 474 CURVE",
"78 327 LINE",
"114 332 OFFCURVE",
"148 335 OFFCURVE",
"179 335 CURVE SMOOTH",
"267 335 OFFCURVE",
"322 303 OFFCURVE",
"350 236 CURVE SMOOTH"
);
}
);
width = 591;
}
);
note = "25-11 cambio de estructura";
unicode = FEA3;
},
{
glyphname = "dal-ar";
layers = (
{
anchors = (
{
name = bottom;
position = "{216, -80}";
},
{
name = top;
position = "{175, 550}";
}
);
background = {
paths = (
{
closed = 1;
nodes = (
"433 70 LINE",
"433 0 LINE",
"20 0 LINE",
"20 90 LINE",
"337 90 LINE",
"291 259 LINE SMOOTH",
"263 363 OFFCURVE",
"230 401 OFFCURVE",
"146 401 CURVE SMOOTH",
"123 401 OFFCURVE",
"93 397 OFFCURVE",
"70 391 CURVE",
"48 479 LINE",
"78 486 OFFCURVE",
"116 491 OFFCURVE",
"146 491 CURVE SMOOTH",
"272 491 OFFCURVE",
"339 427 OFFCURVE",
"377 283 CURVE SMOOTH"
);
}
);
};
guideLines = (
{
angle = 15.018;
position = "{400, 193}";
showMeasurement = 1;
}
);
hints = (
{
horizontal = 1;
origin = "{0, 16}";
target = "{0, 15}";
type = Stem;
},
{
horizontal = 1;
origin = "{0, 11}";
target = "{0, 4}";
type = Stem;
}
);
layerId = "CF2D4400-0F4D-4A72-A30C-ABA3B96311EF";
paths = (
{
closed = 1;
nodes = (
"463 0 LINE",
"463 70 LINE",
"353 451 OFFCURVE",
"323 491 OFFCURVE",
"146 491 CURVE SMOOTH",
"119 491 OFFCURVE",
"82 487 OFFCURVE",
"48 479 CURVE",
"70 391 LINE",
"93 397 OFFCURVE",
"123 401 OFFCURVE",
"146 401 CURVE SMOOTH",
"260 401 OFFCURVE",
"294 353 OFFCURVE",
"367 90 CURVE",
"20 90 LINE",
"20 0 LINE"
);
}
);
width = 513;
},
{
anchors = (
{
name = bottom;
position = "{265, -80}";
},
{
name = top;
position = "{216, 550}";
}
);
background = {
paths = (
{
closed = 1;
nodes = (
"414 435 OFFCURVE",
"360 491 OFFCURVE",
"186 491 CURVE SMOOTH",
"138 491 OFFCURVE",
"85 485 OFFCURVE",
"46 475 CURVE",
"55 370 LINE",
"185 349 LINE SMOOTH",
"246 333 OFFCURVE",
"248 324 OFFCURVE",
"262 271 CURVE SMOOTH",
"297 140 LINE",
"20 140 LINE",
"20 0 LINE",
"491 0 LINE",
"491 140 LINE",
"457 271 LINE SMOOTH"
);
}
);
};
color = 1;
layerId = "62EAF1BF-1B79-4549-96F9-774E14A065EF";
paths = (
{
closed = 1;
nodes = (
"491 0 LINE",
"491 140 LINE",
"429 425 OFFCURVE",
"372 491 OFFCURVE",
"186 491 CURVE SMOOTH",
"129 491 OFFCURVE",
"67 484 OFFCURVE",
"24 472 CURVE",
"68 298 LINE",
"103 306 OFFCURVE",
"146 311 OFFCURVE",
"186 311 CURVE SMOOTH",
"255 311 OFFCURVE",
"280 282 OFFCURVE",
"299 180 CURVE",
"20 180 LINE",
"20 0 LINE"
);
}
);
width = 541;
}
);
unicode = 062F;
},
{
glyphname = "dal-ar.fina";
layers = (
{
anchors = (
{
name = bottom;
position = "{216, -80}";
},
{
name = entry;
position = "{493, 45}";
},
{
name = top;
position = "{175, 550}";
}
);
components = (
{
name = "dal-ar";
}
);
hints = (
{
horizontal = 1;
origin = "{0, 0}";
target = "{0, 3}";
type = Stem;
},
{
origin = "{0, 0}";
target = "{0, 1}";
type = Stem;
}
);
layerId = "CF2D4400-0F4D-4A72-A30C-ABA3B96311EF";
paths = (
{
closed = 1;
nodes = (
"443 0 LINE",
"513 0 LINE",
"513 90 LINE",
"443 90 LINE"
);
}
);
width = 493;
},
{
anchors = (
{
name = bottom;
position = "{285, -80}";
},
{
name = entry;
position = "{541, 90}";
},
{
name = top;
position = "{216, 550}";
}
);
components = (
{
name = "dal-ar";
}
);
layerId = "62EAF1BF-1B79-4549-96F9-774E14A065EF";
paths = (
{
closed = 1;
nodes = (
"451 0 LINE",
"561 0 LINE",
"561 180 LINE",
"451 180 LINE"
);
}
);
width = 541;
}
);
unicode = FEAA;
},
